<?xml version="1.0" standalone="no"?><!DOCTYPE svg PUBLIC "-//W3C//DTD SVG 1.1//EN" "http://www.w3.org/Graphics/SVG/1.1/DTD/svg11.dtd"><svg height="1024" node-id="1" sillyvg="true" template-height="1024" template-width="1024" version="1.1" viewBox="0 0 1024 1024" width="1024" xmlns="http://www.w3.org/2000/svg" xmlns:xlink="http://www.w3.org/1999/xlink"><defs node-id="90"><filter height="100.508" id="filter0_f_47_10137" node-id="81" width="100.507" x="644.617" y="760.164"><feFlood color-interpolation-filters="sRGB" flood-color="#000000" flood-opacity="0" result="BackgroundImageFix"></feFlood><feBlend color-interpolation-filters="sRGB" in="SourceGraphic" in2="BackgroundImageFix" mode="normal" result="shape"></feBlend><feGaussianBlur color-interpolation-filters="sRGB" in="shape" result="effect1_foregroundBlur_47_10137" stdDeviation="10 10"></feGaussianBlur></filter><filter height="100.508" id="filter1_f_47_10137" node-id="85" width="100.507" x="272.265" y="760.164"><feFlood color-interpolation-filters="sRGB" flood-color="#000000" flood-opacity="0" result="BackgroundImageFix"></feFlood><feBlend color-interpolation-filters="sRGB" in="SourceGraphic" in2="BackgroundImageFix" mode="normal" result="shape"></feBlend><feGaussianBlur color-interpolation-filters="sRGB" in="shape" result="effect1_foregroundBlur_47_10137" stdDeviation="10 10"></feGaussianBlur></filter></defs><path d="M 627.86 927.66 C 481.11 955.68 354.83 919.47 354.83 919.47 C 208.31 883.54 105.08 789.89 105.08 621.21 C 105.08 615.35 105.31 609.44 105.54 603.71 C 89.62 596.83 76.27 585.28 82.04 574.67 C 93.35 553.87 -21.62 292.47 23.58 224.75 C 63.28 165.27 250.48 247.46 296.05 268.74 C 358.46 227.92 432.14 203.95 511.08 203.95 C 590.35 203.95 664.16 228.01 726.44 268.97 C 771.22 248.16 959.67 165.08 999.47 224.75 C 1044.71 292.47 929.70 553.87 941.01 574.67 C 946.87 585.51 933.00 597.15 916.71 604.09 C 916.95 609.72 917.04 615.49 917.04 621.26 C 917.04 789.94 813.94 883.54 667.28 919.51 L 627.86 927.66 Z" fill="#ffe7a8" fill-rule="nonzero" node-id="109" stroke="none" target-height="790.599" target-width="1066.3273" target-x="-21.6173" target-y="165.081"></path><path d="M 626.82 924.93 C 622.30 925.82 617.60 925.03 613.14 925.77 C 608.57 926.51 604.15 927.17 599.68 927.77 C 595.12 928.42 591.03 931.91 586.51 932.47 C 581.95 933.03 578.04 940.01 573.52 940.43 C 568.92 940.85 564.03 938.01 559.47 938.34 C 554.86 938.66 550.11 936.75 545.60 936.99 C 540.94 937.22 536.34 936.57 531.82 936.71 C 527.17 936.85 522.60 937.45 518.09 937.50 C 513.43 937.55 508.83 941.83 504.31 941.78 C 499.66 941.74 495.05 939.73 490.58 939.60 C 485.93 939.46 481.27 940.48 476.80 940.25 C 472.15 940.01 467.54 939.78 463.07 939.46 C 458.42 939.13 453.90 937.45 449.44 937.03 C 444.73 936.62 439.94 937.83 435.52 937.31 C 430.82 936.80 426.39 934.61 422.02 934.01 C 417.27 933.40 413.32 929.03 408.99 928.38 C 404.19 927.63 398.61 933.26 394.42 932.52 C 389.53 931.68 385.67 927.26 381.62 926.47 C 376.45 925.45 372.22 923.35 368.49 922.47 C 359.93 920.51 363.00 916.60 356.44 914.83 C 351.83 913.72 344.99 921.02 340.47 919.77 C 335.91 918.51 333.96 908.41 329.49 907.01 C 324.97 905.62 318.78 909.57 314.36 908.08 C 309.89 906.55 305.24 905.48 300.86 903.85 C 296.44 902.17 290.67 903.66 286.34 901.85 C 281.96 900.03 277.54 897.98 273.31 896.03 C 269.02 894.03 265.67 889.79 261.53 887.65 C 257.34 885.51 253.71 882.16 249.62 879.83 C 245.52 877.50 243.84 871.17 239.84 868.71 C 235.84 866.19 226.95 871.13 223.08 868.47 C 219.18 865.82 219.03 857.77 215.31 854.93 C 211.54 852.09 210.70 845.81 207.12 842.83 C 203.49 839.80 197.39 839.89 193.95 836.73 C 190.50 833.52 187.85 829.61 184.59 826.26 C 181.33 822.90 173.33 823.79 170.25 820.25 C 167.18 816.71 166.58 810.90 163.69 807.17 C 160.81 803.50 159.46 798.61 156.76 794.75 C 154.06 790.93 147.73 789.39 145.21 785.39 C 142.75 781.43 141.03 776.78 138.74 772.64 C 136.51 768.54 135.86 763.47 133.86 759.18 C 131.85 755.00 128.64 751.13 126.88 746.76 C 125.11 742.48 130.41 735.45 128.83 730.98 C 127.29 726.60 117.57 724.88 116.22 720.32 C 114.87 715.85 112.03 711.57 110.91 706.96 C 109.79 702.45 110.44 697.28 109.51 692.62 C 108.58 688.06 110.58 682.85 109.84 678.15 C 109.14 673.54 109.70 668.75 109.14 664.00 C 108.63 659.39 107.88 654.74 107.56 650.03 C 107.23 645.38 108.82 640.63 108.63 635.88 C 108.44 631.23 103.32 626.62 103.32 621.83 C 103.32 621.25 103.40 620.64 103.55 620.00 C 106.24 608.17 101.77 608.73 91.73 601.91 L 91.73 601.91 C 87.50 599.02 85.17 592.78 82.94 589.43 C 80.10 585.20 76.93 577.52 79.26 573.19 C 80.42 571.05 88.71 567.74 87.50 560.95 C 86.80 557.08 81.73 553.27 80.42 548.15 C 79.40 544.05 74.19 540.75 72.84 535.95 C 71.67 531.76 72.74 526.69 71.39 522.08 C 70.14 517.85 65.44 514.50 64.04 509.89 C 62.74 505.61 67.34 499.41 65.95 494.85 C 64.64 490.57 64.41 485.78 63.01 481.31 C 61.66 476.98 53.24 474.75 51.84 470.28 C 50.49 465.95 54.59 459.90 53.24 455.43 C 51.94 451.05 53.98 445.65 52.68 441.19 C 51.38 436.81 45.75 433.65 44.44 429.18 C 43.19 424.75 44.58 419.59 43.33 415.17 C 42.07 410.75 37.00 407.35 35.79 402.88 C 34.58 398.41 33.37 393.94 32.20 389.47 C 31.04 385.00 29.97 380.49 28.85 376.02 C 27.73 371.51 31.41 365.92 30.39 361.41 C 29.36 356.85 20.98 353.96 20.05 349.49 C 19.08 344.93 22.80 339.44 21.96 334.92 C 21.08 330.31 18.24 326.08 17.54 321.61 C 16.80 316.96 19.31 311.93 18.70 307.46 C 18.10 302.76 18.56 298.15 18.19 293.68 C 17.77 288.94 18.84 284.42 18.70 279.95 C 18.56 275.16 13.68 270.60 13.91 266.18 C 14.14 261.33 14.42 256.63 15.07 252.30 C 15.82 247.46 21.17 244.25 22.52 240.16 C 24.06 235.50 24.43 231.50 26.85 227.87 C 29.41 224.00 33.55 223.40 37.28 220.65 C 40.86 218.05 41.74 211.21 46.26 209.53 C 50.35 208.04 54.31 203.11 59.06 202.27 C 63.39 201.52 68.69 204.13 73.44 203.94 C 77.86 203.76 82.75 199.85 87.50 200.08 C 91.97 200.27 96.71 202.08 101.42 202.59 C 105.88 203.11 109.89 208.32 114.49 209.06 C 118.96 209.76 123.43 210.74 127.99 211.67 C 132.41 212.55 136.23 216.23 140.75 217.30 C 145.17 218.37 150.99 214.09 155.41 215.25 C 159.83 216.42 163.79 219.44 168.21 220.75 C 172.63 222.05 178.49 218.75 182.87 220.14 C 187.29 221.54 188.46 232.80 192.78 234.25 C 197.16 235.73 203.86 230.43 208.14 231.92 C 212.52 233.45 217.59 233.13 221.83 234.71 C 226.20 236.34 227.13 246.86 231.32 248.49 C 235.75 250.21 241.98 246.86 246.12 248.53 C 250.55 250.30 255.29 250.91 259.34 252.63 C 263.81 254.49 268.65 254.96 272.61 256.63 C 277.17 258.59 279.59 264.55 283.36 266.22 L 283.36 266.22 C 291.09 269.71 301.77 269.56 309.32 265.69 C 309.56 265.56 309.80 265.43 310.03 265.29 C 314.08 262.82 315.06 255.10 319.20 252.82 C 323.34 250.49 327.16 247.32 331.35 245.18 C 335.54 243.04 340.85 242.81 345.13 240.76 C 349.41 238.76 354.16 237.64 358.49 235.78 C 362.81 233.92 369.05 236.81 373.47 235.08 C 377.89 233.41 380.50 226.80 384.97 225.26 C 389.44 223.73 394.37 223.54 398.89 222.14 C 403.40 220.79 407.40 217.40 412.01 216.19 C 416.57 214.97 422.90 221.12 427.51 220.09 C 432.12 219.07 435.80 214.00 440.45 213.11 C 445.11 212.23 449.16 207.62 453.86 206.92 C 458.51 206.22 463.12 203.90 467.87 203.34 C 472.57 202.83 477.74 206.22 482.44 205.85 C 487.14 205.53 491.79 202.03 496.54 201.85 C 501.24 201.66 506.13 200.73 510.88 200.73 C 515.62 200.73 520.23 209.81 524.93 209.95 C 529.68 210.13 534.29 210.13 538.99 210.46 C 543.74 210.79 548.21 212.09 552.91 212.60 C 557.65 213.11 562.40 212.04 567.10 212.74 C 571.80 213.44 577.95 205.76 582.60 206.60 C 587.26 207.48 590.42 216.05 595.03 217.07 C 599.68 218.09 604.99 216.19 609.55 217.40 C 614.16 218.61 618.12 221.96 622.63 223.31 C 627.19 224.70 630.40 229.73 634.87 231.27 C 639.34 232.80 646.79 226.15 651.21 227.87 C 655.63 229.59 658.52 235.18 662.89 237.04 C 667.27 238.90 671.55 240.85 675.83 242.90 C 680.11 244.90 684.12 247.42 688.35 249.60 C 692.59 251.79 698.55 250.77 702.64 253.10 C 706.78 255.42 711.25 257.38 715.30 259.80 C 715.51 259.93 715.72 260.08 715.92 260.25 C 724.19 267.26 727.37 267.35 737.27 262.92 L 737.27 262.92 C 741.09 261.19 746.02 260.96 750.63 259.01 C 754.59 257.29 760.78 260.08 765.25 258.22 C 769.29 256.49 773.07 253.65 777.49 251.88 C 781.63 250.21 784.79 245.84 789.22 244.11 C 793.41 242.48 799.41 245.37 803.79 243.74 C 808.02 242.16 810.30 235.04 814.68 233.45 C 818.96 231.92 822.31 227.50 826.73 226.01 C 831.06 224.56 835.90 224.28 840.28 222.89 C 844.65 221.49 851.17 227.22 855.59 225.91 C 860.01 224.61 862.66 217.16 867.09 216.00 C 871.56 214.79 875.09 209.58 879.51 208.50 C 884.03 207.43 890.87 216.98 895.34 216.09 C 899.90 215.16 903.25 208.23 907.72 207.48 C 912.38 206.74 916.52 202.27 920.99 201.80 C 925.69 201.29 930.99 209.67 935.42 209.48 C 940.16 209.25 944.73 201.71 949.15 201.90 C 953.94 202.08 958.41 205.81 962.74 206.55 C 967.49 207.34 970.33 213.07 974.42 214.60 C 978.94 216.28 982.47 216.93 986.01 219.49 C 989.74 222.19 997.60 220.84 1000.16 224.70 C 1002.58 228.33 1000.11 234.80 1001.65 239.46 C 1003.00 243.55 1001.65 248.12 1002.40 252.91 C 1003.05 257.24 1010.31 261.01 1010.54 265.80 C 1010.73 270.22 1011.10 275.02 1010.96 279.77 C 1010.82 284.23 1004.72 288.47 1004.30 293.22 C 1003.93 297.69 1004.54 302.29 1003.93 306.95 C 1003.37 311.42 1005.09 316.30 1004.35 320.91 C 1003.65 325.38 998.86 329.20 998.02 333.81 C 997.18 338.27 998.81 343.25 997.88 347.82 C 996.95 352.28 998.58 357.36 997.55 361.87 C 996.53 366.34 995.69 370.90 994.58 375.42 C 993.46 379.89 985.22 382.54 984.10 387.01 C 982.94 391.48 989.32 397.94 988.11 402.37 C 986.89 406.83 980.89 409.95 979.63 414.42 C 978.38 418.89 977.73 423.50 976.42 427.92 C 975.12 432.39 978.33 438.16 977.03 442.54 C 975.68 447.00 971.30 450.54 969.95 454.92 C 968.60 459.38 967.72 463.99 966.37 468.32 C 964.97 472.84 959.15 475.86 957.80 480.19 C 956.41 484.71 956.04 489.45 954.69 493.78 C 953.29 498.34 959.95 505.23 958.64 509.51 C 957.25 514.08 954.64 518.12 953.38 522.36 C 951.99 527.02 945.93 530.09 944.73 534.28 C 943.38 539.07 944.35 544.14 943.33 548.24 C 942.02 553.36 943.79 558.34 943.10 562.16 C 941.89 568.91 941.14 571.42 942.30 573.56 C 944.68 577.98 943.38 585.76 940.40 590.04 C 938.07 593.39 934.30 598.42 929.97 601.30 L 929.97 601.30 C 922.78 606.06 914.55 610.44 913.20 618.95 C 913.06 619.81 912.98 620.67 912.98 621.55 C 912.98 626.30 912.98 630.95 912.79 635.56 C 912.61 640.31 916.38 645.19 916.01 649.85 C 915.68 654.60 918.10 659.67 917.59 664.28 C 917.08 669.03 907.02 672.38 906.28 676.99 C 905.53 681.69 914.56 688.06 913.68 692.62 C 912.75 697.28 905.25 700.49 904.14 705.01 C 902.97 709.61 905.30 715.15 903.95 719.57 C 902.60 724.14 899.95 728.28 898.41 732.65 C 896.83 737.12 897.85 742.71 896.09 746.99 C 894.27 751.37 891.06 755.27 889.06 759.46 C 887.01 763.75 884.77 767.98 882.54 772.12 C 880.26 776.27 872.49 777.15 870.07 781.11 C 867.60 785.11 865.50 789.16 862.85 792.98 C 860.15 796.84 862.01 804.01 859.13 807.73 C 856.24 811.41 854.24 816.11 851.12 819.60 C 848.00 823.14 845.12 827.14 841.81 830.49 C 838.55 833.84 831.29 833.24 827.80 836.45 C 824.36 839.62 824.27 846.78 820.68 849.81 C 817.10 852.79 810.67 852.46 806.95 855.30 C 803.23 858.14 801.92 864.52 798.01 867.17 C 794.15 869.82 787.96 869.12 783.96 871.59 C 780.00 874.06 776.84 878.11 772.74 880.43 C 768.64 882.72 761.99 880.20 757.80 882.34 C 753.66 884.49 748.82 884.95 744.53 886.95 C 740.30 888.91 738.25 895.75 733.92 897.56 C 729.64 899.38 725.40 901.61 721.03 903.29 C 716.65 904.97 711.63 904.92 707.16 906.45 C 702.74 907.94 697.15 905.80 692.63 907.15 C 688.17 908.55 684.96 914.04 680.39 915.30 C 675.88 916.55 670.67 914.65 666.06 915.76 C 659.54 917.21 659.63 917.67 653.12 919.02 C 646.55 920.37 647.30 925.40 640.64 925.96 C 633.75 927.03 633.43 923.58 626.82 924.93 Z" fill="none" node-id="111" stroke="#4a4024" stroke-linecap="butt" stroke-width="8" target-height="741.98096" target-width="997.4236" target-x="13.6764" target-y="199.848"></path><path d="M 511.18 902.11 C 376.43 902.11 150.46 875.25 150.46 619.68 C 150.46 400.55 315.64 215.40 511.18 215.40 C 706.71 215.40 871.89 400.50 871.89 619.68 C 871.89 875.25 645.87 902.11 511.18 902.11 Z" fill="#fff7e2" fill-rule="nonzero" node-id="113" stroke="none" target-height="686.713" target-width="721.434" target-x="150.458" target-y="215.396"></path><path d="M 894.51 477.81 C 875.89 431.23 842.80 378.16 794.02 317.80 C 788.35 310.77 790.86 300.34 799.19 296.94 C 846.43 277.54 909.03 251.80 945.48 251.80 C 948.92 251.80 951.76 251.94 954.13 252.22 C 960.23 252.82 965.03 257.57 965.86 263.62 C 971.96 307.42 934.68 428.15 919.83 476.33 C 919.78 476.47 919.74 476.65 919.69 476.79 C 915.92 488.80 899.17 489.50 894.51 477.81 Z" fill="#ffced2" fill-rule="nonzero" node-id="115" stroke="none" target-height="237.70099" target-width="183.61603" target-x="788.345" target-y="251.797"></path><path d="M 131.19 478.09 C 126.49 489.82 109.73 489.08 106.05 477.02 C 106.01 476.88 105.96 476.70 105.92 476.56 C 91.07 428.38 53.83 307.83 59.88 263.85 C 60.72 257.80 65.56 253.05 71.66 252.45 C 74.03 252.21 76.87 252.07 80.27 252.07 C 116.76 252.07 179.36 277.81 226.56 297.22 C 234.89 300.67 237.40 311.09 231.72 318.07 C 182.94 378.44 149.85 431.50 131.19 478.09 Z" fill="#ffced2" fill-rule="nonzero" node-id="117" stroke="none" target-height="237.74799" target-width="183.5701" target-x="53.8319" target-y="252.074"></path><path d="M 507.77 902.11 C 465.28 902.11 366.47 893.88 366.47 817.50 C 366.47 753.50 431.16 699.41 507.77 699.41 C 584.39 699.41 649.13 753.50 649.13 817.50 C 649.13 893.88 550.27 902.11 507.77 902.11 Z" fill="#fff1cc" fill-rule="nonzero" node-id="119" stroke="none" target-height="202.70001" target-width="282.66202" target-x="366.467" target-y="699.414"></path><path d="M 507.77 890.80 C 466.86 890.80 371.73 883.07 371.73 811.72 C 371.73 750.75 434.05 699.18 507.77 699.18 C 581.55 699.18 643.87 750.70 643.87 811.72 C 643.87 883.12 548.69 890.80 507.77 890.80 Z" fill="#ffffff" fill-rule="nonzero" node-id="121" stroke="none" target-height="191.62201" target-width="272.14398" target-x="371.726" target-y="699.178"></path><g node-id="275"><path d="M 485.04 842.41 C 486.06 843.66 487.09 844.92 488.20 846.13 C 494.16 852.46 501.19 856.23 511.11 856.04 C 524.04 855.86 531.77 846.64 532.89 842.36 C 526.33 845.34 519.34 847.39 512.22 848.41 C 509.38 848.83 506.50 849.11 503.61 848.69 C 500.82 848.32 498.12 847.29 495.51 846.32 C 492.53 845.20 489.55 844.08 486.53 842.96" fill="#4a4024" fill-opacity="0.2" fill-rule="nonzero" group-id="1" node-id="125" stroke="none" target-height="13.870972" target-width="47.849" target-x="485.039" target-y="842.359"></path></g><path d="M 482.43 840.78 C 491.18 845.20 500.40 847.67 509.75 847.53 C 519.11 847.43 528.28 844.78 536.94 840.22 C 530.05 847.34 519.90 851.25 509.80 851.39 C 499.65 851.48 489.46 847.76 482.43 840.78 Z" fill="#4a4024" fill-rule="nonzero" node-id="128" stroke="none" target-height="11.263977" target-width="54.505005" target-x="482.432" target-y="840.219"></path><path d="M 403.80 676.56 C 403.80 727.38 358.23 768.53 302.00 768.53 C 245.78 768.53 200.21 727.38 200.21 676.56 C 200.21 625.78 245.78 584.63 302.00 584.63 C 358.23 584.63 403.80 625.78 403.80 676.56 Z" fill="#ffe7a8" fill-rule="nonzero" node-id="130" stroke="none" target-height="183.896" target-width="203.58499" target-x="200.212" target-y="584.633"></path><path d="M 615.53 676.56 C 615.53 727.38 661.09 768.53 717.32 768.53 C 773.54 768.53 819.11 727.38 819.11 676.56 C 819.11 625.78 773.54 584.63 717.32 584.63 C 661.09 584.63 615.53 625.78 615.53 676.56 Z" fill="#ffe7a8" fill-rule="nonzero" node-id="132" stroke="none" target-height="183.896" target-width="203.58502" target-x="615.527" target-y="584.633"></path><path d="M 401.24 667.01 C 405.19 725.66 350.22 752.24 301.68 749.77 C 253.09 752.24 198.16 725.66 202.12 667.01 C 209.19 611.26 251.78 567.13 301.68 567.23 C 351.57 567.18 394.21 611.30 401.24 667.01 Z" fill="#ffe7a8" fill-rule="nonzero" node-id="134" stroke="none" target-height="185.10596" target-width="207.02802" target-x="198.163" target-y="567.132"></path><path d="M 307.87 740.93 C 305.96 740.93 304.05 740.88 302.14 740.79 C 299.30 740.88 297.40 740.93 295.49 740.93 C 267.84 740.93 242.24 732.69 226.97 718.87 C 215.20 708.21 209.89 694.71 211.15 678.79 C 217.62 635.55 257.32 601.34 301.54 601.34 C 346.04 601.34 385.78 635.55 392.30 679.26 C 393.51 694.71 388.20 708.21 376.43 718.87 C 361.16 732.64 335.56 740.93 307.87 740.93 Z" fill="#ffffff" fill-rule="nonzero" node-id="136" stroke="none" target-height="139.586" target-width="183.617" target-x="209.893" target-y="601.342"></path><path d="M 617.43 667.01 C 613.48 725.66 668.40 752.28 716.99 749.82 C 765.54 752.28 820.51 725.71 816.55 667.01 C 809.52 611.26 766.89 567.13 716.99 567.23 C 667.05 567.18 624.46 611.30 617.43 667.01 Z" fill="#ffe7a8" fill-rule="nonzero" node-id="138" stroke="none" target-height="185.15198" target-width="207.02795" target-x="613.478" target-y="567.132"></path><path d="M 710.80 740.93 C 683.15 740.93 657.55 732.69 642.29 718.87 C 630.51 708.21 625.21 694.71 626.46 678.79 C 632.93 635.55 672.63 601.34 716.85 601.34 C 761.39 601.34 801.10 635.55 807.61 679.26 C 808.82 694.71 803.52 708.21 791.74 718.87 C 776.47 732.69 750.88 740.97 723.23 740.97 C 721.32 740.97 719.41 740.93 717.50 740.84 C 714.62 740.88 712.71 740.93 710.80 740.93 Z" fill="#ffffff" fill-rule="nonzero" node-id="140" stroke="none" target-height="139.63202" target-width="183.61603" target-x="625.206" target-y="601.342"></path><path d="M 308.61 734.60 C 274.73 734.60 247.22 703.74 247.22 665.86 C 247.22 627.92 274.73 597.06 308.61 597.06 C 342.45 597.06 370.00 627.92 370.00 665.86 C 370.00 703.74 342.45 734.60 308.61 734.60 Z" fill="#fbc100" fill-rule="nonzero" node-id="142" stroke="none" target-height="137.53796" target-width="122.784" target-x="247.22" target-y="597.064"></path><path d="M 308.61 725.53 C 279.75 725.53 256.25 698.72 256.25 665.81 C 256.25 632.86 279.75 606.05 308.61 606.05 C 337.47 606.05 360.97 632.86 360.97 665.81 C 360.93 698.76 337.47 725.53 308.61 725.53 Z" fill="#ffd873" fill-rule="nonzero" node-id="144" stroke="none" target-height="119.479004" target-width="104.724" target-x="256.25" target-y="606.047"></path><path d="M 308.61 734.60 C 308.61 734.60 307.03 734.51 304.00 734.37 C 302.51 734.37 300.70 734.00 298.56 733.67 C 296.37 733.44 294.00 732.65 291.30 731.90 C 285.99 730.13 279.75 727.25 273.43 722.60 C 267.14 717.94 261.00 711.33 255.97 703.00 C 250.99 694.67 247.22 684.57 245.69 673.40 C 245.45 670.56 245.13 667.81 245.08 664.79 C 245.17 661.95 244.99 659.20 245.41 656.13 C 245.54 654.64 245.73 653.10 245.87 651.57 C 246.15 650.08 246.43 648.59 246.75 647.10 C 247.22 644.08 248.34 641.19 249.13 638.16 C 251.32 632.35 253.92 626.48 257.60 621.13 C 261.32 615.82 265.61 610.70 270.87 606.56 C 276.08 602.37 281.94 598.79 288.37 596.46 C 294.83 594.18 301.68 592.92 308.57 592.78 L 313.59 593.06 C 315.13 593.06 316.99 593.48 318.71 593.76 C 322.30 594.27 325.46 595.39 328.77 596.41 C 335.19 598.74 341.10 602.33 346.31 606.51 C 351.57 610.70 355.86 615.78 359.58 621.08 C 363.25 626.43 365.86 632.30 368.05 638.16 C 372.00 649.99 372.94 662.32 371.49 673.30 C 369.96 684.66 366.19 694.62 361.21 703.00 C 356.18 711.33 350.04 717.89 343.75 722.60 C 337.47 727.30 331.19 730.13 325.88 731.90 C 323.18 732.65 320.81 733.44 318.62 733.67 C 316.48 734.00 314.66 734.37 313.13 734.37 C 310.19 734.51 308.61 734.60 308.61 734.60 Z M 308.61 734.60 C 308.61 734.60 310.19 734.51 313.22 734.32 C 314.71 734.32 316.52 733.90 318.67 733.53 C 320.81 733.25 323.18 732.46 325.88 731.67 C 331.14 729.81 337.38 726.92 343.38 721.99 C 349.38 717.15 355.30 710.45 359.67 702.02 C 364.09 693.69 367.12 683.59 367.77 673.07 C 368.42 662.18 366.61 650.96 362.37 640.26 C 357.90 629.69 350.83 619.83 341.43 612.66 C 336.68 609.21 331.51 606.19 325.97 604.23 C 320.30 602.33 314.90 601.39 308.61 601.30 C 302.70 601.35 296.84 602.37 291.25 604.23 C 285.67 606.23 280.55 609.17 275.75 612.66 C 266.35 619.83 259.28 629.69 254.81 640.26 C 253.92 642.96 252.67 645.61 252.06 648.36 C 251.69 649.71 251.32 651.10 250.99 652.45 C 250.76 653.80 250.53 655.15 250.29 656.55 C 249.69 659.20 249.69 662.18 249.41 664.93 C 249.27 667.53 249.41 670.33 249.46 672.98 C 250.15 683.68 253.13 693.69 257.55 702.02 C 261.93 710.45 267.84 717.10 273.84 721.94 C 279.85 726.88 286.08 729.76 291.34 731.58 C 294.04 732.37 296.37 733.16 298.56 733.44 C 300.70 733.81 302.51 734.23 304.00 734.23 C 306.98 734.51 308.61 734.60 308.61 734.60 Z" fill="#4a4024" fill-rule="nonzero" node-id="146" stroke="none" target-height="141.82" target-width="127.949005" target-x="244.987" target-y="592.783"></path><path d="M 369.96 665.86 C 369.96 674.05 368.70 681.82 366.33 689.13 C 357.86 662.51 335.14 643.38 308.47 643.38 C 281.90 643.38 259.23 662.37 250.66 688.90 C 248.38 681.68 247.13 673.96 247.13 665.86 C 247.13 627.92 274.68 597.07 308.52 597.07 C 342.40 597.02 369.96 627.92 369.96 665.86 Z" fill="#ca9e2d" fill-rule="nonzero" node-id="148" stroke="none" target-height="92.11102" target-width="122.83" target-x="247.127" target-y="597.018"></path><path d="M 308.19 709.98 C 285.39 709.98 266.81 689.22 266.81 663.62 C 266.81 638.07 285.39 617.31 308.19 617.31 C 331.00 617.31 349.57 638.12 349.57 663.62 C 349.57 689.22 331.00 709.98 308.19 709.98 Z" fill="#4a4024" fill-rule="nonzero" node-id="150" stroke="none" target-height="92.66998" target-width="82.75601" target-x="266.815" target-y="617.312"></path><path d="M 308.19 709.98 C 308.19 709.98 307.12 709.93 305.12 709.84 C 303.12 709.70 300.14 709.28 296.56 708.17 C 292.97 706.96 288.74 705.05 284.60 701.84 C 280.41 698.62 276.36 694.16 273.05 688.57 C 269.75 682.99 267.38 676.19 266.49 668.74 C 266.35 666.88 266.21 665.02 266.17 663.02 C 266.26 661.11 266.17 659.20 266.49 657.25 C 266.82 653.24 267.89 649.38 269.14 645.42 C 270.63 641.61 272.40 637.75 274.87 634.25 C 277.33 630.81 280.22 627.51 283.67 624.81 C 287.11 622.11 290.93 619.83 295.12 618.29 C 299.35 616.80 303.68 616.01 308.29 615.92 C 312.48 616.01 317.18 616.80 321.32 618.29 C 325.51 619.83 329.32 622.11 332.77 624.81 C 336.21 627.46 339.10 630.81 341.57 634.25 C 344.03 637.75 345.80 641.61 347.29 645.42 C 349.99 653.20 350.78 661.30 349.94 668.70 C 349.06 676.19 346.69 682.94 343.38 688.57 C 340.08 694.16 336.03 698.67 331.84 701.84 C 327.65 705.05 323.41 706.96 319.83 708.17 C 316.25 709.28 313.27 709.70 311.27 709.84 C 309.26 709.93 308.19 709.98 308.19 709.98 Z M 308.19 709.98 C 308.19 709.98 309.26 709.93 311.27 709.80 C 313.27 709.66 316.20 709.19 319.78 708.03 C 323.32 706.77 327.51 704.82 331.61 701.60 C 335.70 698.39 339.75 693.92 342.78 688.25 C 345.85 682.61 347.99 675.87 348.59 668.60 C 349.20 661.25 348.13 653.52 345.34 646.08 C 342.36 638.77 337.61 631.88 331.09 626.76 C 327.84 624.29 324.20 622.15 320.30 620.80 C 316.29 619.45 312.48 618.80 308.05 618.71 C 304.05 618.75 299.82 619.45 295.95 620.80 C 292.04 622.20 288.46 624.29 285.15 626.76 C 278.69 631.83 273.89 638.72 270.91 646.08 C 269.61 649.80 268.40 653.57 268.03 657.34 C 267.65 659.20 267.70 661.16 267.51 663.02 C 267.47 664.83 267.56 666.74 267.65 668.56 C 268.26 675.87 270.40 682.57 273.47 688.20 C 276.50 693.88 280.55 698.35 284.64 701.56 C 288.74 704.82 292.93 706.77 296.46 708.03 C 300.05 709.19 302.98 709.66 304.98 709.80 C 307.12 709.93 308.19 709.98 308.19 709.98 Z" fill="#ffb800" fill-rule="nonzero" node-id="152" stroke="none" target-height="94.06598" target-width="84.617004" target-x="266.165" target-y="615.916"></path><path d="M 310.89 645.88 C 310.89 662.83 297.95 676.56 281.99 676.56 C 266.02 676.56 253.09 662.83 253.09 645.88 C 253.09 628.94 266.02 615.17 281.99 615.17 C 297.91 615.17 310.89 628.90 310.89 645.88 Z" fill="#ffffff" fill-rule="nonzero" node-id="154" stroke="none" target-height="61.391968" target-width="57.808" target-x="253.085" target-y="615.166"></path><path d="M 709.03 734.60 C 675.15 734.60 647.64 703.74 647.64 665.85 C 647.64 627.92 675.15 597.06 709.03 597.06 C 742.87 597.06 770.43 627.92 770.43 665.85 C 770.47 703.74 742.92 734.60 709.03 734.60 Z" fill="#ffb800" fill-rule="nonzero" node-id="156" stroke="none" target-height="137.53802" target-width="122.829956" target-x="647.642" target-y="597.061"></path><path d="M 709.03 725.53 C 680.18 725.53 656.67 698.72 656.67 665.81 C 656.67 632.86 680.18 606.05 709.03 606.05 C 737.89 606.05 761.40 632.86 761.40 665.81 C 761.40 698.76 737.94 725.53 709.03 725.53 Z" fill="#ffd873" fill-rule="nonzero" node-id="158" stroke="none" target-height="119.479004" target-width="104.724976" target-x="656.671" target-y="606.047"></path><path d="M 709.03 734.60 C 709.03 734.60 707.45 734.51 704.43 734.37 C 702.94 734.37 701.12 733.99 698.93 733.67 C 696.75 733.43 694.37 732.64 691.67 731.90 C 686.37 730.13 680.13 727.25 673.80 722.59 C 667.52 717.94 661.37 711.33 656.35 703.00 C 651.37 694.66 647.60 684.56 646.06 673.39 C 645.83 670.55 645.50 667.81 645.46 664.78 C 645.55 661.94 645.36 659.20 645.78 656.13 C 645.92 654.64 646.11 653.10 646.25 651.56 C 646.52 650.08 646.80 648.59 647.13 647.10 C 647.60 644.07 648.71 641.18 649.50 638.16 C 651.69 632.34 654.30 626.48 657.98 621.08 C 661.70 615.77 665.98 610.70 671.24 606.51 C 676.45 602.32 682.32 598.74 688.74 596.41 C 695.21 594.13 702.01 592.87 708.94 592.73 C 715.46 592.83 722.76 594.13 729.14 596.41 C 735.56 598.74 741.48 602.32 746.69 606.51 C 751.95 610.70 756.23 615.77 759.95 621.08 C 763.63 626.43 766.24 632.29 768.47 638.16 C 772.38 649.98 773.36 662.32 771.91 673.30 C 770.38 684.66 766.61 694.62 761.63 703.00 C 756.60 711.33 750.46 717.89 744.17 722.59 C 737.89 727.29 731.61 730.13 726.30 731.90 C 723.60 732.64 721.23 733.43 719.04 733.67 C 716.90 733.99 715.09 734.37 713.55 734.37 C 710.66 734.51 709.03 734.60 709.03 734.60 Z M 709.03 734.60 C 709.03 734.60 710.62 734.51 713.64 734.32 C 715.13 734.32 716.95 733.90 719.09 733.53 C 721.23 733.25 723.60 732.46 726.30 731.67 C 731.56 729.80 737.80 726.92 743.80 721.99 C 749.81 717.14 755.72 710.44 760.09 702.02 C 764.51 693.69 767.54 683.59 768.19 673.07 C 768.84 662.18 767.07 650.96 762.79 640.25 C 758.32 629.69 751.25 619.82 741.85 612.65 C 737.10 609.21 731.93 606.18 726.39 604.23 C 720.72 602.32 715.32 601.39 709.03 601.30 C 703.12 601.34 697.26 602.37 691.67 604.23 C 686.09 606.23 680.97 609.16 676.17 612.65 C 666.77 619.82 659.70 629.69 655.23 640.25 C 654.34 643.00 653.09 645.61 652.48 648.35 C 652.11 649.70 651.74 651.10 651.41 652.45 C 651.18 653.80 650.95 655.15 650.71 656.54 C 650.11 659.20 650.11 662.18 649.83 664.92 C 649.69 667.53 649.83 670.32 649.88 672.98 C 650.57 683.68 653.55 693.69 657.98 702.02 C 662.35 710.44 668.26 717.10 674.26 721.94 C 680.27 726.87 686.51 729.76 691.77 731.57 C 694.47 732.37 696.79 733.16 698.98 733.43 C 701.12 733.81 702.94 734.23 704.43 734.23 C 707.45 734.51 709.03 734.60 709.03 734.60 Z" fill="#4a4024" fill-rule="nonzero" node-id="160" stroke="none" target-height="141.867" target-width="127.99695" target-x="645.361" target-y="592.732"></path><path d="M 770.38 665.85 C 770.38 674.04 769.12 681.82 766.75 689.12 C 758.28 662.50 735.57 643.37 708.89 643.37 C 682.32 643.37 659.65 662.36 651.09 688.89 C 648.81 681.68 647.55 673.95 647.55 665.85 C 647.55 627.92 675.10 597.06 708.94 597.06 C 742.87 597.01 770.38 627.92 770.38 665.85 Z" fill="#ca9e2d" fill-rule="nonzero" node-id="162" stroke="none" target-height="92.11102" target-width="122.83002" target-x="647.55" target-y="597.014"></path><path d="M 709.03 712.16 C 686.23 712.16 667.66 691.36 667.66 665.81 C 667.66 640.25 686.23 619.45 709.03 619.45 C 731.84 619.45 750.41 640.21 750.41 665.81 C 750.41 691.36 731.84 712.16 709.03 712.16 Z" fill="#4a4024" fill-rule="nonzero" node-id="164" stroke="none" target-height="92.716" target-width="82.755005" target-x="667.656" target-y="619.449"></path><path d="M 709.03 712.16 C 709.03 712.16 707.96 712.12 705.96 712.03 C 703.96 711.89 700.98 711.47 697.40 710.35 C 693.81 709.14 689.58 707.23 685.43 704.02 C 681.25 700.81 677.20 696.34 673.89 690.75 C 670.59 685.17 668.21 678.37 667.33 670.93 C 667.19 669.07 667.05 667.20 667.00 665.20 C 667.10 663.29 667.00 661.39 667.33 659.43 C 667.65 655.43 668.73 651.57 669.98 647.61 C 671.47 643.79 673.24 639.93 675.71 636.44 C 678.17 632.99 681.06 629.69 684.50 626.99 C 687.95 624.29 691.76 622.01 695.95 620.47 C 700.14 618.98 704.57 618.19 709.03 618.10 C 713.41 618.19 717.97 618.98 722.16 620.47 C 726.35 622.01 730.16 624.29 733.61 626.99 C 737.05 629.64 739.94 632.99 742.40 636.44 C 744.87 639.93 746.64 643.79 748.13 647.61 C 750.83 655.38 751.62 663.48 750.83 670.88 C 749.95 678.37 747.57 685.12 744.27 690.75 C 740.96 696.34 736.91 700.86 732.72 704.02 C 728.53 707.23 724.30 709.14 720.76 710.35 C 717.18 711.47 714.20 711.89 712.20 712.03 C 710.10 712.12 709.03 712.16 709.03 712.16 Z M 709.03 712.16 C 709.03 712.16 710.10 712.12 712.11 711.98 C 714.11 711.84 717.04 711.37 720.62 710.21 C 724.16 708.95 728.35 707.00 732.44 703.74 C 736.54 700.53 740.59 696.06 743.62 690.38 C 746.69 684.75 748.83 678.00 749.43 670.74 C 749.99 663.39 748.97 655.66 746.17 648.21 C 743.20 640.91 738.45 634.02 731.93 628.90 C 728.67 626.43 725.04 624.34 721.13 622.94 C 717.18 621.59 713.22 620.94 708.94 620.85 C 704.80 620.89 700.65 621.59 696.75 622.94 C 692.84 624.34 689.25 626.43 685.95 628.90 C 679.43 633.97 674.68 640.86 671.70 648.21 C 670.40 651.94 669.19 655.71 668.82 659.48 C 668.45 661.34 668.49 663.29 668.31 665.16 C 668.26 666.97 668.35 668.88 668.45 670.70 C 669.05 678.00 671.24 684.70 674.31 690.34 C 677.34 696.01 681.39 700.48 685.48 703.69 C 689.58 706.95 693.77 708.91 697.30 710.16 C 700.89 711.33 703.82 711.79 705.82 711.93 C 707.96 712.12 709.03 712.16 709.03 712.16 Z" fill="#ffb800" fill-rule="nonzero" node-id="166" stroke="none" target-height="94.065" target-width="84.61798" target-x="667.003" target-y="618.1"></path><path d="M 713.50 645.89 C 713.50 662.83 700.56 676.56 684.60 676.56 C 668.63 676.56 655.69 662.83 655.69 645.89 C 655.69 628.95 668.63 615.17 684.60 615.17 C 700.52 615.17 713.50 628.90 713.50 645.89 Z" fill="#ffffff" fill-rule="nonzero" node-id="168" stroke="none" target-height="61.391968" target-width="57.808044" target-x="655.694" target-y="615.168"></path><path d="M 799.93 622.10 C 799.93 622.10 797.70 619.36 793.46 615.03 C 791.51 612.79 788.72 610.33 785.69 607.44 C 782.39 604.83 779.04 601.58 774.85 598.60 C 770.84 595.43 766.24 592.50 761.30 589.52 C 758.93 587.85 756.18 586.77 753.48 585.42 C 750.74 584.26 748.18 582.45 745.15 581.61 C 742.22 580.63 739.29 579.56 736.26 578.54 C 733.24 577.61 730.02 577.28 726.91 576.49 C 720.67 574.63 714.01 575.33 707.59 574.72 C 701.12 575.42 694.47 575.56 688.18 577.05 C 681.99 579.14 675.48 579.70 669.80 582.45 C 664.07 585.01 658.30 587.01 653.04 589.52 C 648.01 592.45 643.17 595.11 638.66 597.57 C 629.54 602.32 622.88 607.91 617.67 611.12 C 612.59 614.51 609.57 616.33 609.57 616.33 C 609.57 616.33 611.90 613.72 616.18 609.35 C 618.37 607.16 620.97 604.55 624.00 601.53 C 627.02 598.41 630.42 594.97 634.84 592.03 C 639.08 588.87 643.73 585.42 648.76 581.93 C 653.97 578.77 659.88 575.93 665.89 572.95 C 668.82 571.28 672.12 570.21 675.48 569.23 C 678.83 568.20 682.22 567.18 685.67 566.11 C 692.60 564.29 700.05 563.92 707.31 563.08 C 714.62 563.83 722.11 563.32 729.09 565.50 C 732.63 566.39 736.17 566.99 739.47 568.25 C 742.73 569.60 745.94 570.95 749.11 572.25 C 755.30 575.14 760.93 578.63 765.91 582.26 C 768.33 584.17 770.70 586.03 773.03 587.80 C 775.17 589.75 777.13 591.75 779.08 593.62 C 783.09 597.20 785.92 601.25 788.72 604.51 C 791.23 608.05 793.51 610.98 795.09 613.68 C 798.58 618.84 799.93 622.10 799.93 622.10 Z" fill="#4a4024" fill-rule="nonzero" node-id="170" stroke="none" target-height="59.018005" target-width="190.36603" target-x="609.568" target-y="563.084"></path><path d="M 250.57 473.16 C 255.74 468.55 262.30 463.52 270.45 459.80 C 278.41 455.85 287.95 453.14 297.77 452.21 C 302.75 452.12 307.73 451.70 312.62 452.73 C 315.08 453.05 317.50 453.43 319.88 453.94 C 322.20 454.68 324.44 455.43 326.67 456.31 C 331.19 457.66 335.00 460.08 338.54 462.41 C 340.31 463.57 342.08 464.60 343.57 465.85 C 344.96 467.25 346.31 468.55 347.57 469.86 C 350.08 472.42 352.46 474.60 353.99 477.12 C 355.58 479.49 356.79 481.77 357.76 483.54 C 359.72 487.17 358.23 488.43 354.60 486.89 C 352.78 486.05 350.64 485.17 348.36 483.96 C 346.08 482.79 343.10 482.19 340.31 480.98 C 337.47 479.81 334.44 478.79 331.14 478.14 C 327.93 477.30 324.67 476.28 321.13 476.05 C 319.41 475.81 317.69 475.49 315.92 475.21 C 314.15 475.21 312.34 475.21 310.57 475.07 C 306.98 474.69 303.31 475.16 299.63 475.30 C 295.95 475.49 292.23 476.23 288.51 476.65 C 284.83 477.53 281.11 477.95 277.52 479.02 C 270.26 480.56 263.46 482.93 257.27 484.56 C 245.27 488.52 240.19 482.56 250.57 473.16 Z" fill="#4a4024" fill-rule="nonzero" node-id="172" stroke="none" target-height="36.817017" target-width="119.526" target-x="240.193" target-y="451.702"></path><path d="M 271.84 464.08 C 279.06 460.50 287.20 458.22 295.72 457.38 C 296.56 457.38 297.40 457.33 298.24 457.33 C 299.63 457.29 300.98 457.24 302.33 457.24 C 304.70 457.24 306.47 457.38 308.01 457.71 C 308.24 457.75 308.43 457.80 308.66 457.85 C 310.66 458.13 312.76 458.45 314.71 458.82 L 314.85 458.87 C 316.76 459.52 318.67 460.13 320.48 460.83 C 320.71 460.92 320.95 461.01 321.23 461.11 C 322.67 461.52 321.60 462.13 319.41 461.94 C 318.06 461.76 316.71 461.52 315.36 461.29 C 314.80 461.15 313.92 461.06 313.36 461.06 C 311.78 461.06 310.29 461.06 308.80 460.97 C 307.59 460.83 306.33 460.78 304.98 460.78 C 303.21 460.78 301.45 460.87 299.63 461.01 C 298.65 461.06 297.68 461.15 296.70 461.15 C 293.72 461.29 291.07 461.66 288.51 462.04 C 287.30 462.22 286.04 462.41 284.78 462.55 C 284.36 462.60 283.94 462.64 283.57 462.78 C 282.18 463.15 280.83 463.34 279.43 463.62 C 277.20 464.04 274.92 464.46 272.50 465.15 C 270.77 465.48 270.40 464.78 271.84 464.08 Z" fill="#cecece" fill-rule="nonzero" node-id="174" stroke="none" target-height="8.238007" target-width="52.269012" target-x="270.401" target-y="457.242"></path><path d="M 777.45 473.16 C 772.29 468.55 765.68 463.52 757.58 459.80 C 749.62 455.85 740.08 453.14 730.26 452.21 C 725.28 452.12 720.30 451.70 715.41 452.73 C 712.94 453.05 710.52 453.43 708.20 453.94 C 705.87 454.68 703.59 455.43 701.40 456.31 C 696.89 457.66 693.07 460.08 689.53 462.41 C 687.76 463.57 685.99 464.60 684.50 465.85 C 683.11 467.25 681.76 468.55 680.50 469.86 C 677.99 472.42 675.62 474.60 674.08 477.12 C 672.50 479.49 671.29 481.77 670.31 483.54 C 668.35 487.17 669.84 488.43 673.47 486.89 C 675.29 486.05 677.43 485.17 679.71 483.96 C 681.99 482.79 684.97 482.19 687.72 480.98 C 690.56 479.81 693.58 478.79 696.93 478.14 C 700.14 477.30 703.40 476.28 706.94 476.05 C 708.66 475.81 710.38 475.49 712.15 475.21 C 713.92 475.21 715.74 475.21 717.55 475.07 C 721.13 474.69 724.81 475.16 728.49 475.30 C 732.17 475.49 735.89 476.23 739.61 476.65 C 743.29 477.53 747.01 477.95 750.60 479.02 C 757.86 480.56 764.65 482.93 770.84 484.56 C 782.76 488.52 787.79 482.56 777.45 473.16 Z" fill="#4a4024" fill-rule="nonzero" node-id="176" stroke="none" target-height="36.817017" target-width="119.43201" target-x="668.354" target-y="451.702"></path><path d="M 756.14 464.08 C 748.92 460.50 740.78 458.22 732.26 457.38 C 731.42 457.38 730.58 457.33 729.75 457.33 C 728.40 457.29 727.00 457.24 725.65 457.24 C 723.28 457.24 721.51 457.38 719.97 457.71 C 719.74 457.75 719.55 457.80 719.32 457.85 C 717.32 458.13 715.27 458.45 713.27 458.82 L 713.13 458.87 C 711.22 459.52 709.31 460.13 707.50 460.83 C 707.27 460.92 706.99 461.01 706.75 461.11 C 705.31 461.52 706.38 462.13 708.52 461.94 C 709.87 461.76 711.22 461.52 712.57 461.29 C 713.13 461.15 714.01 461.06 714.57 461.06 C 716.11 461.06 717.64 461.06 719.13 460.97 C 720.35 460.83 721.60 460.78 722.95 460.78 C 724.72 460.78 726.49 460.87 728.30 461.01 C 729.28 461.06 730.26 461.15 731.28 461.15 C 734.26 461.29 736.91 461.66 739.47 462.04 C 740.73 462.22 741.94 462.41 743.20 462.55 C 743.62 462.60 744.04 462.64 744.41 462.78 C 745.80 463.15 747.15 463.34 748.55 463.62 C 750.78 464.04 753.07 464.46 755.44 465.15 C 757.21 465.48 757.63 464.78 756.14 464.08 Z" fill="#cecece" fill-rule="nonzero" node-id="178" stroke="none" target-height="8.238007" target-width="52.315002" target-x="705.311" target-y="457.242"></path><path d="M 401.24 667.01 C 401.38 670.09 401.51 673.16 401.38 676.23 C 401.24 679.30 401.00 682.37 400.49 685.40 C 400.30 686.93 399.98 688.42 399.65 689.91 C 399.37 691.40 398.95 692.94 398.49 694.38 C 398.07 695.87 397.61 697.31 397.05 698.76 C 396.53 700.20 395.98 701.64 395.28 703.04 C 394.67 704.48 393.97 705.83 393.23 707.18 C 392.53 708.58 391.74 709.88 390.95 711.18 C 389.37 713.84 387.50 716.35 385.55 718.72 C 381.64 723.52 377.08 727.80 372.10 731.48 C 369.63 733.34 366.98 735.01 364.37 736.64 C 361.72 738.23 358.97 739.72 356.18 741.07 L 351.94 742.97 L 347.62 744.70 L 343.19 746.23 L 338.73 747.58 L 334.21 748.79 L 329.65 749.82 C 326.58 750.42 323.51 750.93 320.39 751.35 C 317.27 751.72 314.15 752.00 311.03 752.19 C 307.91 752.33 304.75 752.38 301.63 752.33 L 301.91 752.33 C 292.23 753.07 282.45 752.75 272.82 751.30 C 263.19 749.86 253.64 747.21 244.57 743.25 C 235.49 739.34 226.88 733.94 219.48 727.01 C 215.80 723.52 212.41 719.70 209.47 715.56 C 206.54 711.37 204.03 706.86 202.07 702.11 C 198.16 692.61 196.44 682.33 196.39 672.23 L 196.49 668.46 L 196.53 666.55 C 196.58 666.27 196.49 667.01 196.58 665.85 L 196.58 665.76 L 196.63 665.52 L 196.72 665.11 L 196.86 664.22 L 198.02 657.19 C 198.35 654.91 199.19 652.35 199.75 649.93 C 200.40 647.51 200.91 645.00 201.79 642.67 L 204.21 635.64 C 205.10 633.32 206.17 631.08 207.15 628.80 L 208.63 625.40 L 210.40 622.14 C 211.61 619.96 212.69 617.77 213.99 615.63 C 219.25 607.21 225.44 599.43 232.42 592.40 C 239.59 585.51 247.64 579.65 256.30 574.86 C 265.05 570.20 274.54 566.99 284.22 565.27 L 291.53 564.29 C 294.00 564.11 296.46 564.15 298.88 564.06 C 300.19 564.06 301.21 563.92 302.70 564.06 L 306.24 564.34 C 308.61 564.57 310.94 564.62 313.41 565.17 L 320.71 566.62 L 327.69 568.76 C 330.07 569.36 332.21 570.53 334.44 571.41 L 337.80 572.86 C 338.87 573.37 339.94 573.97 341.01 574.58 C 349.62 578.91 357.39 584.82 364.28 591.43 C 365.95 593.15 367.82 594.68 369.31 596.50 L 374.01 601.90 C 375.54 603.71 376.85 605.72 378.29 607.62 L 380.38 610.51 L 382.25 613.53 C 387.41 621.54 391.37 630.24 394.67 639.13 L 396.91 645.88 C 397.56 648.16 398.07 650.49 398.68 652.77 L 399.51 656.22 L 400.12 659.71 L 401.24 667.01 Z M 401.24 667.01 L 400.02 660.03 L 399.42 656.54 L 398.54 653.10 C 397.93 650.82 397.37 648.49 396.72 646.25 L 394.39 639.55 C 393.69 637.27 392.67 635.13 391.74 632.99 C 390.72 630.85 389.97 628.62 388.76 626.57 L 385.32 620.38 C 384.15 618.33 382.76 616.42 381.45 614.42 C 376.15 606.65 370.05 599.34 362.88 593.29 C 355.81 587.14 347.99 581.84 339.47 578.07 C 338.40 577.60 337.38 577.04 336.31 576.58 L 333.00 575.41 C 330.81 574.72 328.67 573.69 326.39 573.27 L 319.64 571.64 L 312.89 570.76 C 310.71 570.34 308.24 570.48 305.91 570.39 L 302.38 570.29 C 301.49 570.25 300.14 570.43 299.07 570.53 C 296.79 570.76 294.51 570.85 292.27 571.18 L 285.57 572.48 C 276.73 574.67 268.26 578.11 260.49 582.72 C 252.76 587.47 245.78 593.33 239.40 599.76 C 233.26 606.41 227.81 613.72 223.30 621.54 C 218.97 629.45 215.01 637.69 212.50 646.39 C 211.71 648.54 211.29 650.68 210.73 652.82 L 209.94 656.03 C 209.66 657.10 209.38 658.17 209.24 659.38 L 208.03 666.36 L 207.89 667.25 L 207.80 667.66 L 207.75 667.90 L 207.75 667.99 C 207.89 666.92 207.80 667.76 207.80 667.53 L 207.75 669.20 L 207.61 672.51 C 207.56 681.35 208.91 690.10 212.17 698.20 C 213.80 702.25 215.76 706.11 218.13 709.79 C 220.55 713.42 223.34 716.82 226.46 719.98 C 229.53 723.15 233.03 725.94 236.66 728.54 C 240.28 731.15 244.15 733.48 248.24 735.48 C 256.34 739.58 265.09 742.41 274.08 744.42 C 283.06 746.33 292.32 747.21 301.58 747.07 L 301.82 747.07 L 301.86 747.07 C 304.84 747.30 307.87 747.44 310.89 747.49 C 313.92 747.49 316.94 747.40 319.92 747.21 C 322.95 746.98 325.93 746.65 328.95 746.28 L 333.42 745.53 L 337.89 744.60 L 342.31 743.49 L 346.69 742.18 L 351.01 740.69 L 355.25 739.02 C 358.04 737.81 360.79 736.55 363.49 735.11 C 366.14 733.66 368.75 732.04 371.26 730.31 C 376.24 726.82 380.89 722.77 384.90 718.21 C 386.90 715.93 388.81 713.51 390.48 710.95 C 391.32 709.70 392.16 708.39 392.86 707.04 C 393.60 705.69 394.35 704.34 394.95 702.95 C 395.65 701.55 396.21 700.15 396.77 698.71 C 397.37 697.27 397.84 695.83 398.26 694.38 C 398.72 692.94 399.14 691.45 399.47 689.96 C 399.84 688.47 400.17 686.98 400.40 685.45 C 400.96 682.42 401.24 679.35 401.38 676.28 C 401.47 673.20 401.38 670.13 401.24 667.01 Z" fill="#4a4024" fill-rule="nonzero" node-id="180" stroke="none" target-height="189.15497" target-width="205.12001" target-x="196.394" target-y="563.919"></path><path d="M 401.24 667.01 C 401.38 670.09 401.51 673.16 401.38 676.23 C 401.24 679.30 401.00 682.37 400.49 685.40 C 400.30 686.93 399.98 688.42 399.65 689.91 C 399.37 691.40 398.95 692.94 398.49 694.38 C 398.07 695.87 397.61 697.31 397.05 698.76 C 396.53 700.20 395.98 701.64 395.28 703.04 C 394.67 704.48 393.97 705.83 393.23 707.18 C 392.53 708.58 391.74 709.88 390.95 711.18 C 389.37 713.84 387.50 716.35 385.55 718.72 C 381.64 723.52 377.08 727.80 372.10 731.48 C 369.63 733.34 366.98 735.01 364.37 736.64 C 361.72 738.23 358.97 739.72 356.18 741.07 L 351.94 742.97 L 347.62 744.70 L 343.19 746.23 L 338.73 747.58 L 334.21 748.79 L 329.65 749.82 C 326.58 750.42 323.51 750.93 320.39 751.35 C 317.27 751.72 314.15 752.00 311.03 752.19 C 307.91 752.33 304.75 752.38 301.63 752.33 L 301.91 752.33 C 292.23 753.07 282.45 752.75 272.82 751.30 C 263.19 749.86 253.64 747.21 244.57 743.25 C 235.49 739.34 226.88 733.94 219.48 727.01 C 215.80 723.52 212.41 719.70 209.47 715.56 C 206.54 711.37 204.03 706.86 202.07 702.11 C 198.16 692.61 196.44 682.33 196.39 672.23 L 196.49 668.46 L 196.53 666.55 C 196.58 666.27 196.49 667.01 196.58 665.85 L 196.58 665.76 L 196.63 665.52 L 196.72 665.11 L 196.86 664.22 L 198.02 657.19 C 198.35 654.91 199.19 652.35 199.75 649.93 C 200.40 647.51 200.91 645.00 201.79 642.67 L 204.21 635.64 C 205.10 633.32 206.17 631.08 207.15 628.80 L 208.63 625.40 L 210.40 622.14 C 211.61 619.96 212.69 617.77 213.99 615.63 C 219.25 607.21 225.44 599.43 232.42 592.40 C 239.59 585.51 247.64 579.65 256.30 574.86 C 265.05 570.20 274.54 566.99 284.22 565.27 L 291.53 564.29 C 294.00 564.11 296.46 564.15 298.88 564.06 C 300.19 564.06 301.21 563.92 302.70 564.06 L 306.24 564.34 C 308.61 564.57 310.94 564.62 313.41 565.17 L 320.71 566.62 L 327.69 568.76 C 330.07 569.36 332.21 570.53 334.44 571.41 L 337.80 572.86 C 338.87 573.37 339.94 573.97 341.01 574.58 C 349.62 578.91 357.39 584.82 364.28 591.43 C 365.95 593.15 367.82 594.68 369.31 596.50 L 374.01 601.90 C 375.54 603.71 376.85 605.72 378.29 607.62 L 380.38 610.51 L 382.25 613.53 C 387.41 621.54 391.37 630.24 394.67 639.13 L 396.91 645.88 C 397.56 648.16 398.07 650.49 398.68 652.77 L 399.51 656.22 L 400.12 659.71 L 401.24 667.01 Z M 401.24 667.01 L 400.02 660.03 L 399.42 656.54 L 398.54 653.10 C 397.93 650.82 397.37 648.49 396.72 646.25 L 394.39 639.55 C 393.69 637.27 392.67 635.13 391.74 632.99 C 390.72 630.85 389.97 628.62 388.76 626.57 L 385.32 620.38 C 384.15 618.33 382.76 616.42 381.45 614.42 C 376.15 606.65 370.05 599.34 362.88 593.29 C 355.81 587.14 347.99 581.84 339.47 578.07 C 338.40 577.60 337.38 577.04 336.31 576.58 L 333.00 575.41 C 330.81 574.72 328.67 573.69 326.39 573.27 L 319.64 571.64 L 312.89 570.76 C 310.71 570.34 308.24 570.48 305.91 570.39 L 302.38 570.29 C 301.49 570.25 300.14 570.43 299.07 570.53 C 296.79 570.76 294.51 570.85 292.27 571.18 L 285.57 572.48 C 276.73 574.67 268.26 578.11 260.49 582.72 C 252.76 587.47 245.78 593.33 239.40 599.76 C 233.26 606.41 227.81 613.72 223.30 621.54 C 218.97 629.45 215.01 637.69 212.50 646.39 C 211.71 648.54 211.29 650.68 210.73 652.82 L 209.94 656.03 C 209.66 657.10 209.38 658.17 209.24 659.38 L 208.03 666.36 L 207.89 667.25 L 207.80 667.66 L 207.75 667.90 L 207.75 667.99 C 207.89 666.92 207.80 667.76 207.80 667.53 L 207.75 669.20 L 207.61 672.51 C 207.56 681.35 208.91 690.10 212.17 698.20 C 213.80 702.25 215.76 706.11 218.13 709.79 C 220.55 713.42 223.34 716.82 226.46 719.98 C 229.53 723.15 233.03 725.94 236.66 728.54 C 240.28 731.15 244.15 733.48 248.24 735.48 C 256.34 739.58 265.09 742.41 274.08 744.42 C 283.06 746.33 292.32 747.21 301.58 747.07 L 301.82 747.07 L 301.86 747.07 C 304.84 747.30 307.87 747.44 310.89 747.49 C 313.92 747.49 316.94 747.40 319.92 747.21 C 322.95 746.98 325.93 746.65 328.95 746.28 L 333.42 745.53 L 337.89 744.60 L 342.31 743.49 L 346.69 742.18 L 351.01 740.69 L 355.25 739.02 C 358.04 737.81 360.79 736.55 363.49 735.11 C 366.14 733.66 368.75 732.04 371.26 730.31 C 376.24 726.82 380.89 722.77 384.90 718.21 C 386.90 715.93 388.81 713.51 390.48 710.95 C 391.32 709.70 392.16 708.39 392.86 707.04 C 393.60 705.69 394.35 704.34 394.95 702.95 C 395.65 701.55 396.21 700.15 396.77 698.71 C 397.37 697.27 397.84 695.83 398.26 694.38 C 398.72 692.94 399.14 691.45 399.47 689.96 C 399.84 688.47 400.17 686.98 400.40 685.45 C 400.96 682.42 401.24 679.35 401.38 676.28 C 401.47 673.20 401.38 670.13 401.24 667.01 Z" fill="none" node-id="182" stroke="#4a4024" stroke-linecap="butt" stroke-width="0.4858" target-height="189.15497" target-width="205.12001" target-x="196.394" target-y="563.919"></path><path d="M 617.43 667.01 C 617.29 670.08 617.20 673.16 617.39 676.23 C 617.53 679.30 617.80 682.37 618.36 685.40 C 618.60 686.93 618.88 688.42 619.25 689.91 C 619.57 691.40 619.95 692.89 620.46 694.33 C 620.88 695.82 621.39 697.27 621.95 698.66 C 622.46 700.11 623.07 701.50 623.76 702.90 C 624.37 704.29 625.07 705.69 625.86 706.99 C 626.55 708.34 627.39 709.65 628.23 710.90 C 629.91 713.46 631.77 715.88 633.82 718.16 C 637.87 722.77 642.47 726.82 647.45 730.26 C 649.97 731.99 652.57 733.62 655.23 735.06 C 657.93 736.50 660.67 737.76 663.47 738.97 L 667.70 740.64 L 672.03 742.13 L 676.40 743.44 L 680.83 744.55 L 685.29 745.49 L 689.76 746.23 C 692.74 746.65 695.77 746.98 698.79 747.16 C 701.82 747.35 704.84 747.44 707.82 747.44 C 710.85 747.39 713.83 747.25 716.85 747.02 L 716.90 747.02 L 717.13 747.02 C 726.39 747.16 735.65 746.28 744.64 744.37 C 753.62 742.41 762.37 739.53 770.47 735.43 C 774.52 733.43 778.43 731.10 782.06 728.50 C 785.69 725.89 789.18 723.10 792.25 719.93 C 795.37 716.77 798.16 713.37 800.58 709.74 C 802.96 706.06 804.91 702.15 806.54 698.15 C 809.75 690.05 811.15 681.30 811.10 672.46 L 810.96 669.15 L 810.92 667.48 C 810.96 667.71 810.87 666.87 810.96 667.94 L 810.96 667.85 L 810.92 667.62 L 810.82 667.20 L 810.68 666.31 L 809.47 659.29 C 809.33 658.08 809.05 656.96 808.78 655.93 L 807.99 652.72 C 807.43 650.58 807.05 648.44 806.22 646.30 C 803.66 637.60 799.75 629.36 795.42 621.45 C 790.90 613.63 785.46 606.32 779.31 599.66 C 772.94 593.24 765.96 587.42 758.23 582.63 C 750.41 578.02 741.94 574.58 733.14 572.39 L 726.44 571.08 C 724.21 570.76 721.92 570.66 719.64 570.43 C 718.57 570.39 717.22 570.15 716.34 570.20 L 712.80 570.29 C 710.48 570.39 708.01 570.29 705.82 570.67 L 699.07 571.55 L 692.32 573.18 C 690.04 573.60 687.95 574.62 685.71 575.32 L 682.41 576.48 C 681.34 576.90 680.31 577.46 679.24 577.97 C 670.73 581.74 662.91 587.05 655.83 593.19 C 648.66 599.24 642.57 606.55 637.26 614.32 C 636.00 616.33 634.56 618.23 633.40 620.28 L 629.95 626.47 C 628.74 628.52 628.00 630.75 626.97 632.89 C 626.04 635.08 625.02 637.22 624.32 639.46 L 621.99 646.16 C 621.30 648.44 620.78 650.72 620.18 653.00 L 619.29 656.45 L 618.69 659.94 L 617.43 667.01 Z M 617.43 667.01 L 618.55 659.98 L 619.15 656.49 L 619.99 653.05 C 620.60 650.77 621.06 648.44 621.76 646.16 L 624.00 639.41 C 627.30 630.52 631.21 621.82 636.42 613.81 L 638.28 610.79 L 640.38 607.90 C 641.82 605.99 643.17 604.04 644.66 602.18 L 649.36 596.78 C 650.90 594.91 652.71 593.38 654.39 591.70 C 661.28 585.09 669.00 579.18 677.66 574.85 C 678.73 574.30 679.75 573.69 680.87 573.13 L 684.22 571.69 C 686.46 570.80 688.64 569.64 690.97 569.04 L 697.95 566.89 L 705.26 565.45 C 707.73 564.85 710.06 564.85 712.43 564.62 L 715.97 564.34 C 717.41 564.20 718.48 564.34 719.78 564.34 C 722.25 564.43 724.72 564.38 727.14 564.57 L 734.45 565.55 C 744.13 567.31 753.62 570.53 762.37 575.13 C 771.03 579.93 779.13 585.79 786.25 592.68 C 793.23 599.71 799.42 607.48 804.68 615.91 C 805.98 618.00 807.05 620.24 808.26 622.42 L 810.03 625.68 L 811.52 629.08 C 812.50 631.36 813.57 633.59 814.45 635.92 L 816.88 642.95 C 817.76 645.23 818.27 647.74 818.92 650.21 C 819.48 652.63 820.32 655.19 820.64 657.47 L 821.81 664.50 L 821.95 665.38 L 822.04 665.80 L 822.09 666.03 L 822.09 666.13 C 822.23 667.29 822.13 666.50 822.18 666.83 L 822.23 668.73 L 822.32 672.50 C 822.27 682.60 820.55 692.89 816.64 702.38 C 814.64 707.13 812.13 711.60 809.24 715.84 C 806.26 719.98 802.91 723.84 799.23 727.29 C 791.88 734.27 783.22 739.62 774.15 743.53 C 765.07 747.53 755.53 750.14 745.89 751.63 C 736.26 753.07 726.49 753.40 716.80 752.65 L 717.08 752.65 C 713.92 752.70 710.80 752.65 707.68 752.51 C 704.56 752.33 701.45 752.05 698.33 751.68 C 695.21 751.26 692.14 750.75 689.06 750.14 L 684.50 749.12 L 679.99 747.91 L 675.52 746.56 L 671.10 745.02 L 666.77 743.30 L 662.53 741.39 C 659.74 740.04 657.00 738.55 654.34 736.97 C 651.69 735.34 649.08 733.66 646.62 731.80 C 641.64 728.08 637.07 723.84 633.16 719.05 C 631.21 716.67 629.39 714.16 627.77 711.51 C 626.93 710.21 626.18 708.86 625.49 707.50 C 624.74 706.16 624.04 704.76 623.44 703.36 C 622.78 701.97 622.18 700.52 621.67 699.08 C 621.11 697.64 620.60 696.20 620.23 694.71 C 619.76 693.22 619.39 691.73 619.06 690.24 C 618.69 688.75 618.41 687.21 618.22 685.68 C 617.71 682.65 617.48 679.58 617.34 676.51 C 617.15 673.16 617.29 670.08 617.43 667.01 Z" fill="#4a4024" fill-rule="nonzero" node-id="184" stroke="none" target-height="189.20203" target-width="205.16602" target-x="617.154" target-y="564.196"></path><path d="M 617.43 667.01 C 617.29 670.08 617.20 673.16 617.39 676.23 C 617.53 679.30 617.80 682.37 618.36 685.40 C 618.60 686.93 618.88 688.42 619.25 689.91 C 619.57 691.40 619.95 692.89 620.46 694.33 C 620.88 695.82 621.39 697.27 621.95 698.66 C 622.46 700.11 623.07 701.50 623.76 702.90 C 624.37 704.29 625.07 705.69 625.86 706.99 C 626.55 708.34 627.39 709.65 628.23 710.90 C 629.91 713.46 631.77 715.88 633.82 718.16 C 637.87 722.77 642.47 726.82 647.45 730.26 C 649.97 731.99 652.57 733.62 655.23 735.06 C 657.93 736.50 660.67 737.76 663.47 738.97 L 667.70 740.64 L 672.03 742.13 L 676.40 743.44 L 680.83 744.55 L 685.29 745.49 L 689.76 746.23 C 692.74 746.65 695.77 746.98 698.79 747.16 C 701.82 747.35 704.84 747.44 707.82 747.44 C 710.85 747.39 713.83 747.25 716.85 747.02 L 716.90 747.02 L 717.13 747.02 C 726.39 747.16 735.65 746.28 744.64 744.37 C 753.62 742.41 762.37 739.53 770.47 735.43 C 774.52 733.43 778.43 731.10 782.06 728.50 C 785.69 725.89 789.18 723.10 792.25 719.93 C 795.37 716.77 798.16 713.37 800.58 709.74 C 802.96 706.06 804.91 702.15 806.54 698.15 C 809.75 690.05 811.15 681.30 811.10 672.46 L 810.96 669.15 L 810.92 667.48 C 810.96 667.71 810.87 666.87 810.96 667.94 L 810.96 667.85 L 810.92 667.62 L 810.82 667.20 L 810.68 666.31 L 809.47 659.29 C 809.33 658.08 809.05 656.96 808.78 655.93 L 807.99 652.72 C 807.43 650.58 807.05 648.44 806.22 646.30 C 803.66 637.60 799.75 629.36 795.42 621.45 C 790.90 613.63 785.46 606.32 779.31 599.66 C 772.94 593.24 765.96 587.42 758.23 582.63 C 750.41 578.02 741.94 574.58 733.14 572.39 L 726.44 571.08 C 724.21 570.76 721.92 570.66 719.64 570.43 C 718.57 570.39 717.22 570.15 716.34 570.20 L 712.80 570.29 C 710.48 570.39 708.01 570.29 705.82 570.67 L 699.07 571.55 L 692.32 573.18 C 690.04 573.60 687.95 574.62 685.71 575.32 L 682.41 576.48 C 681.34 576.90 680.31 577.46 679.24 577.97 C 670.73 581.74 662.91 587.05 655.83 593.19 C 648.66 599.24 642.57 606.55 637.26 614.32 C 636.00 616.33 634.56 618.23 633.40 620.28 L 629.95 626.47 C 628.74 628.52 628.00 630.75 626.97 632.89 C 626.04 635.08 625.02 637.22 624.32 639.46 L 621.99 646.16 C 621.30 648.44 620.78 650.72 620.18 653.00 L 619.29 656.45 L 618.69 659.94 L 617.43 667.01 Z M 617.43 667.01 L 618.55 659.98 L 619.15 656.49 L 619.99 653.05 C 620.60 650.77 621.06 648.44 621.76 646.16 L 624.00 639.41 C 627.30 630.52 631.21 621.82 636.42 613.81 L 638.28 610.79 L 640.38 607.90 C 641.82 605.99 643.17 604.04 644.66 602.18 L 649.36 596.78 C 650.90 594.91 652.71 593.38 654.39 591.70 C 661.28 585.09 669.00 579.18 677.66 574.85 C 678.73 574.30 679.75 573.69 680.87 573.13 L 684.22 571.69 C 686.46 570.80 688.64 569.64 690.97 569.04 L 697.95 566.89 L 705.26 565.45 C 707.73 564.85 710.06 564.85 712.43 564.62 L 715.97 564.34 C 717.41 564.20 718.48 564.34 719.78 564.34 C 722.25 564.43 724.72 564.38 727.14 564.57 L 734.45 565.55 C 744.13 567.31 753.62 570.53 762.37 575.13 C 771.03 579.93 779.13 585.79 786.25 592.68 C 793.23 599.71 799.42 607.48 804.68 615.91 C 805.98 618.00 807.05 620.24 808.26 622.42 L 810.03 625.68 L 811.52 629.08 C 812.50 631.36 813.57 633.59 814.45 635.92 L 816.88 642.95 C 817.76 645.23 818.27 647.74 818.92 650.21 C 819.48 652.63 820.32 655.19 820.64 657.47 L 821.81 664.50 L 821.95 665.38 L 822.04 665.80 L 822.09 666.03 L 822.09 666.13 C 822.23 667.29 822.13 666.50 822.18 666.83 L 822.23 668.73 L 822.32 672.50 C 822.27 682.60 820.55 692.89 816.64 702.38 C 814.64 707.13 812.13 711.60 809.24 715.84 C 806.26 719.98 802.91 723.84 799.23 727.29 C 791.88 734.27 783.22 739.62 774.15 743.53 C 765.07 747.53 755.53 750.14 745.89 751.63 C 736.26 753.07 726.49 753.40 716.80 752.65 L 717.08 752.65 C 713.92 752.70 710.80 752.65 707.68 752.51 C 704.56 752.33 701.45 752.05 698.33 751.68 C 695.21 751.26 692.14 750.75 689.06 750.14 L 684.50 749.12 L 679.99 747.91 L 675.52 746.56 L 671.10 745.02 L 666.77 743.30 L 662.53 741.39 C 659.74 740.04 657.00 738.55 654.34 736.97 C 651.69 735.34 649.08 733.66 646.62 731.80 C 641.64 728.08 637.07 723.84 633.16 719.05 C 631.21 716.67 629.39 714.16 627.77 711.51 C 626.93 710.21 626.18 708.86 625.49 707.50 C 624.74 706.16 624.04 704.76 623.44 703.36 C 622.78 701.97 622.18 700.52 621.67 699.08 C 621.11 697.64 620.60 696.20 620.23 694.71 C 619.76 693.22 619.39 691.73 619.06 690.24 C 618.69 688.75 618.41 687.21 618.22 685.68 C 617.71 682.65 617.48 679.58 617.34 676.51 C 617.15 673.16 617.29 670.08 617.43 667.01 Z" fill="none" node-id="186" stroke="#4a4024" stroke-linecap="butt" stroke-width="0.4858" target-height="189.20203" target-width="205.16602" target-x="617.154" target-y="564.196"></path><path d="M 212.20 582.08 C 210.38 576.45 213.50 570.12 218.29 566.63 C 223.09 563.14 229.14 562.02 235.05 561.60 C 260.42 559.83 285.18 569.89 306.96 583.01 C 328.75 596.14 348.48 612.38 370.50 625.09 C 379.99 630.53 390.37 635.47 401.31 635.14 C 412.25 634.82 423.70 627.74 425.61 616.99 C 427.33 607.22 415.93 553.74 381.06 531.72" fill="#fff7e2" fill-rule="nonzero" node-id="188" stroke="none" target-height="103.74902" target-width="216.94798" target-x="210.382" target-y="531.719"></path><path d="M 212.20 582.08 C 212.20 582.08 212.10 581.76 211.92 581.11 C 211.78 580.45 211.55 579.48 211.55 578.17 C 211.55 575.61 212.48 571.52 215.97 567.84 C 219.37 564.12 225.32 561.60 232.12 560.67 C 238.87 559.79 246.69 559.51 255.02 560.67 C 263.40 561.74 272.29 563.98 281.32 567.42 C 290.35 570.82 299.47 575.29 308.55 580.59 C 317.48 585.90 326.51 591.86 335.40 598.09 C 344.34 604.28 353.32 610.62 362.54 616.43 C 371.76 622.21 381.11 628.07 390.93 630.72 C 395.87 631.98 400.85 632.49 405.50 631.56 C 410.16 630.68 414.62 628.49 417.88 625.32 C 421.14 622.16 423.19 618.15 423.00 613.69 C 423.00 611.68 422.72 609.17 422.40 606.89 C 422.02 604.56 421.65 602.24 421.14 600.00 C 419.19 590.93 416.39 582.46 413.27 574.96 C 410.06 567.47 406.67 560.76 402.99 555.23 C 401.27 552.39 399.26 549.97 397.63 547.59 C 395.73 545.40 394.00 543.40 392.42 541.59 C 390.70 539.91 389.16 538.42 387.81 537.17 C 386.51 535.86 385.16 534.98 384.14 534.14 C 382.09 532.56 381.02 531.67 381.02 531.67 C 381.02 531.67 382.18 532.42 384.32 533.82 C 385.39 534.56 386.84 535.30 388.28 536.51 C 389.72 537.73 391.40 539.08 393.31 540.66 C 395.03 542.38 396.94 544.29 398.99 546.38 C 400.80 548.66 403.04 550.99 404.99 553.78 C 409.13 559.18 413.04 565.84 416.67 573.38 C 420.30 580.92 423.56 589.48 425.89 598.84 C 426.49 601.17 427.01 603.59 427.47 606.05 C 427.89 608.57 428.31 610.94 428.40 613.92 C 428.82 619.46 426.03 625.42 421.93 629.47 C 417.79 633.56 412.48 636.31 406.71 637.57 C 400.94 638.82 394.89 638.31 389.35 636.87 C 378.09 633.89 368.45 627.79 359.05 621.97 C 349.65 615.97 340.66 609.50 331.77 603.26 C 322.88 597.02 314.27 590.93 305.52 585.53 C 296.86 580.22 288.11 575.52 279.50 571.98 C 270.89 568.40 262.42 565.84 254.46 564.39 C 246.50 562.95 238.96 562.72 232.40 563.09 C 225.84 563.56 220.30 565.51 216.85 568.72 C 213.46 571.93 212.10 575.66 211.92 578.17 C 211.78 579.43 211.92 580.41 212.01 581.11 C 212.15 581.76 212.20 582.08 212.20 582.08 Z" fill="#4a4024" fill-rule="nonzero" node-id="190" stroke="none" target-height="107.14697" target-width="217.27402" target-x="211.547" target-y="531.674"></path><path d="M 807.42 582.08 C 809.24 576.45 806.12 570.12 801.32 566.63 C 796.53 563.14 790.48 562.02 784.57 561.60 C 759.20 559.83 734.44 569.89 712.65 583.01 C 690.87 596.14 671.13 612.38 649.12 625.09 C 639.62 630.53 629.24 635.47 618.30 635.14 C 607.37 634.82 595.92 627.74 594.01 616.99 C 592.29 607.22 603.69 553.74 638.55 531.72" fill="#fff7e2" fill-rule="nonzero" node-id="192" stroke="none" target-height="103.74902" target-width="216.94897" target-x="592.286" target-y="531.719"></path><path d="M 807.42 582.08 C 807.42 582.08 807.51 581.76 807.70 581.11 C 807.84 580.45 808.07 579.48 808.07 578.17 C 808.07 575.61 807.14 571.52 803.65 567.84 C 800.25 564.12 794.29 561.60 787.50 560.67 C 780.75 559.79 772.93 559.51 764.55 560.67 C 756.17 561.74 747.28 563.98 738.25 567.42 C 729.22 570.82 720.10 575.29 711.02 580.59 C 702.09 585.90 693.06 591.86 684.17 598.09 C 675.23 604.28 666.25 610.62 657.03 616.43 C 647.82 622.21 638.46 628.07 628.64 630.72 C 623.71 631.98 618.73 632.49 614.07 631.56 C 609.42 630.68 604.95 628.49 601.69 625.32 C 598.43 622.16 596.38 618.15 596.57 613.69 C 596.57 611.68 596.85 609.17 597.17 606.89 C 597.55 604.56 597.92 602.24 598.43 600.00 C 600.39 590.93 603.18 582.46 606.30 574.96 C 609.51 567.47 612.91 560.76 616.58 555.23 C 618.31 552.39 620.31 549.97 621.94 547.59 C 623.85 545.40 625.57 543.40 627.15 541.59 C 628.87 539.91 630.41 538.42 631.76 537.17 C 633.06 535.86 634.41 534.98 635.43 534.14 C 637.48 532.56 638.55 531.67 638.55 531.67 C 638.55 531.67 637.39 532.42 635.25 533.82 C 634.18 534.56 632.74 535.30 631.29 536.51 C 629.85 537.73 628.17 539.08 626.26 540.66 C 624.54 542.38 622.63 544.29 620.59 546.38 C 618.77 548.66 616.54 550.99 614.58 553.78 C 610.44 559.18 606.53 565.84 602.90 573.38 C 599.27 580.92 596.01 589.48 593.68 598.84 C 593.08 601.17 592.57 603.59 592.10 606.05 C 591.68 608.57 591.26 610.94 591.17 613.92 C 590.75 619.46 593.54 625.42 597.64 629.47 C 601.78 633.56 607.09 636.31 612.86 637.57 C 618.63 638.82 624.68 638.31 630.22 636.87 C 641.49 633.89 651.12 627.79 660.52 621.97 C 669.92 615.97 678.91 609.50 687.80 603.26 C 696.69 597.02 705.30 590.93 714.05 585.53 C 722.71 580.22 731.46 575.52 740.07 571.98 C 748.68 568.40 757.15 565.84 765.11 564.39 C 773.07 562.95 780.61 562.72 787.17 563.09 C 793.74 563.56 799.27 565.51 802.72 568.72 C 806.12 571.93 807.47 575.66 807.65 578.17 C 807.79 579.43 807.65 580.41 807.56 581.11 C 807.47 581.76 807.42 582.08 807.42 582.08 Z" fill="#4a4024" fill-rule="nonzero" node-id="194" stroke="none" target-height="107.14697" target-width="217.32104" target-x="590.751" target-y="531.674"></path><path d="M 511.27 762.90 L 511.27 793.10" fill="none" node-id="196" stroke="#4a4024" stroke-linecap="butt" stroke-width="4" target-height="30.208008" target-width="0" target-x="511.267" target-y="762.896"></path><path d="M 538.17 733.53 C 532.86 732.04 528.21 732.69 524.02 734.65 C 516.15 738.28 507.03 738.28 499.16 734.65 C 494.97 732.69 490.32 732.04 485.01 733.53 C 470.91 737.53 468.96 747.54 476.54 758.39 C 480.87 764.58 491.67 769.84 500.19 773.23 C 507.54 776.17 515.69 776.17 523.04 773.23 C 531.51 769.84 542.31 764.58 546.64 758.39 C 554.23 747.54 552.32 737.53 538.17 733.53 Z" fill="#61494e" fill-opacity="0.3" fill-rule="nonzero" group-id="2" node-id="200" stroke="none" target-height="44.124023" target-width="85.26898" target-x="468.956" target-y="732.042"></path><path d="M 538.26 730.92 C 532.96 729.43 528.25 730.08 524.07 732.04 C 516.20 735.67 506.98 735.67 499.12 732.04 C 494.93 730.08 490.23 729.43 484.92 730.92 C 470.77 734.92 468.82 744.93 476.40 755.78 C 480.78 761.97 491.62 767.23 500.14 770.62 C 507.50 773.56 515.73 773.56 523.09 770.62 C 531.61 767.23 542.40 761.97 546.78 755.78 C 554.37 744.93 552.46 734.92 538.26 730.92 Z" fill="#eb5d68" fill-rule="nonzero" node-id="203" stroke="none" target-height="44.124023" target-width="85.548035" target-x="468.818" target-y="729.433"></path><path d="M 511.59 767.28 C 508.01 767.28 504.47 766.58 501.17 765.27 C 489.81 760.76 481.80 755.83 478.68 751.40 C 476.26 747.96 473.70 742.89 475.29 738.42 C 476.82 734.14 481.76 731.90 485.67 730.79 C 487.34 730.32 489.02 730.09 490.65 730.09 C 493.11 730.09 495.53 730.65 497.95 731.76 C 502.19 733.72 506.89 734.74 511.59 734.74 C 516.29 734.74 520.99 733.72 525.23 731.76 C 527.65 730.65 530.07 730.09 532.54 730.09 C 534.16 730.09 535.79 730.32 537.52 730.79 C 541.43 731.90 546.41 734.09 547.90 738.37 C 549.48 742.84 546.92 747.91 544.45 751.36 C 541.33 755.78 533.37 760.67 522.02 765.23 C 518.71 766.58 515.17 767.28 511.59 767.28 Z" fill="#f59aa1" fill-rule="nonzero" node-id="205" stroke="none" target-height="37.188965" target-width="75.77402" target-x="473.704" target-y="730.088"></path><path d="M 512.94 751.45 C 512.61 751.54 512.29 751.54 511.96 751.45 C 506.19 749.82 496.65 746.24 494.09 743.07 C 492.60 741.21 491.90 739.49 492.32 738.47 C 492.69 737.53 494.32 736.65 496.74 736.04 C 497.53 735.86 498.23 735.77 498.98 735.77 C 499.44 735.77 500.09 735.90 500.84 736.18 C 508.52 738.98 516.99 738.33 524.90 735.95 C 525.32 735.81 525.65 735.77 525.97 735.77 C 526.67 735.77 527.46 735.86 528.25 736.04 C 530.63 736.65 532.26 737.53 532.63 738.47 C 533.00 739.44 532.35 741.16 530.86 743.03 C 528.25 746.24 518.71 749.82 512.94 751.45 Z" fill="#ffffff" fill-rule="nonzero" node-id="207" stroke="none" target-height="15.778015" target-width="41.09897" target-x="491.902" target-y="735.766"></path><path d="M 230.14 849.33 C 194.12 887.22 183.50 855.01 167.12 838.44 C 163.26 834.53 158.65 831.50 153.72 829.32 C 133.19 819.68 107.17 822.85 107.17 822.85 C 107.17 822.85 116.39 815.30 130.40 806.23 C 101.86 784.49 80.55 752.94 80.55 752.94 C 80.55 752.94 96.61 759.87 114.81 760.48 C 82.46 743.81 61.88 705.83 60.67 703.51 C 62.68 704.58 89.90 719.75 121.14 713.42 C 123.04 713.00 124.95 712.49 126.81 711.84" fill="#ffe7a8" fill-rule="nonzero" node-id="209" stroke="none" target-height="183.71002" target-width="169.46721" target-x="60.6738" target-y="703.506"></path><path d="M 230.14 849.33 L 224.00 855.98 C 221.72 857.94 219.57 860.17 217.06 861.89 C 212.22 865.57 206.31 868.50 199.75 868.46 C 198.07 868.64 196.54 867.99 194.91 867.76 C 193.32 867.34 191.88 866.55 190.34 865.94 C 189.00 865.06 187.60 864.27 186.34 863.29 C 185.13 862.27 183.88 861.29 182.76 860.22 C 178.24 855.89 174.52 851.00 170.66 846.53 C 166.79 841.97 162.88 838.02 158.00 835.18 C 153.20 832.34 147.66 830.34 142.17 828.94 C 131.05 826.24 118.99 825.78 107.73 826.94 L 94.23 828.34 L 104.66 819.77 C 108.47 816.61 112.29 813.72 116.20 810.88 C 120.11 808.04 124.07 805.30 128.12 802.64 L 127.84 809.76 C 117.88 802.13 108.75 793.61 100.33 784.49 C 96.09 779.98 92.09 775.23 88.18 770.39 C 84.27 765.55 80.59 760.66 77.01 755.40 L 68.59 743.11 L 82.41 748.88 C 84.83 749.91 87.58 750.89 90.28 751.73 C 92.97 752.56 95.72 753.31 98.47 753.91 C 103.96 755.22 109.55 756.05 115.08 756.38 L 113.03 764.15 C 106.94 760.80 101.21 756.89 95.91 752.52 C 90.65 748.09 85.81 743.25 81.34 738.18 C 76.87 733.06 72.73 727.71 68.91 722.12 C 65.09 716.54 61.60 710.86 58.49 704.67 L 54.48 696.76 L 62.12 701.18 C 66.91 703.92 72.03 706.16 77.24 708.11 C 82.50 710.02 87.90 711.56 93.39 712.58 C 104.42 714.54 115.92 714.67 127.00 711.88 C 116.29 715.93 104.47 716.68 92.97 715.51 C 81.48 714.26 70.12 711.09 59.60 705.83 L 63.19 702.34 C 66.35 707.83 70.17 713.33 74.08 718.49 C 77.99 723.71 82.18 728.68 86.64 733.43 C 91.11 738.13 95.91 742.46 100.89 746.51 C 105.91 750.47 111.31 753.91 116.90 756.84 L 132.86 765.18 L 114.90 764.62 C 108.71 764.43 102.61 763.69 96.65 762.38 C 93.67 761.73 90.74 760.94 87.81 760.06 C 84.88 759.17 82.08 758.19 79.06 756.98 L 84.46 750.47 C 87.81 755.26 91.53 760.10 95.30 764.76 C 99.12 769.41 103.08 773.93 107.12 778.35 C 115.22 787.24 123.93 795.48 133.28 802.78 L 138.17 806.60 L 133.00 809.90 C 129.05 812.47 125.14 815.07 121.27 817.72 C 117.46 820.38 113.59 823.17 109.96 826.01 L 106.89 818.79 C 119.55 817.77 131.93 818.56 144.13 822.05 C 150.18 823.87 156.04 826.20 161.49 829.73 C 167.03 833.18 171.35 838.25 174.99 843.04 C 178.71 847.88 182.11 852.82 186.02 857.05 C 189.83 861.34 194.53 864.92 200.07 865.34 C 205.56 865.80 211.34 863.66 216.27 860.40 C 218.83 858.92 221.11 856.91 223.58 855.24 L 230.14 849.33 Z" fill="#4a4024" fill-rule="nonzero" node-id="211" stroke="none" target-height="171.88702" target-width="175.65811" target-x="54.4829" target-y="696.756"></path><path d="M 106.09 767.13 C 111.00 772.04 127.08 773.71 137.22 774.04 C 139.70 774.13 142.16 774.70 144.28 775.99 C 153.84 781.80 163.99 791.06 145.65 792.73 C 127.92 791.80 110.94 774.11 106.09 767.13 Z" fill="#ffd360" fill-rule="nonzero" node-id="213" stroke="none" target-height="25.598999" target-width="57.901" target-x="106.09" target-y="767.129"></path><path d="M 132.59 815.88 C 138.17 814.09 147.37 818.74 153.68 822.87 C 156.49 824.70 159.74 825.92 163.08 825.57 C 172.20 824.62 182.17 821.10 173.10 811.93 C 161.99 804.61 140.12 812.09 132.59 815.88 Z" fill="#ffd360" fill-rule="nonzero" node-id="215" stroke="none" target-height="21.312012" target-width="49.58" target-x="132.59" target-y="804.608"></path><path d="M 92.13 719.66 C 97.04 724.57 113.12 726.24 123.26 726.57 C 125.74 726.65 128.19 727.23 130.31 728.52 C 139.88 734.33 150.03 743.59 131.69 745.26 C 113.96 744.33 96.98 726.64 92.13 719.66 Z" fill="#ffd360" fill-rule="nonzero" node-id="217" stroke="none" target-height="25.599976" target-width="57.900803" target-x="92.1272" target-y="719.656"></path><path d="M 791.18 849.34 C 827.21 887.22 837.82 855.01 854.20 838.44 C 858.07 834.53 862.67 831.51 867.61 829.32 C 888.13 819.69 914.15 822.85 914.15 822.85 C 914.15 822.85 904.94 815.31 890.93 806.24 C 919.46 784.50 940.77 752.94 940.77 752.94 C 940.77 752.94 924.72 759.88 906.52 760.48 C 938.87 743.82 959.44 705.84 960.65 703.51 C 958.65 704.58 931.42 719.76 900.19 713.43 C 898.28 713.01 896.37 712.50 894.51 711.84" fill="#ffe7a8" fill-rule="nonzero" node-id="219" stroke="none" target-height="183.70996" target-width="169.46698" target-x="791.182" target-y="703.512"></path><path d="M 791.18 849.33 L 797.93 855.29 C 800.40 856.97 802.68 858.97 805.24 860.46 C 810.17 863.67 815.94 865.86 821.43 865.39 C 826.97 864.97 831.67 861.39 835.49 857.11 C 839.40 852.87 842.80 847.93 846.52 843.10 C 850.15 838.30 854.48 833.23 860.02 829.78 C 865.51 826.25 871.33 823.92 877.38 822.10 C 889.58 818.61 901.96 817.87 914.62 818.85 L 911.54 826.06 C 907.96 823.22 904.10 820.43 900.24 817.77 C 896.37 815.12 892.46 812.51 888.50 809.96 L 883.34 806.65 L 888.23 802.83 C 897.58 795.53 906.33 787.29 914.38 778.40 C 918.43 773.98 922.39 769.46 926.21 764.81 C 929.98 760.15 933.70 755.31 937.05 750.52 L 942.45 757.03 C 939.42 758.29 936.63 759.22 933.70 760.11 C 930.77 760.99 927.84 761.78 924.86 762.43 C 918.90 763.74 912.80 764.48 906.61 764.67 L 888.64 765.23 L 904.61 756.89 C 910.20 753.96 915.59 750.52 920.62 746.56 C 925.60 742.51 930.39 738.18 934.86 733.48 C 939.28 728.74 943.52 723.76 947.43 718.54 C 951.29 713.33 955.11 707.88 958.32 702.39 L 961.91 705.88 C 951.39 711.14 940.08 714.31 928.53 715.56 C 917.04 716.73 905.26 715.98 894.51 711.93 C 905.59 714.73 917.08 714.59 928.12 712.63 C 933.65 711.65 939.05 710.07 944.26 708.16 C 949.48 706.21 954.60 703.97 959.39 701.23 L 966.98 696.81 L 962.98 704.72 C 959.86 710.91 956.37 716.59 952.55 722.17 C 948.73 727.71 944.59 733.11 940.12 738.23 C 935.61 743.30 930.77 748.14 925.55 752.57 C 920.25 756.94 914.52 760.85 908.43 764.20 L 906.38 756.43 C 911.92 756.15 917.50 755.31 923.00 753.96 C 925.74 753.31 928.49 752.61 931.19 751.77 C 933.84 750.94 936.63 749.96 939.05 748.94 L 952.88 743.16 L 944.45 755.45 C 940.87 760.71 937.14 765.55 933.28 770.44 C 929.42 775.28 925.37 779.98 921.13 784.54 C 912.71 793.66 903.59 802.18 893.62 809.82 L 893.35 802.70 C 897.39 805.30 901.40 808.05 905.26 810.93 C 909.17 813.82 912.99 816.66 916.80 819.82 L 927.23 828.39 L 913.73 826.99 C 902.47 825.83 890.41 826.29 879.29 828.99 C 873.80 830.39 868.26 832.39 863.47 835.23 C 858.62 838.02 854.67 842.02 850.80 846.59 C 846.94 851.05 843.22 855.94 838.70 860.27 C 837.59 861.34 836.28 862.32 835.12 863.34 C 833.86 864.32 832.42 865.11 831.12 866.00 C 829.58 866.60 828.14 867.39 826.55 867.81 C 824.93 868.04 823.34 868.69 821.72 868.51 C 815.11 868.55 809.19 865.62 804.40 861.95 C 801.89 860.22 799.75 857.99 797.47 856.03 L 791.18 849.33 Z" fill="#4a4024" fill-rule="nonzero" node-id="221" stroke="none" target-height="171.88696" target-width="175.797" target-x="791.182" target-y="696.807"></path><path d="M 919.17 767.13 C 914.26 772.05 898.17 773.72 888.04 774.05 C 885.56 774.13 883.10 774.71 880.98 776.00 C 871.42 781.81 861.27 791.07 879.61 792.73 C 897.34 791.81 914.32 774.11 919.17 767.13 Z" fill="#ffd360" fill-rule="nonzero" node-id="223" stroke="none" target-height="25.598999" target-width="57.901" target-x="861.268" target-y="767.135"></path><path d="M 892.67 815.89 C 887.09 814.10 877.89 818.74 871.58 822.87 C 868.77 824.71 865.52 825.93 862.18 825.58 C 853.06 824.63 843.09 821.11 852.16 811.94 C 863.27 804.61 885.14 812.09 892.67 815.89 Z" fill="#ffd360" fill-rule="nonzero" node-id="225" stroke="none" target-height="21.312012" target-width="49.580994" target-x="843.089" target-y="804.614"></path><path d="M 933.13 719.66 C 928.22 724.58 912.14 726.25 902.00 726.58 C 899.52 726.66 897.07 727.23 894.94 728.52 C 885.38 734.34 875.23 743.59 893.57 745.26 C 911.30 744.33 928.28 726.64 933.13 719.66 Z" fill="#ffd360" fill-rule="nonzero" node-id="227" stroke="none" target-height="25.598999" target-width="57.901" target-x="875.231" target-y="719.662"></path><path d="M 449.54 297.96 C 375.16 303.50 349.14 243.93 349.14 243.93 C 349.14 243.93 368.69 232.52 369.71 234.99 C 384.56 269.71 407.83 294.01 449.54 297.96 Z" fill="#ffd360" fill-rule="nonzero" node-id="229" stroke="none" target-height="70.979996" target-width="100.39502" target-x="349.141" target-y="232.523"></path><path d="M 508.69 377.56 C 551.51 358.94 537.40 307.74 524.98 284.47 L 552.91 219.31 L 552.97 219.41 C 558.38 228.69 564.11 238.50 571.53 268.18 C 580.84 305.41 552.91 370.57 508.69 377.56 Z" fill="#ffefc6" fill-rule="nonzero" node-id="231" stroke="none" target-height="158.25" target-width="72.142975" target-x="508.694" target-y="219.305"></path><path d="M 473.79 342.65 C 516.61 324.03 502.49 272.83 490.08 249.56 L 518.00 184.40 L 518.07 184.51 C 523.48 193.78 529.20 203.60 536.62 233.27 C 545.93 270.51 518.00 335.67 473.79 342.65 Z" fill="#ffd360" fill-rule="nonzero" node-id="233" stroke="none" target-height="158.251" target-width="72.14404" target-x="473.787" target-y="184.4"></path><path d="M 582.91 296.22 C 588.20 249.82 536.80 236.45 510.44 235.56 L 467.97 178.80 L 468.09 178.80 C 478.83 178.75 490.19 178.70 519.60 187.11 C 556.50 197.67 598.97 254.43 582.91 296.22 Z" fill="#ffe49d" fill-rule="nonzero" node-id="235" stroke="none" target-height="117.518005" target-width="131.00302" target-x="467.968" target-y="178.699"></path><path d="M 396.99 233.27 C 363.48 186.72 375.27 134.75 385.35 114.58 C 403.97 170.44 443.53 165.78 487.75 172.76 C 531.97 179.74 542.68 177.71 559.89 198.36 C 571.53 212.32 573.86 263.52 511.02 291.45 C 401.64 328.69 362.08 230.94 357.43 207.67 C 364.41 221.63 396.99 235.60 396.99 233.27 Z" fill="#ffe7a8" fill-rule="nonzero" node-id="237" stroke="none" target-height="214.103" target-width="216.43002" target-x="357.426" target-y="114.582"></path><path d="M 504.84 293.82 C 488.74 297.96 472.21 300.99 455.37 300.94 C 438.61 300.99 421.30 297.50 406.54 288.56 C 391.65 279.86 380.01 266.36 371.63 251.56 C 363.16 236.71 357.48 220.66 352.97 204.46 L 346.59 181.70 L 360.09 201.20 C 364.37 207.34 369.82 212.65 376.10 216.70 C 382.38 220.75 389.46 223.54 396.81 225.03 L 392.90 232.38 C 384.85 224.47 378.57 214.84 374.43 204.37 C 370.28 193.94 368.19 182.86 367.63 171.83 C 367.07 160.80 368.05 149.77 370.00 139.02 C 372.01 128.26 375.03 117.70 379.17 107.51 L 389.51 82.00 L 387.55 109.37 C 386.85 119.14 389.97 128.45 396.63 135.39 C 403.19 142.41 412.45 147.21 422.04 150.79 C 441.50 157.91 462.49 161.54 483.34 165.59 C 493.76 167.64 504.24 169.78 514.66 172.39 C 525.04 175.04 535.42 178.30 545.06 183.37 C 554.55 188.40 563.53 196.31 566.75 207.02 C 569.87 217.77 566.84 228.75 562.93 238.48 C 566.24 228.47 568.24 217.49 564.84 207.62 C 561.30 197.80 552.74 191.01 543.38 186.63 C 524.30 178.16 503.07 175.23 482.22 171.74 C 461.32 168.20 440.01 165.36 419.34 158.15 C 409.10 154.47 398.77 149.54 390.58 141.11 C 389.60 140.04 388.53 139.06 387.60 137.90 L 385.13 134.22 C 383.27 131.90 382.48 128.92 381.22 126.22 C 380.15 123.42 379.82 120.49 379.17 117.61 C 378.99 114.72 378.94 111.79 378.89 108.90 L 387.27 110.81 C 379.73 129.99 375.73 150.93 376.66 171.37 C 377.13 181.60 379.03 191.71 382.71 201.11 C 386.39 210.51 391.93 219.07 399.05 226.15 L 409.38 236.48 L 395.14 233.50 C 378.43 230.06 363.07 219.91 353.62 205.62 L 360.74 202.36 C 364.98 218.24 370.05 233.92 377.73 248.26 C 385.36 262.50 395.79 275.34 409.38 284.10 C 422.93 292.85 439.17 297.22 455.60 298.01 C 471.94 298.85 488.46 296.71 504.84 293.82 Z" fill="#4a4024" fill-rule="nonzero" node-id="239" stroke="none" target-height="218.98999" target-width="223.272" target-x="346.593" target-y="82"></path><path d="M 383.88 135.44 C 387.60 144.14 393.60 151.31 400.91 156.15 C 402.73 157.36 404.63 158.43 406.59 159.31 L 412.87 162.06 C 417.11 163.78 421.34 165.41 425.67 166.81 C 442.94 172.53 461.00 175.70 479.24 177.79 C 497.26 179.79 517.04 180.26 535.47 187.75 C 540.08 189.57 544.55 192.08 548.55 195.29 C 552.50 198.55 555.95 202.69 557.86 207.49 C 561.81 217.12 560.46 227.18 558.14 236.16 C 558.42 226.85 557.81 217.17 553.30 209.77 C 548.92 202.32 540.96 198.23 532.63 195.62 C 524.16 193.06 515.13 191.90 506.05 191.01 C 501.49 190.59 496.98 190.41 492.23 190.17 C 487.53 189.85 482.78 189.57 478.08 189.10 C 459.14 187.33 440.10 183.19 422.37 175.65 C 417.95 173.74 413.62 171.56 409.38 169.28 L 403.19 165.50 C 401.10 164.16 399.05 162.57 397.19 160.90 C 389.88 154.06 384.90 144.93 383.88 135.44 Z" fill="#fff9ea" fill-rule="nonzero" node-id="241" stroke="none" target-height="100.72099" target-width="177.93903" target-x="383.875" target-y="135.438"></path><path d="M 205.05 352.28 C 170.56 398.64 146.17 440.48 131.09 478.00 C 126.44 489.63 109.73 488.98 106.01 476.88 C 106.01 476.79 105.91 476.56 105.91 476.42 C 90.97 428.24 53.78 307.65 59.88 263.75 C 60.67 257.66 65.51 252.91 71.66 252.35 C 72.45 252.26 73.33 252.26 74.26 252.12 C 70.63 260.73 70.77 270.64 71.80 280.05 C 73.61 296.57 78.13 312.72 82.55 328.78 C 90.37 356.47 98.05 384.17 106.43 411.77 C 109.27 421.17 113.64 431.87 123.14 434.15 C 130.02 435.74 136.91 432.01 142.45 427.59 C 157.81 415.16 166.98 396.96 178.62 381.00 C 186.29 370.48 195.23 360.75 205.05 352.28 Z" fill="#f59aa1" fill-rule="nonzero" node-id="243" stroke="none" target-height="237.515" target-width="151.2688" target-x="53.7842" target-y="252.119"></path><path d="M 820.69 352.28 C 855.18 398.64 879.57 440.48 894.65 478.00 C 899.31 489.63 916.02 488.98 919.74 476.88 C 919.74 476.79 919.83 476.56 919.83 476.42 C 934.77 428.24 971.96 307.65 965.87 263.75 C 965.07 257.66 960.23 252.91 954.09 252.35 C 953.30 252.26 952.41 252.26 951.48 252.12 C 955.11 260.73 954.97 270.64 953.95 280.05 C 952.13 296.57 947.62 312.72 943.20 328.78 C 935.38 356.47 927.70 384.17 919.32 411.77 C 916.48 421.17 912.11 431.87 902.61 434.15 C 895.72 435.74 888.84 432.01 883.30 427.59 C 867.94 415.16 858.77 396.96 847.13 381.00 C 839.45 370.48 830.51 360.75 820.69 352.28 Z" fill="#f59aa1" fill-rule="nonzero" node-id="245" stroke="none" target-height="237.515" target-width="151.26904" target-x="820.694" target-y="252.119"></path><path d="M 936.82 249.79 C 920.90 249.47 905.87 256.59 891.86 264.13 C 876.68 272.27 861.79 281.02 847.32 290.38 C 846.01 291.22 844.66 292.15 843.92 293.50 C 842.57 296.06 843.97 299.22 845.83 301.46 C 850.99 307.79 859.98 310.76 867.89 308.76 C 859.32 310.35 850.76 311.93 842.20 313.56 C 854.72 317.61 862.86 332.04 859.88 344.88 C 856.02 343.67 852.81 341.11 849.22 339.20 C 845.64 337.34 841.26 336.18 837.63 337.99 C 834.10 339.76 832.33 343.95 832.38 347.91 C 832.42 351.86 834.00 355.59 835.68 359.17 C 846.52 381.98 863.70 402.83 866.31 427.96 C 866.54 430.34 866.59 432.94 865.10 434.81 C 862.02 438.62 855.88 436.15 851.97 433.18 C 822.41 410.60 805.75 375.51 784.43 345.07 C 776.15 333.20 766.75 321.24 764.75 306.90 C 764.24 303.08 764.28 298.99 766.05 295.55 C 767.49 292.71 769.96 290.56 772.43 288.56 C 796.02 269.01 823.21 253.75 852.16 243.69 C 861.79 240.34 871.66 237.60 881.76 236.16 C 890.09 234.94 898.56 234.66 906.99 234.57 C 914.01 234.53 921.04 234.62 928.02 234.85 C 932.31 234.99 936.82 235.27 940.54 237.41 C 944.27 239.55 947.01 244.11 945.57 248.21 C 944.17 252.26 937.57 253.70 935.47 249.98" fill="#ffd360" fill-rule="nonzero" node-id="247" stroke="none" target-height="204.09601" target-width="182.77899" target-x="764.235" target-y="234.526"></path><path d="M 957.81 253.94 C 945.01 250.13 931.66 252.27 919.60 256.78 C 907.45 261.30 895.35 266.55 883.90 273.02 L 849.37 292.15 C 846.80 293.69 846.43 294.48 846.43 296.34 C 846.53 298.16 847.74 300.48 849.41 301.74 C 850.90 302.95 853.55 303.83 856.25 304.07 C 859.05 304.35 862.12 304.16 865.33 303.88 L 882.92 302.44 L 868.08 311.98 C 858.72 317.98 847.46 320.96 836.33 320.12 L 837.59 311.24 C 845.27 312.91 851.97 317.38 856.81 323.24 C 861.61 329.11 864.73 336.56 864.77 344.38 L 864.82 348.66 L 860.67 348.70 C 856.21 348.75 852.72 346.75 850.11 345.07 C 847.46 343.35 845.22 341.54 843.22 340.56 C 841.22 339.53 839.78 339.58 838.52 340.19 C 837.22 340.88 836.05 342.75 835.63 344.70 C 834.75 348.70 837.03 354.06 839.36 359.32 C 841.68 364.57 844.34 369.69 846.99 374.91 C 849.64 380.03 852.53 385.24 855.09 390.59 C 857.65 395.90 859.93 401.35 862.26 406.74 C 866.87 417.54 871.33 428.34 876.50 438.86 C 870.08 429.04 864.77 418.47 859.28 408.14 C 853.79 397.71 848.29 387.71 841.97 377.70 C 838.89 372.67 836.01 367.51 833.31 362.15 C 832.00 359.45 830.65 356.85 829.54 353.73 C 828.47 350.66 827.63 347.17 828.23 343.30 C 828.89 339.53 830.75 335.81 834.52 333.44 C 838.33 330.92 843.50 331.57 846.67 333.16 C 849.97 334.69 852.34 336.60 854.62 337.95 C 856.90 339.39 858.91 340.14 860.35 340.05 L 856.25 344.42 C 856.07 338.79 853.79 333.16 850.06 328.74 C 846.34 324.31 841.27 321.06 835.77 319.94 L 837.03 311.05 C 846.15 311.65 855.60 309.37 863.38 304.44 L 866.07 312.54 C 862.77 312.77 859.19 313.00 855.42 312.63 C 851.60 312.17 847.60 311.19 843.97 308.21 C 840.62 305.28 838.38 301.27 838.19 296.48 C 838.10 294.11 838.80 291.45 840.34 289.36 C 841.87 287.17 843.87 286.01 845.46 285.08 C 857.37 278.89 869.05 273.16 880.88 267.25 C 892.70 261.43 905.40 256.55 918.44 253.01 C 931.24 249.61 945.57 248.40 957.81 253.94 Z" fill="#4a4024" fill-rule="nonzero" node-id="249" stroke="none" target-height="190.45598" target-width="130.185" target-x="827.629" target-y="248.404"></path><path d="M 89.85 248.67 C 105.77 248.35 120.81 255.47 134.82 263.01 C 149.99 271.15 164.88 279.90 179.36 289.26 C 180.66 290.10 182.01 291.03 182.76 292.38 C 184.11 294.94 182.71 298.10 180.85 300.34 C 175.68 306.67 166.70 309.65 158.79 307.64 C 167.35 309.23 175.91 310.81 184.48 312.44 C 171.96 316.49 163.81 330.92 166.79 343.76 C 170.66 342.55 173.87 339.99 177.45 338.08 C 181.03 336.22 185.41 335.06 189.04 336.87 C 192.58 338.64 194.35 342.83 194.30 346.79 C 194.25 350.74 192.67 354.47 191.00 358.05 C 180.15 380.86 162.98 401.71 160.37 426.84 C 160.14 429.22 160.09 431.82 161.58 433.69 C 164.65 437.50 170.79 435.04 174.71 432.06 C 204.26 409.48 220.92 374.39 242.24 343.95 C 250.53 332.08 259.93 320.12 261.93 305.78 C 262.44 301.97 262.39 297.87 260.62 294.43 C 259.18 291.59 256.72 289.45 254.25 287.44 C 230.65 267.90 203.47 252.63 174.52 242.58 C 164.88 239.22 155.02 236.48 144.92 235.04 C 136.59 233.82 128.11 233.55 119.69 233.45 C 112.66 233.41 105.63 233.50 98.65 233.73 C 94.37 233.87 89.85 234.15 86.13 236.29 C 82.41 238.43 79.66 243.00 81.10 247.09 C 82.50 251.14 89.11 252.58 91.20 248.86" fill="#ffd360" fill-rule="nonzero" node-id="251" stroke="none" target-height="204.09698" target-width="182.7792" target-x="79.6618" target-y="233.406"></path><path d="M 66.86 253.80 C 79.10 248.26 93.44 249.47 106.24 253.01 C 119.22 256.54 133.93 260.45 145.80 266.27 C 157.62 272.23 169.35 277.95 181.22 284.09 C 182.85 284.98 184.85 286.19 186.34 288.38 C 187.88 290.47 188.58 293.12 188.48 295.50 C 188.30 300.29 186.11 304.29 182.71 307.23 C 179.08 310.20 175.08 311.18 171.26 311.65 C 167.44 312.02 163.91 311.79 160.60 311.56 L 163.30 303.46 C 171.07 308.39 180.52 310.67 189.65 310.07 L 190.90 318.96 C 185.46 320.07 180.34 323.33 176.61 327.75 C 172.89 332.17 170.61 337.81 170.42 343.44 L 166.33 339.06 C 167.82 339.16 169.82 338.41 172.05 336.97 C 174.38 335.57 176.71 333.66 180.01 332.17 C 183.18 330.55 188.30 329.94 192.16 332.45 C 195.93 334.87 197.79 338.60 198.44 342.32 C 199.05 346.18 198.21 349.68 197.14 352.75 C 196.02 355.82 194.67 358.47 193.37 361.17 C 190.67 366.52 187.78 371.69 184.71 376.72 C 178.38 386.72 172.89 396.68 167.40 407.16 C 161.91 417.49 156.60 428.01 150.18 437.88 C 155.34 427.31 159.81 416.56 164.42 405.76 C 166.75 400.36 169.03 394.96 171.59 389.61 C 174.10 384.26 176.99 379.04 179.64 373.92 C 182.29 368.76 184.94 363.59 187.27 358.33 C 189.60 353.07 191.88 347.72 191.00 343.72 C 190.58 341.76 189.41 339.90 188.11 339.20 C 186.85 338.55 185.41 338.55 183.41 339.57 C 181.41 340.51 179.17 342.37 176.52 344.09 C 173.91 345.81 170.42 347.81 165.96 347.72 L 161.81 347.67 L 161.86 343.39 C 161.91 335.57 165.02 328.12 169.82 322.26 C 174.61 316.40 181.36 311.93 189.04 310.25 L 190.30 319.14 C 179.17 319.98 167.91 317.00 158.56 311.00 L 143.71 301.45 L 161.30 302.90 C 164.56 303.18 167.63 303.36 170.38 303.08 C 173.08 302.85 175.73 301.97 177.22 300.76 C 178.89 299.50 180.10 297.17 180.20 295.36 C 180.20 293.50 179.82 292.70 177.26 291.17 L 142.73 272.04 C 131.28 265.57 117.22 261.29 105.03 256.78 C 93.02 252.07 79.66 249.98 66.86 253.80 Z" fill="#4a4024" fill-rule="nonzero" node-id="253" stroke="none" target-height="189.61801" target-width="132.1855" target-x="66.8625" target-y="248.258"></path><path d="M 725.12 810.42 C 725.12 827.13 711.58 840.67 694.87 840.67 C 678.16 840.67 664.62 827.13 664.62 810.42 C 664.62 793.71 678.16 780.16 694.87 780.16 C 711.58 780.16 725.12 793.71 725.12 810.42 Z" fill="#ffced2" fill-rule="nonzero" filter="url(#filter0_f_47_10137)" group-id="3" node-id="257" stroke="none" target-height="60.507385" target-width="60.507385" target-x="664.6173" target-y="780.1643"></path><path d="M 352.77 810.42 C 352.77 827.13 339.23 840.67 322.52 840.67 C 305.81 840.67 292.26 827.13 292.26 810.42 C 292.26 793.71 305.81 780.16 322.52 780.16 C 339.23 780.16 352.77 793.71 352.77 810.42 Z" fill="#ffced2" fill-rule="nonzero" filter="url(#filter1_f_47_10137)" group-id="4" node-id="262" stroke="none" target-height="60.507385" target-width="60.507385" target-x="292.2643" target-y="780.1643"></path><path d="M 465.64 828.31 C 464.38 828.31 463.12 827.70 462.33 826.63 C 460.98 824.82 461.40 822.21 463.22 820.91 L 508.32 788.05 C 510.13 786.70 512.69 787.12 514.04 788.93 C 515.39 790.75 514.98 793.35 513.16 794.66 L 468.06 827.52 C 467.31 828.03 466.48 828.31 465.64 828.31 Z" fill="#4a4024" fill-rule="nonzero" node-id="265" stroke="none" target-height="41.612" target-width="54.411987" target-x="460.982" target-y="786.697"></path><path d="M 555.98 828.31 C 555.14 828.31 554.31 828.08 553.56 827.52 L 508.32 794.66 C 506.50 793.31 506.09 790.75 507.39 788.93 C 508.74 787.07 511.30 786.70 513.11 788.00 L 558.36 820.86 C 560.17 822.21 560.59 824.77 559.29 826.59 C 558.54 827.70 557.29 828.31 555.98 828.31 Z" fill="#4a4024" fill-rule="nonzero" node-id="267" stroke="none" target-height="41.610962" target-width="54.505005" target-x="506.086" target-y="786.697"></path><path d="M 704.92 203.02 C 705.06 201.60 705.12 200.15 705.12 198.69 C 705.12 173.37 684.60 152.84 659.23 152.84 C 633.86 152.84 613.34 173.37 613.34 198.69 C 613.34 224.06 633.91 244.58 659.23 244.58 C 661.74 244.58 664.21 244.38 666.61 243.99 C 666.07 246.98 665.79 250.05 665.79 253.19 C 665.79 281.75 688.95 304.91 717.51 304.91 C 734.43 304.91 749.45 296.78 758.89 284.21 C 758.89 284.36 758.88 284.51 758.88 284.66 C 758.88 286.85 759.11 288.98 759.53 291.04 C 749.27 295.89 742.18 306.33 742.18 318.45 C 742.18 330.68 749.39 341.20 759.81 345.99 C 754.59 350.26 751.25 356.75 751.25 364.02 C 751.25 376.87 761.68 387.29 774.52 387.29 C 787.37 387.29 797.80 376.87 797.80 364.02 C 797.80 356.02 793.73 348.96 787.54 344.76 C 796.67 339.54 802.83 329.73 802.83 318.45 C 802.83 316.83 802.70 315.25 802.45 313.70 C 813.81 308.94 821.77 297.72 821.77 284.66 C 821.77 267.30 807.71 253.20 790.30 253.20 C 781.82 253.20 774.12 256.57 768.46 262.04 C 768.96 259.17 769.22 256.21 769.22 253.19 C 769.22 224.63 746.07 201.48 717.51 201.48 C 713.17 201.48 708.95 202.02 704.92 203.02 Z M 298.83 304.96 C 307.08 304.96 315.01 303.65 322.45 301.22 C 317.96 308.04 315.35 316.20 315.35 324.97 C 315.35 347.39 332.47 365.88 354.37 368.04 C 352.99 371.12 352.22 374.54 352.22 378.12 C 352.22 391.76 363.30 402.79 376.89 402.79 C 390.52 402.79 401.56 391.76 401.56 378.12 C 401.56 368.69 396.28 360.51 388.51 356.36 C 396.81 348.47 401.97 337.33 401.97 324.97 C 401.97 301.05 382.56 281.64 358.69 281.68 C 356.86 281.68 355.05 281.80 353.28 282.02 C 357.92 277.26 361.94 271.90 365.22 266.06 C 371.79 271.49 380.22 274.75 389.41 274.75 C 410.40 274.75 427.43 257.71 427.43 236.72 C 427.43 215.73 410.40 198.69 389.41 198.69 C 382.56 198.69 376.14 200.50 370.60 203.66 C 360.18 174.05 331.97 152.85 298.83 152.89 C 256.80 152.89 222.77 186.92 222.77 228.90 C 222.77 270.93 256.80 304.96 298.83 304.96 Z M 314.19 329.21 C 314.19 340.25 306.83 349.55 296.72 352.49 C 296.76 353.35 296.78 354.21 296.78 355.08 C 296.78 385.71 271.97 410.52 241.35 410.52 C 210.72 410.52 185.91 385.71 185.91 355.08 C 185.91 324.45 210.72 299.65 241.35 299.65 C 253.72 299.65 265.14 303.70 274.36 310.55 C 278.56 307.03 283.98 304.91 289.89 304.91 C 303.34 304.91 314.19 315.80 314.19 329.21 Z M 464.93 487.16 C 464.87 484.74 464.80 481.67 466.04 479.68 C 465.52 480.51 457.52 493.46 454.06 511.10 C 452.24 520.41 451.17 530.05 452.66 539.40 C 453.55 545.03 455.59 550.71 459.74 554.62 C 465.27 559.84 476.82 561.18 483.85 558.30 C 491.15 555.27 497.35 548.06 497.39 539.91 C 497.47 529.80 490.39 523.94 483.41 518.15 C 481.69 516.72 479.96 515.29 478.35 513.80 C 473.14 508.96 468.44 503.38 466.35 496.44 C 465.51 493.65 465.04 490.76 464.95 487.88 C 464.94 487.65 464.94 487.41 464.93 487.16 Z M 910.85 596.68 C 912.08 598.67 912.00 601.73 911.94 604.13 C 911.94 604.38 911.93 604.62 911.93 604.85 C 911.83 607.73 911.37 610.62 910.53 613.41 C 908.43 620.35 903.73 625.93 898.52 630.77 C 896.91 632.26 895.19 633.69 893.46 635.12 C 886.48 640.91 879.41 646.78 879.48 656.89 C 879.53 665.03 885.72 672.25 893.03 675.27 C 900.06 678.16 911.60 676.81 917.14 671.64 C 921.28 667.73 923.33 662.05 924.21 656.42 C 925.70 647.07 924.63 637.43 922.82 628.12 C 919.38 610.63 911.50 597.72 910.85 596.68 Z M 150.91 601.77 C 150.85 601.82 150.79 601.87 150.74 601.92 C 150.85 601.82 150.91 601.77 150.91 601.77 Z M 150.74 601.92 C 149.26 603.23 138.38 613.16 130.19 628.44 C 125.77 636.82 121.91 645.67 120.61 655.07 C 119.82 660.70 120.09 666.75 122.93 671.68 C 126.75 678.25 137.36 682.90 144.95 682.20 C 152.82 681.46 160.87 676.34 163.29 668.57 C 166.27 658.93 161.24 651.28 156.28 643.73 C 155.03 641.84 153.79 639.95 152.68 638.03 C 149.09 631.84 146.21 625.19 146.25 617.92 C 146.25 614.99 146.63 612.11 147.42 609.31 C 147.49 609.07 147.56 608.81 147.63 608.54 C 148.27 606.28 149.06 603.47 150.74 601.92 Z" fill="#c8e5ff" fill-rule="evenodd" node-id="269" stroke="none" target-height="530.06" target-width="805.887" target-x="119.816" target-y="152.842"></path><path d="M 287.61 248.73 C 264.25 248.73 245.26 229.74 245.26 206.37 C 245.26 183.05 264.25 164.06 287.61 164.06 C 310.93 164.06 329.92 183.05 329.92 206.37 C 329.92 229.74 310.93 248.73 287.61 248.73 Z M 280.58 330.37 C 275.23 330.37 270.90 326.04 270.90 320.73 C 270.90 315.38 275.23 311.05 280.58 311.05 C 285.89 311.05 290.22 315.38 290.22 320.73 C 290.22 326.09 285.89 330.37 280.58 330.37 Z M 337.83 302.49 C 337.83 307.80 342.12 312.08 347.42 312.08 C 352.73 312.08 357.01 307.75 357.01 302.49 C 357.01 297.18 352.68 292.90 347.42 292.90 C 342.12 292.90 337.83 297.18 337.83 302.49 Z M 367.53 379.71 C 361.99 379.71 357.48 375.19 357.48 369.65 C 357.48 364.12 361.99 359.60 367.53 359.60 C 373.07 359.60 377.58 364.12 377.58 369.65 C 377.58 375.19 373.07 379.71 367.53 379.71 Z M 691.67 241.37 C 691.67 251.24 699.73 259.34 709.64 259.34 C 719.51 259.34 727.61 251.29 727.61 241.37 C 727.61 231.46 719.55 223.41 709.64 223.41 C 699.73 223.41 691.67 231.46 691.67 241.37 Z M 763.12 325.72 C 754.46 325.72 747.39 318.64 747.39 309.98 C 747.39 301.33 754.42 294.25 763.12 294.25 C 771.78 294.25 778.81 301.28 778.81 309.98 C 778.85 318.64 771.78 325.72 763.12 325.72 Z M 208.44 332.65 C 208.44 344.61 218.17 354.34 230.13 354.34 C 242.09 354.34 251.87 344.61 251.87 332.65 C 251.87 320.64 242.09 310.91 230.13 310.91 C 218.17 310.91 208.44 320.69 208.44 332.65 Z M 780.95 293.04 C 771.69 293.04 764.10 285.50 764.10 276.19 C 764.10 266.93 771.69 259.34 780.95 259.34 C 790.21 259.34 797.80 266.93 797.80 276.19 C 797.80 285.50 790.26 293.04 780.95 293.04 Z M 756.47 355.60 C 756.47 360.39 760.38 364.25 765.12 364.25 C 769.92 364.25 773.78 360.34 773.78 355.60 C 773.78 350.80 769.87 346.94 765.12 346.94 C 760.33 346.94 756.47 350.80 756.47 355.60 Z M 648.01 188.36 C 641.31 188.36 635.87 182.91 635.87 176.21 C 635.87 169.51 641.31 164.06 648.01 164.06 C 654.72 164.06 660.16 169.51 660.16 176.21 C 660.16 182.96 654.72 188.36 648.01 188.36 Z M 473.61 525.90 C 477.10 522.60 483.57 523.76 488.08 528.51 C 492.55 533.26 493.39 539.77 489.90 543.08 C 486.41 546.38 479.94 545.22 475.42 540.47 C 470.95 535.73 470.12 529.21 473.61 525.90 Z M 888.79 645.53 C 893.31 640.78 899.78 639.62 903.27 642.92 C 906.76 646.23 905.92 652.74 901.45 657.49 C 896.94 662.24 890.47 663.40 886.98 660.10 C 883.49 656.79 884.28 650.28 888.79 645.53 Z M 144.62 648.27 C 148.95 646.13 154.77 649.11 157.70 654.98 C 160.63 660.79 159.47 667.31 155.19 669.45 C 150.86 671.59 145.04 668.61 142.11 662.75 C 139.18 656.88 140.34 650.41 144.62 648.27 Z" fill="#ffffff" fill-opacity="0.8" fill-rule="evenodd" group-id="5" node-id="273" stroke="none" target-height="507.53" target-width="767.581" target-x="139.178" target-y="164.061"></path></svg>