<?xml version="1.0" standalone="no"?><!DOCTYPE svg PUBLIC "-//W3C//DTD SVG 1.1//EN" "http://www.w3.org/Graphics/SVG/1.1/DTD/svg11.dtd"><svg height="1024" node-id="1" sillyvg="true" template-height="1024" template-width="1024" version="1.1" viewBox="0 0 1024 1024" width="1024" xmlns="http://www.w3.org/2000/svg" xmlns:xlink="http://www.w3.org/1999/xlink"><defs node-id="86"><filter height="100.51" id="filter0_f_47_9095" node-id="77" width="100.509" x="645.6" y="761.965"><feFlood color-interpolation-filters="sRGB" flood-color="#000000" flood-opacity="0" result="BackgroundImageFix"></feFlood><feBlend color-interpolation-filters="sRGB" in="SourceGraphic" in2="BackgroundImageFix" mode="normal" result="shape"></feBlend><feGaussianBlur color-interpolation-filters="sRGB" in="shape" result="effect1_foregroundBlur_47_9095" stdDeviation="10 10"></feGaussianBlur></filter><filter height="100.51" id="filter1_f_47_9095" node-id="81" width="100.509" x="273.236" y="761.965"><feFlood color-interpolation-filters="sRGB" flood-color="#000000" flood-opacity="0" result="BackgroundImageFix"></feFlood><feBlend color-interpolation-filters="sRGB" in="SourceGraphic" in2="BackgroundImageFix" mode="normal" result="shape"></feBlend><feGaussianBlur color-interpolation-filters="sRGB" in="shape" result="effect1_foregroundBlur_47_9095" stdDeviation="10 10"></feGaussianBlur></filter></defs><path d="M 628.84 929.47 C 482.08 957.49 355.81 921.28 355.81 921.28 C 209.28 885.34 106.04 791.69 106.04 623.01 C 106.04 617.15 106.28 611.24 106.51 605.51 C 90.59 598.62 77.23 587.08 83.00 576.47 C 94.31 555.66 -20.65 294.26 24.54 226.54 C 64.24 167.05 251.45 249.25 297.02 270.52 C 359.44 229.70 433.12 205.73 512.06 205.73 C 591.33 205.73 665.15 229.80 727.42 270.76 C 772.20 249.95 960.66 166.87 1000.46 226.54 C 1045.70 294.26 930.69 555.66 942.00 576.47 C 947.86 587.31 933.99 598.95 917.70 605.88 C 917.93 611.52 918.03 617.29 918.03 623.06 C 918.03 791.74 814.93 885.34 668.26 921.32 L 628.84 929.47 Z" fill="#ffe7a8" fill-rule="nonzero" node-id="105" stroke="#4a4024" stroke-linecap="butt" stroke-width="8" target-height="790.621" target-width="1066.3545" target-x="-20.6546" target-y="166.867"></path><path d="M 512.15 903.91 C 377.40 903.91 151.43 877.06 151.43 621.48 C 151.43 402.34 316.62 217.18 512.15 217.18 C 707.69 217.18 872.88 402.29 872.88 621.48 C 872.88 877.06 646.86 903.91 512.15 903.91 Z" fill="#fff7e2" fill-rule="nonzero" node-id="107" stroke="none" target-height="686.731" target-width="721.45404" target-x="151.425" target-y="217.182"></path><path d="M 670.88 526.89 C 676.33 514.62 687.35 505.71 700.49 502.94 L 702.56 502.50 C 716.55 499.56 731.01 499.56 745.00 502.50 L 749.34 503.42 C 761.30 505.94 771.80 513.04 778.58 523.21 L 781.26 527.24 C 781.72 527.93 781.96 528.73 781.96 529.55 L 781.96 529.55 C 781.96 532.38 779.21 534.39 776.52 533.53 L 756.82 527.23 C 754.19 526.39 751.50 525.75 748.78 525.31 L 743.53 524.47 C 730.45 522.38 717.12 522.38 704.03 524.47 L 696.80 525.63 C 695.40 525.85 694.01 526.18 692.66 526.62 L 673.36 532.79 C 670.79 533.61 668.62 530.74 670.12 528.49 L 670.12 528.49 C 670.21 528.36 670.29 528.22 670.35 528.07 L 670.88 526.89 Z" fill="#4a4024" fill-rule="nonzero" node-id="109" stroke="none" target-height="34.834015" target-width="113.339966" target-x="668.624" target-y="499.559"></path><path d="M 256.62 526.89 C 262.08 514.62 273.09 505.71 286.24 502.94 L 288.30 502.50 C 302.30 499.56 316.75 499.56 330.75 502.50 L 335.08 503.42 C 347.05 505.94 357.54 513.04 364.32 523.21 L 367.01 527.24 C 367.46 527.93 367.71 528.73 367.71 529.55 L 367.71 529.55 C 367.71 532.38 364.96 534.39 362.26 533.53 L 342.56 527.23 C 339.94 526.39 337.25 525.75 334.53 525.31 L 329.28 524.47 C 316.19 522.38 302.86 522.38 289.78 524.47 L 282.55 525.63 C 281.14 525.85 279.76 526.18 278.40 526.62 L 259.11 532.79 C 256.54 533.61 254.37 530.74 255.87 528.49 L 255.87 528.49 C 255.96 528.36 256.03 528.22 256.10 528.07 L 256.62 526.89 Z" fill="#4a4024" fill-rule="nonzero" node-id="111" stroke="none" target-height="34.834015" target-width="113.34001" target-x="254.369" target-y="499.559"></path><path d="M 755.56 512.33 C 748.35 508.75 740.20 506.47 731.68 505.63 C 730.85 505.63 730.01 505.58 729.17 505.58 C 727.82 505.54 726.42 505.49 725.08 505.49 C 722.70 505.49 720.93 505.63 719.40 505.96 C 719.16 506.00 718.98 506.05 718.75 506.10 C 716.74 506.38 714.70 506.70 712.69 507.07 L 712.55 507.12 C 710.65 507.77 708.74 508.38 706.92 509.08 C 706.69 509.17 706.41 509.26 706.18 509.36 C 704.74 509.77 705.80 510.38 707.95 510.19 C 709.30 510.01 710.65 509.77 712.00 509.54 C 712.55 509.40 713.44 509.31 714.00 509.31 C 715.53 509.31 717.07 509.31 718.56 509.22 C 719.77 509.08 721.03 509.03 722.38 509.03 C 724.14 509.03 725.91 509.12 727.73 509.26 C 728.71 509.31 729.68 509.40 730.71 509.40 C 733.69 509.54 736.34 509.91 738.90 510.29 C 740.16 510.47 741.37 510.66 742.62 510.80 C 743.04 510.85 743.46 510.89 743.83 511.03 C 745.23 511.40 746.58 511.59 747.98 511.87 C 750.21 512.29 752.49 512.71 754.86 513.40 C 756.63 513.73 757.05 513.03 755.56 512.33 Z" fill="#cecece" fill-rule="nonzero" node-id="113" stroke="none" target-height="8.239014" target-width="52.317017" target-x="704.735" target-y="505.492"></path><path d="M 341.31 512.33 C 334.09 508.75 325.95 506.47 317.43 505.63 C 316.59 505.63 315.75 505.58 314.92 505.58 C 313.57 505.54 312.17 505.49 310.82 505.49 C 308.45 505.49 306.68 505.63 305.14 505.96 C 304.91 506.00 304.72 506.05 304.49 506.10 C 302.49 506.38 300.44 506.70 298.44 507.07 L 298.30 507.12 C 296.39 507.77 294.48 508.38 292.67 509.08 C 292.44 509.17 292.16 509.26 291.92 509.36 C 290.48 509.77 291.55 510.38 293.69 510.19 C 295.04 510.01 296.39 509.77 297.74 509.54 C 298.30 509.40 299.18 509.31 299.74 509.31 C 301.28 509.31 302.81 509.31 304.30 509.22 C 305.51 509.08 306.77 509.03 308.12 509.03 C 309.89 509.03 311.66 509.12 313.47 509.26 C 314.45 509.31 315.43 509.40 316.45 509.40 C 319.43 509.54 322.08 509.91 324.64 510.29 C 325.90 510.47 327.11 510.66 328.37 510.80 C 328.79 510.85 329.21 510.89 329.58 511.03 C 330.98 511.40 332.32 511.59 333.72 511.87 C 335.95 512.29 338.24 512.71 340.61 513.40 C 342.38 513.73 342.80 513.03 341.31 512.33 Z" fill="#cecece" fill-rule="nonzero" node-id="115" stroke="none" target-height="8.239014" target-width="52.316986" target-x="290.48" target-y="505.492"></path><path d="M 895.50 479.61 C 876.88 433.01 843.79 379.95 795.01 319.58 C 789.33 312.56 791.84 302.13 800.17 298.73 C 847.42 279.32 910.02 253.58 946.47 253.58 C 949.91 253.58 952.75 253.72 955.12 254.00 C 961.22 254.61 966.01 259.35 966.85 265.40 C 972.95 309.20 935.67 429.94 920.82 478.12 C 920.77 478.26 920.73 478.44 920.68 478.58 C 916.91 490.59 900.15 491.29 895.50 479.61 Z" fill="#ffced2" fill-rule="nonzero" node-id="117" stroke="none" target-height="237.70801" target-width="183.62103" target-x="789.329" target-y="253.582"></path><path d="M 132.16 479.88 C 127.45 491.61 110.70 490.87 107.02 478.81 C 106.97 478.67 106.93 478.49 106.88 478.35 C 92.03 430.17 54.80 309.62 60.85 265.63 C 61.69 259.58 66.53 254.84 72.62 254.23 C 75.00 254.00 77.84 253.86 81.23 253.86 C 117.73 253.86 180.33 279.60 227.53 299.01 C 235.86 302.45 238.37 312.88 232.69 319.86 C 183.91 380.23 150.82 433.29 132.16 479.88 Z" fill="#ffced2" fill-rule="nonzero" node-id="119" stroke="none" target-height="237.75502" target-width="183.5754" target-x="54.7966" target-y="253.859"></path><path d="M 508.75 903.91 C 466.26 903.91 367.44 895.68 367.44 819.29 C 367.44 755.29 432.14 701.21 508.75 701.21 C 585.37 701.21 650.11 755.29 650.11 819.29 C 650.11 895.68 551.25 903.91 508.75 903.91 Z" fill="#fff1cc" fill-rule="nonzero" node-id="121" stroke="none" target-height="202.70502" target-width="282.67" target-x="367.441" target-y="701.209"></path><path d="M 508.75 892.60 C 467.84 892.60 372.70 884.87 372.70 813.52 C 372.70 752.54 435.02 700.97 508.75 700.97 C 582.53 700.97 644.85 752.50 644.85 813.52 C 644.85 884.92 549.67 892.60 508.75 892.60 Z" fill="#ffffff" fill-rule="nonzero" node-id="123" stroke="none" target-height="191.62695" target-width="272.151" target-x="372.7" target-y="700.973"></path><path d="M 404.77 678.36 C 404.77 729.18 359.20 770.33 302.98 770.33 C 246.75 770.33 201.18 729.18 201.18 678.36 C 201.18 627.57 246.75 586.43 302.98 586.43 C 359.20 586.43 404.77 627.57 404.77 678.36 Z" fill="#ffe7a8" fill-rule="nonzero" node-id="125" stroke="none" target-height="183.901" target-width="203.58899" target-x="201.182" target-y="586.428"></path><path d="M 616.51 678.36 C 616.51 729.18 662.08 770.33 718.30 770.33 C 774.53 770.33 820.10 729.18 820.10 678.36 C 820.10 627.57 774.53 586.43 718.30 586.43 C 662.08 586.43 616.51 627.57 616.51 678.36 Z" fill="#ffe7a8" fill-rule="nonzero" node-id="127" stroke="none" target-height="183.901" target-width="203.58997" target-x="616.507" target-y="586.428"></path><path d="M 402.21 668.81 C 406.17 727.46 351.20 754.04 302.65 751.57 C 254.06 754.04 199.13 727.46 203.09 668.81 C 210.16 613.05 252.75 568.93 302.65 569.02 C 352.55 568.97 395.18 613.10 402.21 668.81 Z" fill="#ffe7a8" fill-rule="nonzero" node-id="129" stroke="none" target-height="185.11102" target-width="207.03398" target-x="199.132" target-y="568.927"></path><path d="M 308.84 742.73 C 306.93 742.73 305.02 742.68 303.12 742.59 C 300.28 742.68 298.37 742.73 296.46 742.73 C 268.81 742.73 243.21 734.49 227.94 720.66 C 216.17 710.00 210.86 696.51 212.12 680.59 C 218.59 637.35 258.29 603.14 302.51 603.14 C 347.01 603.14 386.76 637.35 393.27 681.05 C 394.48 696.51 389.18 710.00 377.40 720.66 C 362.13 734.44 336.54 742.73 308.84 742.73 Z" fill="#ffffff" fill-rule="nonzero" node-id="131" stroke="none" target-height="139.58997" target-width="183.62201" target-x="210.862" target-y="603.137"></path><path d="M 618.42 668.81 C 614.46 727.46 669.38 754.08 717.98 751.62 C 766.52 754.08 821.49 727.51 817.54 668.81 C 810.51 613.05 767.87 568.93 717.98 569.02 C 668.03 568.97 625.44 613.10 618.42 668.81 Z" fill="#ffe7a8" fill-rule="nonzero" node-id="133" stroke="none" target-height="185.15698" target-width="207.03503" target-x="614.459" target-y="568.927"></path><path d="M 711.78 742.73 C 684.14 742.73 658.54 734.49 643.27 720.66 C 631.49 710.00 626.19 696.51 627.44 680.59 C 633.91 637.35 673.62 603.14 717.84 603.14 C 762.38 603.14 802.08 637.35 808.60 681.05 C 809.81 696.51 804.50 710.00 792.73 720.66 C 777.46 734.49 751.86 742.77 724.21 742.77 C 722.30 742.77 720.39 742.73 718.49 742.63 C 715.60 742.68 713.69 742.73 711.78 742.73 Z" fill="#ffffff" fill-rule="nonzero" node-id="135" stroke="none" target-height="139.63599" target-width="183.62103" target-x="626.188" target-y="603.137"></path><path d="M 309.58 736.40 C 275.70 736.40 248.19 705.54 248.19 667.65 C 248.19 629.72 275.70 598.86 309.58 598.86 C 343.42 598.86 370.98 629.72 370.98 667.65 C 370.98 705.54 343.42 736.40 309.58 736.40 Z" fill="#fbc100" fill-rule="nonzero" node-id="137" stroke="none" target-height="137.54199" target-width="122.78699" target-x="248.19" target-y="598.855"></path><path d="M 309.58 727.32 C 280.73 727.32 257.22 700.51 257.22 667.60 C 257.22 634.65 280.73 607.84 309.58 607.84 C 338.44 607.84 361.95 634.65 361.95 667.60 C 361.90 700.56 338.44 727.32 309.58 727.32 Z" fill="#ffd873" fill-rule="nonzero" node-id="139" stroke="none" target-height="119.481995" target-width="104.728" target-x="257.22" target-y="607.838"></path><path d="M 309.58 736.40 C 309.58 736.40 308.00 736.30 304.98 736.16 C 303.49 736.16 301.67 735.79 299.53 735.47 C 297.34 735.24 294.97 734.44 292.27 733.70 C 286.96 731.93 280.73 729.04 274.40 724.39 C 268.11 719.74 261.97 713.12 256.94 704.79 C 251.96 696.46 248.19 686.36 246.66 675.19 C 246.42 672.35 246.10 669.61 246.05 666.58 C 246.14 663.74 245.96 661.00 246.38 657.92 C 246.51 656.43 246.70 654.90 246.84 653.36 C 247.12 651.87 247.40 650.38 247.72 648.89 C 248.19 645.87 249.31 642.98 250.10 639.96 C 252.29 634.14 254.89 628.27 258.57 622.92 C 262.29 617.61 266.58 612.49 271.84 608.35 C 277.05 604.16 282.91 600.58 289.34 598.25 C 295.81 595.97 302.65 594.71 309.54 594.57 L 314.56 594.85 C 316.10 594.85 317.96 595.27 319.69 595.55 C 323.27 596.06 326.43 597.18 329.74 598.21 C 336.16 600.53 342.07 604.12 347.29 608.30 C 352.55 612.49 356.83 617.57 360.55 622.87 C 364.23 628.23 366.83 634.09 369.02 639.96 C 372.98 651.78 373.91 664.11 372.47 675.10 C 370.93 686.46 367.16 696.42 362.18 704.79 C 357.15 713.12 351.01 719.69 344.73 724.39 C 338.44 729.09 332.16 731.93 326.85 733.70 C 324.15 734.44 321.78 735.24 319.59 735.47 C 317.45 735.79 315.63 736.16 314.10 736.16 C 311.17 736.30 309.58 736.40 309.58 736.40 Z M 309.58 736.40 C 309.58 736.40 311.17 736.30 314.19 736.12 C 315.68 736.12 317.50 735.70 319.64 735.33 C 321.78 735.05 324.15 734.26 326.85 733.47 C 332.11 731.60 338.35 728.72 344.35 723.78 C 350.36 718.94 356.27 712.24 360.64 703.82 C 365.07 695.49 368.09 685.38 368.74 674.87 C 369.39 663.97 367.58 652.76 363.34 642.05 C 358.88 631.49 351.80 621.62 342.40 614.45 C 337.65 611.00 332.49 607.98 326.95 606.02 C 321.27 604.12 315.87 603.18 309.58 603.09 C 303.67 603.14 297.81 604.16 292.22 606.02 C 286.64 608.03 281.52 610.96 276.72 614.45 C 267.32 621.62 260.25 631.49 255.78 642.05 C 254.89 644.75 253.64 647.40 253.03 650.15 C 252.66 651.50 252.29 652.90 251.96 654.25 C 251.73 655.60 251.50 656.95 251.26 658.34 C 250.66 661.00 250.66 663.97 250.38 666.72 C 250.24 669.33 250.38 672.12 250.43 674.77 C 251.12 685.48 254.10 695.49 258.52 703.82 C 262.90 712.24 268.81 718.90 274.81 723.74 C 280.82 728.67 287.06 731.56 292.32 733.37 C 295.02 734.16 297.34 734.96 299.53 735.24 C 301.67 735.61 303.49 736.03 304.98 736.03 C 307.95 736.30 309.58 736.40 309.58 736.40 Z" fill="#4a4024" fill-rule="nonzero" node-id="141" stroke="none" target-height="141.82404" target-width="127.953" target-x="245.957" target-y="594.574"></path><path d="M 370.93 667.65 C 370.93 675.84 369.67 683.62 367.30 690.92 C 358.83 664.30 336.12 645.17 309.44 645.17 C 282.87 645.17 260.20 664.16 251.63 690.69 C 249.35 683.48 248.10 675.75 248.10 667.65 C 248.10 629.72 275.65 598.86 309.49 598.86 C 343.38 598.81 370.93 629.72 370.93 667.65 Z" fill="#ca9e2d" fill-rule="nonzero" node-id="143" stroke="none" target-height="92.112976" target-width="122.83299" target-x="248.098" target-y="598.809"></path><path d="M 309.17 711.77 C 286.36 711.77 267.79 691.01 267.79 665.41 C 267.79 639.86 286.36 619.10 309.17 619.10 C 331.97 619.10 350.54 639.90 350.54 665.41 C 350.54 691.01 331.97 711.77 309.17 711.77 Z" fill="#4a4024" fill-rule="nonzero" node-id="145" stroke="none" target-height="92.672" target-width="82.75702" target-x="267.787" target-y="619.1"></path><path d="M 309.17 711.77 C 309.17 711.77 308.10 711.73 306.09 711.63 C 304.09 711.49 301.11 711.08 297.53 709.96 C 293.94 708.75 289.71 706.84 285.57 703.63 C 281.38 700.42 277.33 695.95 274.02 690.36 C 270.72 684.78 268.35 677.98 267.46 670.53 C 267.32 668.67 267.18 666.81 267.13 664.81 C 267.23 662.90 267.13 660.99 267.46 659.04 C 267.79 655.03 268.86 651.17 270.11 647.22 C 271.60 643.40 273.37 639.53 275.84 636.04 C 278.31 632.60 281.19 629.29 284.64 626.60 C 288.08 623.90 291.90 621.62 296.09 620.08 C 300.32 618.59 304.65 617.80 309.26 617.71 C 313.45 617.80 318.15 618.59 322.29 620.08 C 326.48 621.62 330.30 623.90 333.74 626.60 C 337.19 629.25 340.07 632.60 342.54 636.04 C 345.01 639.53 346.77 643.40 348.26 647.22 C 350.96 654.99 351.75 663.09 350.92 670.49 C 350.03 677.98 347.66 684.73 344.35 690.36 C 341.05 695.95 337.00 700.46 332.81 703.63 C 328.62 706.84 324.39 708.75 320.80 709.96 C 317.22 711.08 314.24 711.49 312.24 711.63 C 310.24 711.73 309.17 711.77 309.17 711.77 Z M 309.17 711.77 C 309.17 711.77 310.24 711.73 312.24 711.59 C 314.24 711.45 317.17 710.98 320.76 709.82 C 324.29 708.56 328.48 706.61 332.58 703.39 C 336.67 700.18 340.72 695.72 343.75 690.04 C 346.82 684.40 348.96 677.66 349.57 670.39 C 350.17 663.04 349.10 655.31 346.31 647.87 C 343.33 640.56 338.58 633.67 332.07 628.55 C 328.81 626.08 325.18 623.94 321.27 622.59 C 317.26 621.24 313.45 620.59 309.03 620.50 C 305.02 620.54 300.79 621.24 296.92 622.59 C 293.01 623.99 289.43 626.08 286.13 628.55 C 279.66 633.62 274.86 640.51 271.88 647.87 C 270.58 651.59 269.37 655.36 269.00 659.13 C 268.62 660.99 268.67 662.95 268.49 664.81 C 268.44 666.62 268.53 668.53 268.62 670.35 C 269.23 677.66 271.37 684.36 274.44 689.99 C 277.47 695.67 281.52 700.14 285.61 703.35 C 289.71 706.61 293.90 708.56 297.44 709.82 C 301.02 710.98 303.95 711.45 305.95 711.59 C 308.10 711.73 309.17 711.77 309.17 711.77 Z" fill="#ffb800" fill-rule="nonzero" node-id="147" stroke="none" target-height="94.06799" target-width="84.619995" target-x="267.135" target-y="617.705"></path><path d="M 311.87 647.68 C 311.87 664.62 298.93 678.35 282.96 678.35 C 267.00 678.35 254.06 664.62 254.06 647.68 C 254.06 630.74 267.00 616.96 282.96 616.96 C 298.88 616.96 311.87 630.69 311.87 647.68 Z" fill="#ffffff" fill-rule="nonzero" node-id="149" stroke="none" target-height="61.393005" target-width="57.80899" target-x="254.056" target-y="616.961"></path><path d="M 710.01 736.40 C 676.13 736.40 648.62 705.54 648.62 667.65 C 648.62 629.72 676.13 598.86 710.01 598.86 C 743.85 598.86 771.41 629.72 771.41 667.65 C 771.46 705.54 743.90 736.40 710.01 736.40 Z" fill="#ffb800" fill-rule="nonzero" node-id="151" stroke="none" target-height="137.54199" target-width="122.83301" target-x="648.622" target-y="598.855"></path><path d="M 710.01 727.32 C 681.16 727.32 657.65 700.51 657.65 667.61 C 657.65 634.65 681.16 607.84 710.01 607.84 C 738.87 607.84 762.38 634.65 762.38 667.61 C 762.38 700.56 738.92 727.32 710.01 727.32 Z" fill="#ffd873" fill-rule="nonzero" node-id="153" stroke="none" target-height="119.481995" target-width="104.72803" target-x="657.651" target-y="607.842"></path><path d="M 710.01 736.40 C 710.01 736.40 708.43 736.30 705.41 736.16 C 703.92 736.16 702.10 735.79 699.91 735.47 C 697.73 735.23 695.35 734.44 692.65 733.70 C 687.35 731.93 681.11 729.04 674.78 724.39 C 668.50 719.74 662.35 713.12 657.33 704.79 C 652.35 696.46 648.58 686.36 647.04 675.19 C 646.81 672.35 646.48 669.61 646.43 666.58 C 646.53 663.74 646.34 660.99 646.76 657.92 C 646.90 656.43 647.09 654.90 647.23 653.36 C 647.50 651.87 647.78 650.38 648.11 648.89 C 648.58 645.87 649.69 642.98 650.48 639.96 C 652.67 634.14 655.28 628.27 658.96 622.87 C 662.68 617.57 666.96 612.49 672.22 608.30 C 677.43 604.12 683.30 600.53 689.72 598.20 C 696.19 595.92 702.99 594.67 709.92 594.53 C 716.44 594.62 723.75 595.92 730.12 598.20 C 736.55 600.53 742.46 604.12 747.67 608.30 C 752.93 612.49 757.21 617.57 760.94 622.87 C 764.61 628.23 767.22 634.09 769.45 639.96 C 773.36 651.78 774.34 664.11 772.90 675.10 C 771.36 686.46 767.59 696.41 762.61 704.79 C 757.59 713.12 751.44 719.69 745.16 724.39 C 738.87 729.09 732.59 731.93 727.28 733.70 C 724.58 734.44 722.21 735.23 720.02 735.47 C 717.88 735.79 716.07 736.16 714.53 736.16 C 711.64 736.30 710.01 736.40 710.01 736.40 Z M 710.01 736.40 C 710.01 736.40 711.60 736.30 714.62 736.12 C 716.11 736.12 717.93 735.70 720.07 735.33 C 722.21 735.05 724.58 734.26 727.28 733.47 C 732.54 731.60 738.78 728.72 744.78 723.78 C 750.79 718.94 756.70 712.24 761.08 703.82 C 765.50 695.48 768.52 685.38 769.17 674.87 C 769.83 663.97 768.06 652.76 763.77 642.05 C 759.31 631.48 752.23 621.62 742.83 614.45 C 738.08 611.00 732.92 607.98 727.38 606.02 C 721.70 604.12 716.30 603.18 710.01 603.09 C 704.10 603.14 698.24 604.16 692.65 606.02 C 687.07 608.03 681.95 610.96 677.15 614.45 C 667.75 621.62 660.68 631.48 656.21 642.05 C 655.32 644.80 654.07 647.40 653.46 650.15 C 653.09 651.50 652.72 652.89 652.39 654.25 C 652.16 655.60 651.93 656.95 651.69 658.34 C 651.09 660.99 651.09 663.97 650.81 666.72 C 650.67 669.33 650.81 672.12 650.86 674.77 C 651.55 685.48 654.53 695.48 658.96 703.82 C 663.33 712.24 669.24 718.90 675.25 723.74 C 681.25 728.67 687.49 731.56 692.75 733.37 C 695.45 734.16 697.77 734.96 699.96 735.23 C 702.10 735.61 703.92 736.03 705.41 736.03 C 708.43 736.30 710.01 736.40 710.01 736.40 Z" fill="#4a4024" fill-rule="nonzero" node-id="155" stroke="none" target-height="141.87103" target-width="128" target-x="646.341" target-y="594.527"></path><path d="M 771.36 667.65 C 771.36 675.84 770.11 683.62 767.73 690.92 C 759.26 664.30 736.55 645.17 709.88 645.17 C 683.30 645.17 660.63 664.16 652.07 690.69 C 649.78 683.48 648.53 675.75 648.53 667.65 C 648.53 629.72 676.08 598.86 709.92 598.86 C 743.85 598.81 771.36 629.72 771.36 667.65 Z" fill="#ca9e2d" fill-rule="nonzero" node-id="157" stroke="none" target-height="92.112976" target-width="122.833984" target-x="648.528" target-y="598.809"></path><path d="M 710.01 713.96 C 687.21 713.96 668.63 693.16 668.63 667.60 C 668.63 642.05 687.21 621.24 710.01 621.24 C 732.82 621.24 751.39 642.00 751.39 667.60 C 751.39 693.16 732.82 713.96 710.01 713.96 Z" fill="#4a4024" fill-rule="nonzero" node-id="159" stroke="none" target-height="92.718994" target-width="82.757996" target-x="668.635" target-y="621.244"></path><path d="M 710.01 713.96 C 710.01 713.96 708.94 713.92 706.94 713.82 C 704.94 713.68 701.96 713.26 698.38 712.15 C 694.79 710.94 690.56 709.03 686.42 705.82 C 682.23 702.61 678.18 698.14 674.87 692.55 C 671.57 686.97 669.19 680.17 668.31 672.72 C 668.17 670.86 668.03 669.00 667.98 667.00 C 668.08 665.09 667.98 663.18 668.31 661.23 C 668.64 657.22 669.71 653.36 670.96 649.40 C 672.45 645.59 674.22 641.72 676.69 638.23 C 679.15 634.79 682.04 631.48 685.49 628.78 C 688.93 626.09 692.75 623.80 696.93 622.27 C 701.12 620.78 705.55 619.99 710.01 619.89 C 714.39 619.99 718.95 620.78 723.14 622.27 C 727.33 623.80 731.15 626.09 734.59 628.78 C 738.03 631.44 740.92 634.79 743.39 638.23 C 745.85 641.72 747.62 645.59 749.11 649.40 C 751.81 657.18 752.60 665.28 751.81 672.68 C 750.93 680.17 748.55 686.92 745.25 692.55 C 741.95 698.14 737.89 702.65 733.71 705.82 C 729.52 709.03 725.28 710.94 721.74 712.15 C 718.16 713.26 715.18 713.68 713.18 713.82 C 711.09 713.92 710.01 713.96 710.01 713.96 Z M 710.01 713.96 C 710.01 713.96 711.09 713.92 713.09 713.78 C 715.09 713.64 718.02 713.17 721.60 712.01 C 725.14 710.75 729.33 708.80 733.43 705.54 C 737.52 702.33 741.57 697.86 744.60 692.18 C 747.67 686.55 749.81 679.80 750.42 672.54 C 750.97 665.18 749.95 657.46 747.16 650.01 C 744.18 642.70 739.43 635.81 732.91 630.69 C 729.66 628.23 726.03 626.13 722.12 624.74 C 718.16 623.38 714.20 622.73 709.92 622.64 C 705.78 622.69 701.64 623.38 697.73 624.74 C 693.82 626.13 690.23 628.23 686.93 630.69 C 680.41 635.77 675.66 642.65 672.68 650.01 C 671.38 653.73 670.17 657.50 669.80 661.27 C 669.43 663.13 669.47 665.09 669.29 666.95 C 669.24 668.77 669.33 670.68 669.43 672.49 C 670.03 679.80 672.22 686.50 675.29 692.13 C 678.32 697.81 682.37 702.28 686.46 705.49 C 690.56 708.75 694.75 710.71 698.28 711.96 C 701.87 713.12 704.80 713.59 706.80 713.73 C 708.94 713.92 710.01 713.96 710.01 713.96 Z" fill="#ffb800" fill-rule="nonzero" node-id="161" stroke="none" target-height="94.06799" target-width="84.619995" target-x="667.984" target-y="619.895"></path><path d="M 714.48 647.68 C 714.48 664.62 701.54 678.36 685.58 678.36 C 669.61 678.36 656.67 664.62 656.67 647.68 C 656.67 630.74 669.61 616.96 685.58 616.96 C 701.50 616.96 714.48 630.69 714.48 647.68 Z" fill="#ffffff" fill-rule="nonzero" node-id="163" stroke="none" target-height="61.393005" target-width="57.80896" target-x="656.674" target-y="616.963"></path><path d="M 402.21 668.81 C 402.35 671.89 402.49 674.96 402.35 678.03 C 402.21 681.10 401.98 684.17 401.46 687.20 C 401.28 688.74 400.95 690.22 400.63 691.71 C 400.35 693.20 399.93 694.74 399.46 696.18 C 399.05 697.67 398.58 699.12 398.02 700.56 C 397.51 702.00 396.95 703.44 396.25 704.84 C 395.65 706.28 394.95 707.63 394.20 708.98 C 393.51 710.38 392.71 711.68 391.92 712.99 C 390.34 715.64 388.48 718.15 386.52 720.53 C 382.61 725.32 378.05 729.60 373.07 733.28 C 370.61 735.14 367.95 736.82 365.35 738.45 C 362.69 740.03 359.95 741.52 357.15 742.87 L 352.92 744.78 L 348.59 746.50 L 344.17 748.03 L 339.70 749.38 L 335.18 750.59 L 330.62 751.62 C 327.55 752.22 324.48 752.74 321.36 753.15 C 318.24 753.53 315.12 753.81 312.00 753.99 C 308.89 754.13 305.72 754.18 302.60 754.13 L 302.88 754.13 C 293.20 754.88 283.43 754.55 273.79 753.11 C 264.16 751.66 254.61 749.01 245.54 745.05 C 236.46 741.14 227.85 735.75 220.45 728.81 C 216.77 725.32 213.38 721.50 210.44 717.36 C 207.51 713.17 205.00 708.66 203.04 703.91 C 199.13 694.41 197.41 684.13 197.36 674.03 L 197.46 670.26 L 197.50 668.35 C 197.55 668.07 197.46 668.81 197.55 667.65 L 197.55 667.56 L 197.60 667.32 L 197.69 666.90 L 197.83 666.02 L 198.99 658.99 C 199.32 656.71 200.16 654.15 200.72 651.73 C 201.37 649.31 201.88 646.80 202.76 644.47 L 205.18 637.44 C 206.07 635.12 207.14 632.88 208.12 630.60 L 209.60 627.20 L 211.37 623.94 C 212.58 621.76 213.65 619.57 214.96 617.43 C 220.22 609.00 226.41 601.23 233.39 594.20 C 240.56 587.31 248.61 581.45 257.27 576.65 C 266.02 572.00 275.51 568.79 285.19 567.07 L 292.50 566.09 C 294.97 565.90 297.44 565.95 299.86 565.86 C 301.16 565.86 302.18 565.72 303.67 565.86 L 307.21 566.13 C 309.58 566.37 311.91 566.41 314.38 566.97 L 321.69 568.41 L 328.67 570.56 C 331.04 571.16 333.18 572.33 335.42 573.21 L 338.77 574.65 C 339.84 575.16 340.91 575.77 341.98 576.37 C 350.59 580.70 358.36 586.61 365.25 593.22 C 366.93 594.95 368.79 596.48 370.28 598.30 L 374.98 603.70 C 376.52 605.51 377.82 607.51 379.26 609.42 L 381.36 612.31 L 383.22 615.33 C 388.39 623.34 392.34 632.04 395.65 640.93 L 397.88 647.68 C 398.53 649.96 399.05 652.29 399.65 654.57 L 400.49 658.01 L 401.09 661.51 L 402.21 668.81 Z M 402.21 668.81 L 401.00 661.83 L 400.39 658.34 L 399.51 654.90 C 398.90 652.62 398.35 650.29 397.69 648.05 L 395.37 641.35 C 394.67 639.07 393.64 636.93 392.71 634.79 C 391.69 632.65 390.95 630.41 389.74 628.37 L 386.29 622.17 C 385.13 620.13 383.73 618.22 382.43 616.22 C 377.12 608.44 371.02 601.14 363.86 595.09 C 356.78 588.94 348.96 583.63 340.44 579.87 C 339.37 579.40 338.35 578.84 337.28 578.38 L 333.97 577.21 C 331.79 576.51 329.64 575.49 327.37 575.07 L 320.62 573.44 L 313.87 572.56 C 311.68 572.14 309.21 572.28 306.88 572.18 L 303.35 572.09 C 302.46 572.05 301.11 572.23 300.04 572.33 C 297.76 572.56 295.48 572.65 293.25 572.98 L 286.54 574.28 C 277.70 576.47 269.23 579.91 261.46 584.52 C 253.73 589.27 246.75 595.13 240.37 601.55 C 234.23 608.21 228.78 615.52 224.27 623.34 C 219.94 631.25 215.98 639.49 213.47 648.19 C 212.68 650.34 212.26 652.48 211.70 654.62 L 210.91 657.83 C 210.63 658.90 210.35 659.97 210.21 661.18 L 209.00 668.16 L 208.86 669.05 L 208.77 669.47 L 208.72 669.70 L 208.72 669.79 C 208.86 668.72 208.77 669.56 208.77 669.33 L 208.72 671.00 L 208.58 674.31 C 208.53 683.15 209.88 691.90 213.14 700.00 C 214.77 704.05 216.73 707.91 219.10 711.59 C 221.52 715.22 224.31 718.62 227.43 721.78 C 230.50 724.95 234.00 727.74 237.62 730.35 C 241.26 732.95 245.12 735.28 249.22 737.28 C 257.31 741.38 266.06 744.22 275.05 746.22 C 284.03 748.13 293.29 749.01 302.56 748.87 L 302.79 748.87 L 302.83 748.87 C 305.81 749.10 308.84 749.24 311.87 749.29 C 314.89 749.29 317.92 749.20 320.89 749.01 C 323.92 748.78 326.90 748.45 329.93 748.08 L 334.39 747.34 L 338.86 746.40 L 343.28 745.29 L 347.66 743.98 L 351.99 742.50 L 356.22 740.82 C 359.02 739.61 361.76 738.35 364.46 736.91 C 367.12 735.47 369.72 733.84 372.24 732.12 C 377.21 728.62 381.87 724.58 385.87 720.01 C 387.87 717.73 389.78 715.31 391.46 712.75 C 392.30 711.50 393.13 710.19 393.83 708.84 C 394.58 707.49 395.32 706.14 395.93 704.75 C 396.62 703.35 397.18 701.95 397.74 700.51 C 398.35 699.07 398.81 697.62 399.23 696.18 C 399.70 694.74 400.12 693.25 400.44 691.76 C 400.81 690.27 401.14 688.78 401.37 687.25 C 401.93 684.22 402.21 681.15 402.35 678.08 C 402.44 675.00 402.35 671.93 402.21 668.81 Z" fill="#4a4024" fill-rule="nonzero" node-id="165" stroke="none" target-height="189.16095" target-width="205.126" target-x="197.363" target-y="565.715"></path><path d="M 402.21 668.81 C 402.35 671.89 402.49 674.96 402.35 678.03 C 402.21 681.10 401.98 684.17 401.46 687.20 C 401.28 688.74 400.95 690.22 400.63 691.71 C 400.35 693.20 399.93 694.74 399.46 696.18 C 399.05 697.67 398.58 699.12 398.02 700.56 C 397.51 702.00 396.95 703.44 396.25 704.84 C 395.65 706.28 394.95 707.63 394.20 708.98 C 393.51 710.38 392.71 711.68 391.92 712.99 C 390.34 715.64 388.48 718.15 386.52 720.53 C 382.61 725.32 378.05 729.60 373.07 733.28 C 370.61 735.14 367.95 736.82 365.35 738.45 C 362.69 740.03 359.95 741.52 357.15 742.87 L 352.92 744.78 L 348.59 746.50 L 344.17 748.03 L 339.70 749.38 L 335.18 750.59 L 330.62 751.62 C 327.55 752.22 324.48 752.74 321.36 753.15 C 318.24 753.53 315.12 753.81 312.00 753.99 C 308.89 754.13 305.72 754.18 302.60 754.13 L 302.88 754.13 C 293.20 754.88 283.43 754.55 273.79 753.11 C 264.16 751.66 254.61 749.01 245.54 745.05 C 236.46 741.14 227.85 735.75 220.45 728.81 C 216.77 725.32 213.38 721.50 210.44 717.36 C 207.51 713.17 205.00 708.66 203.04 703.91 C 199.13 694.41 197.41 684.13 197.36 674.03 L 197.46 670.26 L 197.50 668.35 C 197.55 668.07 197.46 668.81 197.55 667.65 L 197.55 667.56 L 197.60 667.32 L 197.69 666.90 L 197.83 666.02 L 198.99 658.99 C 199.32 656.71 200.16 654.15 200.72 651.73 C 201.37 649.31 201.88 646.80 202.76 644.47 L 205.18 637.44 C 206.07 635.12 207.14 632.88 208.12 630.60 L 209.60 627.20 L 211.37 623.94 C 212.58 621.76 213.65 619.57 214.96 617.43 C 220.22 609.00 226.41 601.23 233.39 594.20 C 240.56 587.31 248.61 581.45 257.27 576.65 C 266.02 572.00 275.51 568.79 285.19 567.07 L 292.50 566.09 C 294.97 565.90 297.44 565.95 299.86 565.86 C 301.16 565.86 302.18 565.72 303.67 565.86 L 307.21 566.13 C 309.58 566.37 311.91 566.41 314.38 566.97 L 321.69 568.41 L 328.67 570.56 C 331.04 571.16 333.18 572.33 335.42 573.21 L 338.77 574.65 C 339.84 575.16 340.91 575.77 341.98 576.37 C 350.59 580.70 358.36 586.61 365.25 593.22 C 366.93 594.95 368.79 596.48 370.28 598.30 L 374.98 603.70 C 376.52 605.51 377.82 607.51 379.26 609.42 L 381.36 612.31 L 383.22 615.33 C 388.39 623.34 392.34 632.04 395.65 640.93 L 397.88 647.68 C 398.53 649.96 399.05 652.29 399.65 654.57 L 400.49 658.01 L 401.09 661.51 L 402.21 668.81 Z M 402.21 668.81 L 401.00 661.83 L 400.39 658.34 L 399.51 654.90 C 398.90 652.62 398.35 650.29 397.69 648.05 L 395.37 641.35 C 394.67 639.07 393.64 636.93 392.71 634.79 C 391.69 632.65 390.95 630.41 389.74 628.37 L 386.29 622.17 C 385.13 620.13 383.73 618.22 382.43 616.22 C 377.12 608.44 371.02 601.14 363.86 595.09 C 356.78 588.94 348.96 583.63 340.44 579.87 C 339.37 579.40 338.35 578.84 337.28 578.38 L 333.97 577.21 C 331.79 576.51 329.64 575.49 327.37 575.07 L 320.62 573.44 L 313.87 572.56 C 311.68 572.14 309.21 572.28 306.88 572.18 L 303.35 572.09 C 302.46 572.05 301.11 572.23 300.04 572.33 C 297.76 572.56 295.48 572.65 293.25 572.98 L 286.54 574.28 C 277.70 576.47 269.23 579.91 261.46 584.52 C 253.73 589.27 246.75 595.13 240.37 601.55 C 234.23 608.21 228.78 615.52 224.27 623.34 C 219.94 631.25 215.98 639.49 213.47 648.19 C 212.68 650.34 212.26 652.48 211.70 654.62 L 210.91 657.83 C 210.63 658.90 210.35 659.97 210.21 661.18 L 209.00 668.16 L 208.86 669.05 L 208.77 669.47 L 208.72 669.70 L 208.72 669.79 C 208.86 668.72 208.77 669.56 208.77 669.33 L 208.72 671.00 L 208.58 674.31 C 208.53 683.15 209.88 691.90 213.14 700.00 C 214.77 704.05 216.73 707.91 219.10 711.59 C 221.52 715.22 224.31 718.62 227.43 721.78 C 230.50 724.95 234.00 727.74 237.62 730.35 C 241.26 732.95 245.12 735.28 249.22 737.28 C 257.31 741.38 266.06 744.22 275.05 746.22 C 284.03 748.13 293.29 749.01 302.56 748.87 L 302.79 748.87 L 302.83 748.87 C 305.81 749.10 308.84 749.24 311.87 749.29 C 314.89 749.29 317.92 749.20 320.89 749.01 C 323.92 748.78 326.90 748.45 329.93 748.08 L 334.39 747.34 L 338.86 746.40 L 343.28 745.29 L 347.66 743.98 L 351.99 742.50 L 356.22 740.82 C 359.02 739.61 361.76 738.35 364.46 736.91 C 367.12 735.47 369.72 733.84 372.24 732.12 C 377.21 728.62 381.87 724.58 385.87 720.01 C 387.87 717.73 389.78 715.31 391.46 712.75 C 392.30 711.50 393.13 710.19 393.83 708.84 C 394.58 707.49 395.32 706.14 395.93 704.75 C 396.62 703.35 397.18 701.95 397.74 700.51 C 398.35 699.07 398.81 697.62 399.23 696.18 C 399.70 694.74 400.12 693.25 400.44 691.76 C 400.81 690.27 401.14 688.78 401.37 687.25 C 401.93 684.22 402.21 681.15 402.35 678.08 C 402.44 675.00 402.35 671.93 402.21 668.81 Z" fill="none" node-id="167" stroke="#4a4024" stroke-linecap="butt" stroke-width="0.4858" target-height="189.16095" target-width="205.126" target-x="197.363" target-y="565.715"></path><path d="M 618.41 668.81 C 618.27 671.88 618.18 674.96 618.37 678.03 C 618.51 681.10 618.79 684.17 619.35 687.20 C 619.58 688.73 619.86 690.22 620.23 691.71 C 620.56 693.20 620.93 694.69 621.44 696.13 C 621.86 697.62 622.37 699.07 622.93 700.46 C 623.44 701.90 624.05 703.30 624.75 704.70 C 625.35 706.10 626.05 707.49 626.84 708.79 C 627.54 710.14 628.38 711.45 629.21 712.70 C 630.89 715.26 632.75 717.68 634.80 719.97 C 638.85 724.57 643.46 728.62 648.44 732.07 C 650.95 733.79 653.56 735.42 656.21 736.86 C 658.91 738.30 661.65 739.56 664.45 740.77 L 668.68 742.45 L 673.01 743.94 L 677.39 745.24 L 681.81 746.36 L 686.28 747.29 L 690.75 748.03 C 693.73 748.45 696.75 748.78 699.78 748.96 C 702.80 749.15 705.83 749.24 708.81 749.24 C 711.83 749.20 714.81 749.06 717.84 748.82 L 717.88 748.82 L 718.12 748.82 C 727.38 748.96 736.64 748.08 745.62 746.17 C 754.61 744.22 763.36 741.33 771.46 737.23 C 775.51 735.23 779.41 732.90 783.05 730.30 C 786.68 727.69 790.17 724.90 793.24 721.73 C 796.36 718.57 799.15 715.17 801.57 711.54 C 803.95 707.86 805.90 703.95 807.53 699.95 C 810.74 691.85 812.14 683.10 812.09 674.26 L 811.95 670.95 L 811.90 669.28 C 811.95 669.51 811.86 668.67 811.95 669.74 L 811.95 669.65 L 811.90 669.42 L 811.81 669.00 L 811.67 668.11 L 810.46 661.09 C 810.32 659.88 810.04 658.76 809.76 657.73 L 808.97 654.52 C 808.41 652.38 808.04 650.24 807.20 648.10 C 804.64 639.39 800.73 631.16 796.40 623.24 C 791.89 615.42 786.44 608.12 780.30 601.46 C 773.92 595.04 766.94 589.22 759.22 584.42 C 751.39 579.82 742.92 576.37 734.13 574.18 L 727.42 572.88 C 725.19 572.56 722.91 572.46 720.63 572.23 C 719.56 572.18 718.21 571.95 717.32 572.00 L 713.79 572.09 C 711.46 572.18 708.99 572.09 706.80 572.46 L 700.05 573.35 L 693.31 574.98 C 691.03 575.39 688.93 576.42 686.70 577.12 L 683.39 578.28 C 682.32 578.70 681.30 579.26 680.23 579.77 C 671.71 583.54 663.89 588.85 656.82 594.99 C 649.65 601.04 643.55 608.35 638.24 616.12 C 636.99 618.12 635.54 620.03 634.38 622.08 L 630.94 628.27 C 629.73 630.32 628.98 632.55 627.96 634.69 C 627.03 636.88 626.00 639.02 625.30 641.26 L 622.98 647.96 C 622.28 650.24 621.77 652.52 621.16 654.80 L 620.28 658.25 L 619.67 661.74 L 618.41 668.81 Z M 618.41 668.81 L 619.53 661.78 L 620.14 658.29 L 620.98 654.85 C 621.58 652.57 622.04 650.24 622.74 647.96 L 624.98 641.21 C 628.28 632.32 632.19 623.62 637.40 615.61 L 639.27 612.59 L 641.36 609.70 C 642.80 607.79 644.15 605.84 645.64 603.97 L 650.35 598.58 C 651.88 596.71 653.70 595.18 655.37 593.50 C 662.26 586.89 669.99 580.98 678.64 576.65 C 679.72 576.09 680.74 575.49 681.86 574.93 L 685.21 573.49 C 687.44 572.60 689.63 571.44 691.96 570.83 L 698.94 568.69 L 706.25 567.25 C 708.71 566.64 711.04 566.64 713.41 566.41 L 716.95 566.13 C 718.39 565.99 719.47 566.13 720.77 566.13 C 723.24 566.23 725.70 566.18 728.12 566.37 L 735.43 567.34 C 745.11 569.11 754.61 572.32 763.36 576.93 C 772.01 581.73 780.11 587.59 787.24 594.48 C 794.22 601.51 800.41 609.28 805.67 617.71 C 806.97 619.80 808.04 622.03 809.25 624.22 L 811.02 627.48 L 812.51 630.88 C 813.49 633.16 814.56 635.39 815.44 637.72 L 817.86 644.75 C 818.75 647.03 819.26 649.54 819.91 652.01 C 820.47 654.43 821.31 656.99 821.63 659.27 L 822.80 666.30 L 822.94 667.18 L 823.03 667.60 L 823.08 667.83 L 823.08 667.93 C 823.22 669.09 823.12 668.30 823.17 668.62 L 823.22 670.53 L 823.31 674.30 C 823.26 684.40 821.54 694.69 817.63 704.19 C 815.63 708.93 813.11 713.40 810.23 717.64 C 807.25 721.78 803.90 725.64 800.22 729.09 C 792.87 736.07 784.21 741.42 775.13 745.33 C 766.06 749.34 756.51 751.94 746.88 753.43 C 737.25 754.87 727.47 755.20 717.79 754.46 L 718.07 754.46 C 714.90 754.50 711.78 754.46 708.67 754.32 C 705.55 754.13 702.43 753.85 699.31 753.48 C 696.19 753.06 693.12 752.55 690.05 751.94 L 685.49 750.92 L 680.97 749.71 L 676.50 748.36 L 672.08 746.82 L 667.75 745.10 L 663.52 743.19 C 660.73 741.84 657.98 740.35 655.33 738.77 C 652.67 737.14 650.07 735.47 647.60 733.60 C 642.62 729.88 638.06 725.64 634.15 720.85 C 632.19 718.48 630.38 715.96 628.75 713.31 C 627.91 712.01 627.16 710.66 626.47 709.31 C 625.72 707.96 625.02 706.56 624.42 705.16 C 623.77 703.77 623.16 702.32 622.65 700.88 C 622.09 699.44 621.58 698.00 621.21 696.51 C 620.74 695.02 620.37 693.53 620.04 692.04 C 619.67 690.55 619.39 689.01 619.21 687.48 C 618.69 684.45 618.46 681.38 618.32 678.31 C 618.13 674.96 618.27 671.88 618.41 668.81 Z" fill="#4a4024" fill-rule="nonzero" node-id="169" stroke="none" target-height="189.20703" target-width="205.17297" target-x="618.135" target-y="565.993"></path><path d="M 618.41 668.81 C 618.27 671.88 618.18 674.96 618.37 678.03 C 618.51 681.10 618.79 684.17 619.35 687.20 C 619.58 688.73 619.86 690.22 620.23 691.71 C 620.56 693.20 620.93 694.69 621.44 696.13 C 621.86 697.62 622.37 699.07 622.93 700.46 C 623.44 701.90 624.05 703.30 624.75 704.70 C 625.35 706.10 626.05 707.49 626.84 708.79 C 627.54 710.14 628.38 711.45 629.21 712.70 C 630.89 715.26 632.75 717.68 634.80 719.97 C 638.85 724.57 643.46 728.62 648.44 732.07 C 650.95 733.79 653.56 735.42 656.21 736.86 C 658.91 738.30 661.65 739.56 664.45 740.77 L 668.68 742.45 L 673.01 743.94 L 677.39 745.24 L 681.81 746.36 L 686.28 747.29 L 690.75 748.03 C 693.73 748.45 696.75 748.78 699.78 748.96 C 702.80 749.15 705.83 749.24 708.81 749.24 C 711.83 749.20 714.81 749.06 717.84 748.82 L 717.88 748.82 L 718.12 748.82 C 727.38 748.96 736.64 748.08 745.62 746.17 C 754.61 744.22 763.36 741.33 771.46 737.23 C 775.51 735.23 779.41 732.90 783.05 730.30 C 786.68 727.69 790.17 724.90 793.24 721.73 C 796.36 718.57 799.15 715.17 801.57 711.54 C 803.95 707.86 805.90 703.95 807.53 699.95 C 810.74 691.85 812.14 683.10 812.09 674.26 L 811.95 670.95 L 811.90 669.28 C 811.95 669.51 811.86 668.67 811.95 669.74 L 811.95 669.65 L 811.90 669.42 L 811.81 669.00 L 811.67 668.11 L 810.46 661.09 C 810.32 659.88 810.04 658.76 809.76 657.73 L 808.97 654.52 C 808.41 652.38 808.04 650.24 807.20 648.10 C 804.64 639.39 800.73 631.16 796.40 623.24 C 791.89 615.42 786.44 608.12 780.30 601.46 C 773.92 595.04 766.94 589.22 759.22 584.42 C 751.39 579.82 742.92 576.37 734.13 574.18 L 727.42 572.88 C 725.19 572.56 722.91 572.46 720.63 572.23 C 719.56 572.18 718.21 571.95 717.32 572.00 L 713.79 572.09 C 711.46 572.18 708.99 572.09 706.80 572.46 L 700.05 573.35 L 693.31 574.98 C 691.03 575.39 688.93 576.42 686.70 577.12 L 683.39 578.28 C 682.32 578.70 681.30 579.26 680.23 579.77 C 671.71 583.54 663.89 588.85 656.82 594.99 C 649.65 601.04 643.55 608.35 638.24 616.12 C 636.99 618.12 635.54 620.03 634.38 622.08 L 630.94 628.27 C 629.73 630.32 628.98 632.55 627.96 634.69 C 627.03 636.88 626.00 639.02 625.30 641.26 L 622.98 647.96 C 622.28 650.24 621.77 652.52 621.16 654.80 L 620.28 658.25 L 619.67 661.74 L 618.41 668.81 Z M 618.41 668.81 L 619.53 661.78 L 620.14 658.29 L 620.98 654.85 C 621.58 652.57 622.04 650.24 622.74 647.96 L 624.98 641.21 C 628.28 632.32 632.19 623.62 637.40 615.61 L 639.27 612.59 L 641.36 609.70 C 642.80 607.79 644.15 605.84 645.64 603.97 L 650.35 598.58 C 651.88 596.71 653.70 595.18 655.37 593.50 C 662.26 586.89 669.99 580.98 678.64 576.65 C 679.72 576.09 680.74 575.49 681.86 574.93 L 685.21 573.49 C 687.44 572.60 689.63 571.44 691.96 570.83 L 698.94 568.69 L 706.25 567.25 C 708.71 566.64 711.04 566.64 713.41 566.41 L 716.95 566.13 C 718.39 565.99 719.47 566.13 720.77 566.13 C 723.24 566.23 725.70 566.18 728.12 566.37 L 735.43 567.34 C 745.11 569.11 754.61 572.32 763.36 576.93 C 772.01 581.73 780.11 587.59 787.24 594.48 C 794.22 601.51 800.41 609.28 805.67 617.71 C 806.97 619.80 808.04 622.03 809.25 624.22 L 811.02 627.48 L 812.51 630.88 C 813.49 633.16 814.56 635.39 815.44 637.72 L 817.86 644.75 C 818.75 647.03 819.26 649.54 819.91 652.01 C 820.47 654.43 821.31 656.99 821.63 659.27 L 822.80 666.30 L 822.94 667.18 L 823.03 667.60 L 823.08 667.83 L 823.08 667.93 C 823.22 669.09 823.12 668.30 823.17 668.62 L 823.22 670.53 L 823.31 674.30 C 823.26 684.40 821.54 694.69 817.63 704.19 C 815.63 708.93 813.11 713.40 810.23 717.64 C 807.25 721.78 803.90 725.64 800.22 729.09 C 792.87 736.07 784.21 741.42 775.13 745.33 C 766.06 749.34 756.51 751.94 746.88 753.43 C 737.25 754.87 727.47 755.20 717.79 754.46 L 718.07 754.46 C 714.90 754.50 711.78 754.46 708.67 754.32 C 705.55 754.13 702.43 753.85 699.31 753.48 C 696.19 753.06 693.12 752.55 690.05 751.94 L 685.49 750.92 L 680.97 749.71 L 676.50 748.36 L 672.08 746.82 L 667.75 745.10 L 663.52 743.19 C 660.73 741.84 657.98 740.35 655.33 738.77 C 652.67 737.14 650.07 735.47 647.60 733.60 C 642.62 729.88 638.06 725.64 634.15 720.85 C 632.19 718.48 630.38 715.96 628.75 713.31 C 627.91 712.01 627.16 710.66 626.47 709.31 C 625.72 707.96 625.02 706.56 624.42 705.16 C 623.77 703.77 623.16 702.32 622.65 700.88 C 622.09 699.44 621.58 698.00 621.21 696.51 C 620.74 695.02 620.37 693.53 620.04 692.04 C 619.67 690.55 619.39 689.01 619.21 687.48 C 618.69 684.45 618.46 681.38 618.32 678.31 C 618.13 674.96 618.27 671.88 618.41 668.81 Z" fill="none" node-id="171" stroke="#4a4024" stroke-linecap="butt" stroke-width="0.4858" target-height="189.20703" target-width="205.17297" target-x="618.135" target-y="565.993"></path><path d="M 599.84 568.52 C 599.09 577.64 598.26 601.18 601.14 609.61 C 607.17 627.06 627.27 622.32 647.10 626.19 C 652.75 627.29 658.44 628.08 664.36 628.16 C 668.88 628.21 673.42 627.86 677.98 627.44 C 704.16 625.13 730.39 621.95 756.47 621.64 C 774.79 621.41 793.65 622.51 811.17 615.97 C 812.72 615.38 814.30 614.73 815.64 613.78 C 818.19 611.98 819.70 609.19 820.71 606.46 C 824.94 594.86 821.27 582.27 813.05 573.78 C 804.82 565.28 792.58 560.50 779.88 558.68 C 767.16 556.81 753.90 557.68 740.78 559.05 C 727.45 560.45 714.06 562.43 701.12 566.49 C 684.03 571.81 599.84 568.52 599.84 568.52 Z" fill="#fff7e2" fill-rule="nonzero" node-id="173" stroke="none" target-height="71.40204" target-width="226.685" target-x="598.259" target-y="556.808"></path><path d="M 416.78 555.82 C 417.19 565.77 417.12 591.50 413.86 600.84 C 407.06 620.18 408.96 618.34 388.65 623.35 C 382.87 624.77 354.93 623.28 348.91 623.60 C 344.31 623.84 339.72 623.62 335.10 623.35 C 308.59 621.84 282.07 619.37 255.58 620.05 C 236.98 620.51 217.77 622.45 200.23 615.97 C 198.68 615.38 197.10 614.74 195.78 613.74 C 193.26 611.87 191.83 608.88 190.91 605.93 C 187.06 593.39 191.27 579.48 199.96 569.86 C 208.65 560.24 221.27 554.53 234.24 552.04 C 247.24 549.50 260.68 549.94 273.95 550.93 C 287.45 551.95 300.97 553.60 313.95 557.54 C 331.12 562.69 416.78 555.82 416.78 555.82 Z" fill="#fff7e2" fill-rule="nonzero" node-id="175" stroke="none" target-height="75.268005" target-width="230.134" target-x="187.055" target-y="549.503"></path><path d="M 609.59 555.82 C 609.18 565.77 609.25 591.50 612.51 600.84 C 619.31 620.18 617.41 618.34 637.72 623.35 C 643.50 624.77 671.44 623.28 677.46 623.60 C 682.06 623.84 686.65 623.62 691.27 623.35 C 717.78 621.84 744.30 619.37 770.79 620.05 C 789.39 620.51 808.60 622.45 826.14 615.97 C 827.69 615.38 829.27 614.74 830.60 613.74 C 833.12 611.87 834.54 608.88 835.47 605.93 C 839.32 593.39 835.10 579.48 826.41 569.86 C 817.72 560.24 805.10 554.53 792.13 552.04 C 779.13 549.50 765.69 549.94 752.42 550.93 C 738.92 551.95 725.40 553.60 712.42 557.54 C 695.25 562.69 609.59 555.82 609.59 555.82 Z" fill="#fff7e2" fill-rule="nonzero" node-id="177" stroke="none" target-height="75.268005" target-width="230.13397" target-x="609.182" target-y="549.503"></path><path d="M 512.24 764.70 L 512.24 794.90" fill="none" node-id="179" stroke="#4a4024" stroke-linecap="butt" stroke-width="4" target-height="30.208008" target-width="0" target-x="512.243" target-y="764.695"></path><path d="M 537.92 820.51 C 529.17 816.08 519.96 813.62 510.60 813.76 C 501.25 813.85 492.08 816.50 483.42 821.06 C 490.31 813.94 500.46 810.03 510.56 809.89 C 520.70 809.85 530.90 813.57 537.92 820.51 Z" fill="#4a4024" fill-rule="nonzero" node-id="181" stroke="none" target-height="11.217041" target-width="54.504974" target-x="483.42" target-y="809.847"></path><g node-id="261"><path d="M 537.80 820.45 C 530.21 817.50 518.82 816.66 510.69 816.75 C 502.57 816.81 491.14 817.89 483.62 820.94 C 491.51 815.35 501.93 811.85 510.69 811.75 C 519.50 811.72 531.70 815.82 537.80 820.45 Z" fill="#4a4024" fill-opacity="0.4" fill-rule="nonzero" group-id="1" node-id="185" stroke="none" target-height="9.213989" target-width="54.182007" target-x="483.623" target-y="811.722"></path></g><g node-id="262"><path d="M 539.15 735.33 C 533.84 733.84 529.19 734.49 525.00 736.44 C 517.13 740.07 508.01 740.07 500.14 736.44 C 495.95 734.49 491.30 733.84 485.99 735.33 C 471.89 739.33 469.93 749.34 477.52 760.18 C 481.85 766.37 492.65 771.63 501.17 775.03 C 508.52 777.96 516.66 777.96 524.02 775.03 C 532.49 771.63 543.29 766.37 547.62 760.18 C 555.21 749.34 553.30 739.33 539.15 735.33 Z" fill="#61494e" fill-opacity="0.3" fill-rule="nonzero" group-id="2" node-id="190" stroke="none" target-height="44.125" target-width="85.27103" target-x="469.934" target-y="733.837"></path></g><path d="M 539.24 732.72 C 533.93 731.23 529.23 731.88 525.04 733.84 C 517.18 737.47 507.96 737.47 500.10 733.84 C 495.91 731.88 491.21 731.23 485.90 732.72 C 471.75 736.72 469.80 746.73 477.38 757.57 C 481.76 763.76 492.60 769.02 501.12 772.42 C 508.47 775.36 516.71 775.36 524.07 772.42 C 532.59 769.02 543.38 763.76 547.76 757.57 C 555.35 746.73 553.44 736.72 539.24 732.72 Z" fill="#eb5d68" fill-rule="nonzero" node-id="193" stroke="none" target-height="44.125977" target-width="85.550995" target-x="469.795" target-y="731.229"></path><path d="M 512.57 769.07 C 508.99 769.07 505.45 768.37 502.14 767.07 C 490.79 762.56 482.78 757.62 479.66 753.20 C 477.24 749.76 474.68 744.68 476.26 740.21 C 477.80 735.93 482.73 733.70 486.64 732.58 C 488.32 732.12 490.00 731.88 491.62 731.88 C 494.09 731.88 496.51 732.44 498.93 733.56 C 503.17 735.51 507.87 736.54 512.57 736.54 C 517.27 736.54 521.97 735.51 526.21 733.56 C 528.63 732.44 531.05 731.88 533.51 731.88 C 535.14 731.88 536.77 732.12 538.50 732.58 C 542.40 733.70 547.38 735.89 548.88 740.17 C 550.46 744.64 547.90 749.71 545.43 753.15 C 542.31 757.58 534.35 762.46 523.00 767.02 C 519.69 768.37 516.15 769.07 512.57 769.07 Z" fill="#f59aa1" fill-rule="nonzero" node-id="195" stroke="none" target-height="37.190002" target-width="75.77597" target-x="474.681" target-y="731.883"></path><path d="M 513.92 753.25 C 513.59 753.34 513.27 753.34 512.94 753.25 C 507.17 751.62 497.63 748.03 495.07 744.87 C 493.58 743.01 492.88 741.28 493.30 740.26 C 493.67 739.33 495.30 738.45 497.72 737.84 C 498.51 737.65 499.21 737.56 499.96 737.56 C 500.42 737.56 501.07 737.70 501.82 737.98 C 509.50 740.77 517.97 740.12 525.88 737.75 C 526.30 737.61 526.63 737.56 526.95 737.56 C 527.65 737.56 528.44 737.65 529.23 737.84 C 531.61 738.45 533.24 739.33 533.61 740.26 C 533.98 741.24 533.33 742.96 531.84 744.82 C 529.23 748.03 519.69 751.62 513.92 753.25 Z" fill="#ffffff" fill-rule="nonzero" node-id="197" stroke="none" target-height="15.778015" target-width="41.09897" target-x="492.881" target-y="737.561"></path><path d="M 231.11 851.13 C 195.08 889.02 184.47 856.81 168.09 840.24 C 164.22 836.33 159.62 833.30 154.68 831.12 C 134.16 821.48 108.14 824.65 108.14 824.65 C 108.14 824.65 117.35 817.11 131.36 808.03 C 102.83 786.29 81.51 754.74 81.51 754.74 C 81.51 754.74 97.57 761.67 115.77 762.28 C 83.42 745.61 62.85 707.63 61.64 705.30 C 63.64 706.38 90.87 721.55 122.10 715.22 C 124.01 714.80 125.92 714.29 127.78 713.64" fill="#ffe7a8" fill-rule="nonzero" node-id="199" stroke="none" target-height="183.71503" target-width="169.47229" target-x="61.6387" target-y="705.305"></path><path d="M 231.11 851.13 L 224.97 857.79 C 222.69 859.74 220.54 861.98 218.03 863.70 C 213.19 867.38 207.28 870.31 200.72 870.26 C 199.04 870.45 197.50 869.79 195.88 869.56 C 194.29 869.14 192.85 868.35 191.31 867.75 C 189.96 866.86 188.57 866.07 187.31 865.09 C 186.10 864.07 184.84 863.09 183.73 862.02 C 179.21 857.69 175.49 852.81 171.62 848.34 C 167.76 843.78 163.85 839.82 158.97 836.98 C 154.17 834.14 148.63 832.14 143.14 830.74 C 132.01 828.04 119.96 827.58 108.70 828.74 L 95.20 830.14 L 105.62 821.57 C 109.44 818.41 113.26 815.52 117.17 812.68 C 121.08 809.85 125.03 807.10 129.08 804.45 L 128.80 811.57 C 118.84 803.93 109.72 795.42 101.30 786.29 C 97.06 781.78 93.06 777.03 89.15 772.19 C 85.24 767.35 81.56 762.46 77.98 757.20 L 69.55 744.91 L 83.38 750.69 C 85.80 751.71 88.54 752.69 91.24 753.52 C 93.94 754.36 96.69 755.11 99.43 755.71 C 104.93 757.02 110.51 757.85 116.05 758.18 L 114.00 765.95 C 107.90 762.60 102.18 758.69 96.87 754.32 C 91.61 749.89 86.77 745.05 82.30 739.98 C 77.84 734.86 73.69 729.51 69.88 723.92 C 66.06 718.34 62.57 712.66 59.45 706.47 L 55.45 698.55 L 63.08 702.98 C 67.88 705.72 73.00 707.96 78.21 709.91 C 83.47 711.82 88.87 713.36 94.36 714.38 C 105.39 716.34 116.89 716.48 127.97 713.68 C 117.26 717.73 105.44 718.48 93.94 717.31 C 82.44 716.06 71.09 712.89 60.57 707.63 L 64.15 704.14 C 67.32 709.63 71.13 715.12 75.04 720.29 C 78.95 725.50 83.14 730.49 87.61 735.23 C 92.08 739.93 96.87 744.26 101.85 748.31 C 106.88 752.27 112.28 755.71 117.86 758.64 L 133.83 766.98 L 115.86 766.42 C 109.67 766.23 103.58 765.49 97.62 764.18 C 94.64 763.53 91.71 762.74 88.77 761.86 C 85.84 760.97 83.05 760.00 80.02 758.78 L 85.42 752.27 C 88.77 757.06 92.50 761.90 96.27 766.56 C 100.08 771.21 104.04 775.73 108.09 780.15 C 116.19 789.04 124.89 797.28 134.25 804.59 L 139.14 808.40 L 133.97 811.71 C 130.01 814.27 126.10 816.87 122.24 819.53 C 118.42 822.18 114.56 824.97 110.93 827.81 L 107.86 820.60 C 120.52 819.57 132.90 820.36 145.09 823.86 C 151.15 825.67 157.01 828.00 162.46 831.53 C 168.00 834.98 172.32 840.05 175.95 844.85 C 179.68 849.69 183.07 854.62 186.99 858.86 C 190.80 863.14 195.50 866.72 201.04 867.14 C 206.53 867.61 212.31 865.47 217.24 862.21 C 219.80 860.72 222.08 858.72 224.55 857.04 L 231.11 851.13 Z" fill="#4a4024" fill-rule="nonzero" node-id="201" stroke="none" target-height="171.89203" target-width="175.6622" target-x="55.4478" target-y="698.555"></path><path d="M 107.06 768.93 C 111.97 773.84 128.05 775.51 138.19 775.84 C 140.67 775.92 143.12 776.50 145.24 777.79 C 154.81 783.61 164.96 792.86 146.62 794.53 C 128.89 793.60 111.91 775.91 107.06 768.93 Z" fill="#ffd360" fill-rule="nonzero" node-id="203" stroke="none" target-height="25.600037" target-width="57.902992" target-x="107.055" target-y="768.928"></path><path d="M 133.56 817.69 C 139.14 815.90 148.34 820.54 154.65 824.67 C 157.46 826.51 160.71 827.72 164.05 827.38 C 173.17 826.43 183.14 822.91 174.06 813.74 C 162.95 806.41 141.09 813.89 133.56 817.69 Z" fill="#ffd360" fill-rule="nonzero" node-id="205" stroke="none" target-height="21.312988" target-width="49.582" target-x="133.556" target-y="806.411"></path><path d="M 93.09 721.46 C 98.01 726.37 114.09 728.04 124.22 728.37 C 126.70 728.45 129.16 729.03 131.28 730.32 C 140.84 736.13 150.99 745.39 132.66 747.05 C 114.92 746.13 97.94 728.43 93.09 721.46 Z" fill="#ffd360" fill-rule="nonzero" node-id="207" stroke="none" target-height="25.599976" target-width="57.902603" target-x="93.0914" target-y="721.455"></path><path d="M 792.17 851.13 C 828.19 889.02 838.81 856.81 855.19 840.24 C 859.05 836.33 863.66 833.30 868.60 831.12 C 889.12 821.48 915.14 824.65 915.14 824.65 C 915.14 824.65 905.92 817.11 891.91 808.03 C 920.45 786.29 941.76 754.74 941.76 754.74 C 941.76 754.74 925.71 761.67 907.51 762.28 C 939.86 745.61 960.43 707.63 961.64 705.30 C 959.64 706.38 932.41 721.55 901.18 715.22 C 899.27 714.80 897.36 714.29 895.50 713.64" fill="#ffe7a8" fill-rule="nonzero" node-id="209" stroke="none" target-height="183.71503" target-width="169.47198" target-x="792.168" target-y="705.305"></path><path d="M 792.17 851.13 L 798.92 857.09 C 801.38 858.76 803.66 860.77 806.23 862.25 C 811.16 865.47 816.93 867.65 822.42 867.19 C 827.96 866.77 832.66 863.19 836.48 858.90 C 840.39 854.67 843.79 849.74 847.51 844.89 C 851.14 840.10 855.47 835.03 861.01 831.58 C 866.50 828.04 872.32 825.72 878.37 823.90 C 890.57 820.41 902.95 819.67 915.61 820.64 L 912.53 827.86 C 908.95 825.02 905.09 822.23 901.22 819.57 C 897.36 816.92 893.45 814.31 889.50 811.75 L 884.33 808.45 L 889.22 804.63 C 898.57 797.32 907.32 789.09 915.37 780.20 C 919.42 775.77 923.38 771.26 927.20 766.60 C 930.97 761.95 934.69 757.11 938.04 752.32 L 943.44 758.83 C 940.41 760.09 937.62 761.02 934.69 761.90 C 931.76 762.79 928.83 763.58 925.85 764.23 C 919.89 765.53 913.79 766.28 907.60 766.47 L 889.63 767.02 L 905.60 758.69 C 911.18 755.76 916.58 752.32 921.61 748.36 C 926.59 744.31 931.38 739.98 935.85 735.28 C 940.28 730.53 944.51 725.55 948.42 720.34 C 952.28 715.12 956.10 709.68 959.31 704.19 L 962.90 707.68 C 952.38 712.94 941.07 716.10 929.52 717.36 C 918.03 718.52 906.25 717.78 895.50 713.73 C 906.58 716.52 918.07 716.38 929.11 714.43 C 934.64 713.45 940.04 711.87 945.26 709.96 C 950.47 708.00 955.59 705.77 960.38 703.02 L 967.97 698.60 L 963.97 706.51 C 960.85 712.71 957.36 718.38 953.54 723.97 C 949.72 729.51 945.58 734.91 941.11 740.03 C 936.60 745.10 931.76 749.94 926.54 754.36 C 921.24 758.74 915.51 762.65 909.42 766.00 L 907.37 758.23 C 912.91 757.95 918.49 757.11 923.99 755.76 C 926.73 755.11 929.48 754.41 932.18 753.57 C 934.83 752.73 937.62 751.76 940.04 750.73 L 953.87 744.96 L 945.44 757.25 C 941.86 762.51 938.13 767.35 934.27 772.24 C 930.41 777.08 926.36 781.78 922.12 786.34 C 913.70 795.46 904.58 803.98 894.61 811.61 L 894.34 804.49 C 898.38 807.10 902.39 809.85 906.25 812.73 C 910.16 815.62 913.98 818.46 917.79 821.62 L 928.22 830.19 L 914.72 828.79 C 903.46 827.63 891.40 828.09 880.28 830.79 C 874.79 832.19 869.25 834.19 864.45 837.03 C 859.61 839.82 855.66 843.82 851.79 848.38 C 847.93 852.85 844.21 857.74 839.69 862.07 C 838.57 863.14 837.27 864.12 836.11 865.14 C 834.85 866.12 833.41 866.91 832.10 867.79 C 830.57 868.40 829.12 869.19 827.54 869.61 C 825.91 869.84 824.33 870.49 822.70 870.31 C 816.09 870.35 810.18 867.42 805.39 863.75 C 802.87 862.02 800.73 859.79 798.45 857.83 L 792.17 851.13 Z" fill="#4a4024" fill-rule="nonzero" node-id="211" stroke="none" target-height="171.89203" target-width="175.80194" target-x="792.168" target-y="698.602"></path><path d="M 920.16 768.93 C 915.24 773.84 899.16 775.51 889.03 775.85 C 886.55 775.93 884.09 776.50 881.97 777.79 C 872.41 783.61 862.26 792.86 880.59 794.53 C 898.33 793.60 915.31 775.91 920.16 768.93 Z" fill="#ffd360" fill-rule="nonzero" node-id="213" stroke="none" target-height="25.600037" target-width="57.90204" target-x="862.256" target-y="768.93"></path><path d="M 893.66 817.69 C 888.07 815.90 878.88 820.54 872.57 824.67 C 869.76 826.51 866.51 827.72 863.17 827.38 C 854.04 826.43 844.08 822.91 853.15 813.74 C 864.26 806.41 886.13 813.89 893.66 817.69 Z" fill="#ffd360" fill-rule="nonzero" node-id="215" stroke="none" target-height="21.312988" target-width="49.58197" target-x="844.075" target-y="806.411"></path><path d="M 934.12 721.46 C 929.21 726.37 913.13 728.04 902.99 728.37 C 900.51 728.45 898.05 729.03 895.93 730.32 C 886.37 736.13 876.22 745.39 894.56 747.06 C 912.29 746.13 929.27 728.44 934.12 721.46 Z" fill="#ffd360" fill-rule="nonzero" node-id="217" stroke="none" target-height="25.600037" target-width="57.903015" target-x="876.219" target-y="721.457"></path><path d="M 450.51 299.75 C 376.13 305.29 350.11 245.71 350.11 245.71 C 350.11 245.71 369.66 234.31 370.69 236.78 C 385.54 271.50 408.81 295.80 450.51 299.75 Z" fill="#ffd360" fill-rule="nonzero" node-id="219" stroke="none" target-height="70.98201" target-width="100.39798" target-x="350.114" target-y="234.308"></path><path d="M 509.67 379.34 C 552.50 360.73 538.38 309.53 525.96 286.25 L 553.89 221.09 L 553.95 221.20 C 559.37 230.47 565.09 240.29 572.51 269.96 C 581.82 307.20 553.89 372.36 509.67 379.34 Z" fill="#ffefc6" fill-rule="nonzero" node-id="221" stroke="none" target-height="158.254" target-width="72.14499" target-x="509.673" target-y="221.09"></path><path d="M 474.76 344.44 C 517.59 325.82 503.47 274.62 491.06 251.34 L 518.98 186.18 L 519.04 186.29 C 524.46 195.57 530.18 205.38 537.60 235.05 C 546.91 272.29 518.98 337.45 474.76 344.44 Z" fill="#ffd360" fill-rule="nonzero" node-id="223" stroke="none" target-height="158.254" target-width="72.145966" target-x="474.764" target-y="186.182"></path><path d="M 583.89 298.00 C 589.18 251.61 537.78 238.24 511.42 237.35 L 468.95 180.58 L 469.07 180.58 C 479.81 180.53 491.17 180.48 520.58 188.90 C 557.48 199.45 599.95 256.22 583.89 298.00 Z" fill="#ffe49d" fill-rule="nonzero" node-id="225" stroke="none" target-height="117.520996" target-width="131.00601" target-x="468.946" target-y="180.483"></path><path d="M 397.96 235.05 C 364.45 188.51 376.24 136.53 386.33 116.36 C 404.95 172.22 444.51 167.56 488.73 174.54 C 532.95 181.53 543.66 179.49 560.87 200.15 C 572.51 214.11 574.84 265.31 512.00 293.24 C 402.62 330.47 363.06 232.73 358.40 209.45 C 365.38 223.42 397.96 237.38 397.96 235.05 Z" fill="#ffe7a8" fill-rule="nonzero" node-id="227" stroke="none" target-height="214.10898" target-width="216.43698" target-x="358.4" target-y="116.363"></path><path d="M 505.82 295.61 C 489.72 299.75 473.19 302.78 456.34 302.73 C 439.59 302.78 422.27 299.29 407.52 290.35 C 392.62 281.65 380.99 268.15 372.61 253.35 C 364.14 238.50 358.46 222.44 353.94 206.24 L 347.57 183.48 L 361.06 202.98 C 365.35 209.13 370.79 214.43 377.08 218.48 C 383.36 222.53 390.43 225.33 397.79 226.81 L 393.88 234.17 C 385.83 226.26 379.54 216.62 375.40 206.15 C 371.26 195.72 369.16 184.65 368.60 173.61 C 368.05 162.58 369.02 151.55 370.98 140.80 C 372.98 130.05 376.00 119.48 380.15 109.29 L 390.48 83.78 L 388.53 111.15 C 387.83 120.92 390.95 130.23 397.60 137.17 C 404.17 144.20 413.43 148.99 423.02 152.57 C 442.47 159.70 463.46 163.33 484.32 167.38 C 494.74 169.43 505.21 171.57 515.64 174.17 C 526.02 176.83 536.40 180.08 546.04 185.16 C 555.53 190.18 564.51 198.10 567.73 208.80 C 570.84 219.55 567.82 230.54 563.91 240.27 C 567.21 230.26 569.22 219.28 565.82 209.41 C 562.28 199.59 553.72 192.79 544.36 188.41 C 525.28 179.94 504.05 177.01 483.20 173.52 C 462.30 169.98 440.98 167.14 420.32 159.93 C 410.08 156.25 399.74 151.32 391.55 142.89 C 390.57 141.82 389.50 140.85 388.57 139.68 L 386.11 136.00 C 384.24 133.68 383.45 130.70 382.20 128.00 C 381.12 125.21 380.80 122.27 380.15 119.39 C 379.96 116.50 379.92 113.57 379.87 110.69 L 388.25 112.59 C 380.71 131.77 376.70 152.72 377.63 173.15 C 378.10 183.39 380.01 193.49 383.69 202.89 C 387.36 212.29 392.90 220.86 400.02 227.93 L 410.36 238.27 L 396.11 235.29 C 379.40 231.84 364.04 221.69 354.59 207.41 L 361.72 204.15 C 365.95 220.02 371.02 235.71 378.70 250.04 C 386.34 264.29 396.76 277.13 410.36 285.88 C 423.90 294.63 440.14 299.01 456.57 299.80 C 472.91 300.64 489.44 298.50 505.82 295.61 Z" fill="#4a4024" fill-rule="nonzero" node-id="229" stroke="none" target-height="218.99683" target-width="223.27798" target-x="347.566" target-y="83.7812"></path><path d="M 384.85 137.22 C 388.57 145.92 394.58 153.09 401.88 157.93 C 403.70 159.14 405.61 160.21 407.56 161.10 L 413.85 163.84 C 418.08 165.56 422.32 167.19 426.65 168.59 C 443.92 174.32 461.98 177.48 480.22 179.57 C 498.23 181.58 518.02 182.04 536.45 189.54 C 541.06 191.35 545.52 193.87 549.53 197.08 C 553.48 200.33 556.93 204.48 558.84 209.27 C 562.79 218.91 561.44 228.96 559.12 237.94 C 559.39 228.63 558.79 218.95 554.27 211.55 C 549.90 204.10 541.94 200.01 533.61 197.40 C 525.14 194.84 516.11 193.68 507.03 192.79 C 502.47 192.38 497.95 192.19 493.21 191.96 C 488.51 191.63 483.76 191.35 479.06 190.89 C 460.11 189.12 441.08 184.97 423.34 177.43 C 418.92 175.53 414.59 173.34 410.36 171.06 L 404.17 167.29 C 402.07 165.94 400.02 164.35 398.16 162.68 C 390.85 155.84 385.87 146.71 384.85 137.22 Z" fill="#fff9ea" fill-rule="nonzero" node-id="231" stroke="none" target-height="100.724" target-width="177.94302" target-x="384.85" target-y="137.219"></path><path d="M 206.02 354.07 C 171.53 400.43 147.14 442.27 132.06 479.79 C 127.41 491.43 110.70 490.77 106.97 478.67 C 106.97 478.58 106.88 478.35 106.88 478.21 C 91.94 430.03 54.75 309.43 60.85 265.54 C 61.64 259.44 66.48 254.70 72.62 254.14 C 73.41 254.04 74.30 254.04 75.23 253.90 C 71.60 262.51 71.74 272.43 72.76 281.83 C 74.58 298.36 79.09 314.51 83.51 330.56 C 91.33 358.26 99.01 385.95 107.39 413.56 C 110.23 422.96 114.61 433.66 124.10 435.94 C 130.99 437.53 137.88 433.80 143.42 429.38 C 158.78 416.95 167.95 398.75 179.58 382.79 C 187.26 372.27 196.20 362.54 206.02 354.07 Z" fill="#f59aa1" fill-rule="nonzero" node-id="233" stroke="none" target-height="237.52199" target-width="151.2731" target-x="54.7489" target-y="253.904"></path><path d="M 821.68 354.07 C 856.17 400.43 880.56 442.27 895.64 479.79 C 900.29 491.43 917.00 490.77 920.73 478.67 C 920.73 478.58 920.82 478.35 920.82 478.21 C 935.76 430.03 972.95 309.43 966.86 265.54 C 966.06 259.44 961.22 254.70 955.08 254.14 C 954.29 254.04 953.40 254.04 952.47 253.90 C 956.10 262.51 955.96 272.43 954.94 281.83 C 953.12 298.36 948.61 314.51 944.19 330.56 C 936.37 358.26 928.69 385.95 920.31 413.56 C 917.47 422.96 913.10 433.66 903.60 435.94 C 896.71 437.53 889.82 433.80 884.28 429.38 C 868.92 416.95 859.75 398.75 848.12 382.79 C 840.44 372.27 831.50 362.54 821.68 354.07 Z" fill="#f59aa1" fill-rule="nonzero" node-id="235" stroke="none" target-height="237.52199" target-width="151.27203" target-x="821.68" target-y="253.904"></path><path d="M 937.81 251.58 C 921.89 251.25 906.86 258.37 892.85 265.91 C 877.67 274.06 862.78 282.81 848.30 292.17 C 847.00 293.00 845.65 293.93 844.90 295.28 C 843.55 297.84 844.95 301.01 846.81 303.24 C 851.98 309.57 860.96 312.55 868.88 310.55 C 860.31 312.13 851.75 313.72 843.18 315.35 C 855.70 319.39 863.85 333.82 860.87 346.67 C 857.01 345.46 853.79 342.90 850.21 340.99 C 846.63 339.13 842.25 337.97 838.62 339.78 C 835.08 341.55 833.32 345.74 833.36 349.70 C 833.41 353.65 834.99 357.38 836.67 360.96 C 847.51 383.77 864.69 404.62 867.29 429.75 C 867.52 432.13 867.57 434.73 866.08 436.60 C 863.01 440.41 856.87 437.95 852.96 434.97 C 823.40 412.39 806.74 377.30 785.42 346.86 C 777.13 334.99 767.73 323.02 765.73 308.69 C 765.22 304.87 765.26 300.78 767.03 297.33 C 768.48 294.49 770.94 292.35 773.41 290.35 C 797.01 270.80 824.19 255.53 853.14 245.48 C 862.78 242.13 872.64 239.38 882.75 237.94 C 891.08 236.73 899.55 236.45 907.97 236.36 C 915.00 236.31 922.03 236.40 929.01 236.64 C 933.29 236.78 937.81 237.06 941.53 239.20 C 945.26 241.34 948.00 245.90 946.56 250.00 C 945.16 254.04 938.55 255.49 936.46 251.76" fill="#ffd360" fill-rule="nonzero" node-id="237" stroke="none" target-height="204.10199" target-width="182.784" target-x="765.219" target-y="236.311"></path><path d="M 958.80 255.72 C 946.00 251.91 932.64 254.05 920.59 258.56 C 908.44 263.08 896.34 268.33 884.89 274.81 L 850.35 293.94 C 847.79 295.47 847.42 296.26 847.42 298.12 C 847.51 299.94 848.72 302.27 850.40 303.52 C 851.89 304.73 854.54 305.62 857.24 305.85 C 860.03 306.13 863.10 305.94 866.32 305.66 L 883.91 304.22 L 869.06 313.76 C 859.71 319.77 848.44 322.75 837.32 321.91 L 838.58 313.02 C 846.25 314.69 852.96 319.16 857.80 325.03 C 862.59 330.89 865.71 338.34 865.76 346.16 L 865.80 350.44 L 861.66 350.49 C 857.19 350.53 853.70 348.53 851.10 346.86 C 848.44 345.13 846.21 343.32 844.21 342.34 C 842.21 341.32 840.76 341.37 839.51 341.97 C 838.20 342.67 837.04 344.53 836.62 346.49 C 835.74 350.49 838.02 355.84 840.34 361.10 C 842.67 366.36 845.32 371.48 847.98 376.69 C 850.63 381.81 853.52 387.03 856.08 392.38 C 858.64 397.69 860.92 403.13 863.24 408.53 C 867.85 419.33 872.32 430.13 877.49 440.65 C 871.06 430.82 865.76 420.26 860.26 409.93 C 854.77 399.50 849.28 389.49 842.95 379.49 C 839.88 374.46 836.99 369.29 834.29 363.94 C 832.99 361.24 831.64 358.63 830.52 355.51 C 829.45 352.44 828.61 348.95 829.22 345.09 C 829.87 341.32 831.73 337.59 835.50 335.22 C 839.32 332.71 844.49 333.36 847.65 334.94 C 850.96 336.48 853.33 338.39 855.61 339.74 C 857.89 341.18 859.89 341.92 861.34 341.83 L 857.24 346.20 C 857.05 340.57 854.77 334.94 851.05 330.52 C 847.33 326.10 842.25 322.84 836.76 321.72 L 838.02 312.83 C 847.14 313.44 856.59 311.16 864.36 306.22 L 867.06 314.32 C 863.76 314.55 860.17 314.79 856.40 314.42 C 852.59 313.95 848.58 312.97 844.95 309.99 C 841.60 307.06 839.37 303.06 839.18 298.26 C 839.09 295.89 839.78 293.24 841.32 291.14 C 842.86 288.95 844.86 287.79 846.44 286.86 C 858.36 280.67 870.04 274.94 881.86 269.03 C 893.68 263.21 906.39 258.33 919.42 254.79 C 932.23 251.40 946.56 250.19 958.80 255.72 Z" fill="#4a4024" fill-rule="nonzero" node-id="239" stroke="none" target-height="190.461" target-width="130.18896" target-x="828.614" target-y="250.185"></path><path d="M 90.82 250.46 C 106.74 250.13 121.77 257.25 135.78 264.80 C 150.96 272.94 165.85 281.69 180.33 291.05 C 181.63 291.88 182.98 292.81 183.73 294.17 C 185.08 296.73 183.68 299.89 181.82 302.12 C 176.65 308.45 167.67 311.43 159.75 309.43 C 168.32 311.01 176.88 312.60 185.45 314.23 C 172.93 318.27 164.78 332.70 167.76 345.55 C 171.62 344.34 174.84 341.78 178.42 339.87 C 182.00 338.01 186.38 336.85 190.01 338.66 C 193.55 340.43 195.32 344.62 195.27 348.58 C 195.22 352.53 193.64 356.26 191.96 359.84 C 181.12 382.65 163.94 403.50 161.34 428.63 C 161.10 431.01 161.06 433.62 162.55 435.48 C 165.62 439.29 171.76 436.83 175.67 433.85 C 205.23 411.27 221.89 376.18 243.21 345.74 C 251.50 333.87 260.90 321.91 262.90 307.57 C 263.41 303.75 263.37 299.66 261.60 296.21 C 260.15 293.37 257.69 291.23 255.22 289.23 C 231.62 269.68 204.44 254.41 175.49 244.36 C 165.85 241.01 155.99 238.26 145.88 236.82 C 137.55 235.61 129.08 235.33 120.66 235.24 C 113.63 235.19 106.60 235.28 99.62 235.52 C 95.34 235.66 90.82 235.94 87.10 238.08 C 83.37 240.22 80.63 244.78 82.07 248.88 C 83.47 252.93 90.08 254.37 92.17 250.65" fill="#ffd360" fill-rule="nonzero" node-id="241" stroke="none" target-height="204.101" target-width="182.7844" target-x="80.6276" target-y="235.192"></path><path d="M 67.83 255.58 C 80.07 250.04 94.40 251.25 107.20 254.79 C 120.19 258.33 134.90 262.24 146.77 268.05 C 158.59 274.01 170.32 279.74 182.19 285.88 C 183.82 286.76 185.82 287.98 187.31 290.16 C 188.84 292.26 189.54 294.91 189.45 297.28 C 189.26 302.08 187.08 306.08 183.68 309.01 C 180.05 311.99 176.04 312.97 172.23 313.44 C 168.41 313.81 164.87 313.57 161.57 313.34 L 164.27 305.24 C 172.04 310.18 181.49 312.46 190.61 311.85 L 191.87 320.74 C 186.43 321.86 181.31 325.12 177.58 329.54 C 173.86 333.96 171.58 339.59 171.39 345.23 L 167.29 340.85 C 168.78 340.94 170.79 340.20 173.02 338.76 C 175.35 337.36 177.67 335.45 180.98 333.96 C 184.14 332.33 189.26 331.73 193.13 334.24 C 196.90 336.66 198.76 340.38 199.41 344.11 C 200.02 347.97 199.18 351.46 198.11 354.54 C 196.99 357.61 195.64 360.26 194.34 362.96 C 191.64 368.31 188.75 373.48 185.68 378.51 C 179.35 388.51 173.86 398.47 168.37 408.95 C 162.87 419.28 157.57 429.80 151.14 439.67 C 156.31 429.10 160.78 418.35 165.39 407.55 C 167.71 402.15 169.99 396.75 172.55 391.40 C 175.07 386.05 177.95 380.83 180.61 375.71 C 183.26 370.55 185.91 365.38 188.24 360.12 C 190.57 354.86 192.85 349.51 191.96 345.50 C 191.54 343.55 190.38 341.69 189.08 340.99 C 187.82 340.34 186.38 340.34 184.38 341.36 C 182.38 342.29 180.14 344.15 177.49 345.88 C 174.88 347.60 171.39 349.60 166.92 349.51 L 162.78 349.46 L 162.83 345.18 C 162.87 337.36 165.99 329.91 170.79 324.05 C 175.58 318.18 182.33 313.71 190.01 312.04 L 191.27 320.93 C 180.14 321.77 168.88 318.79 159.52 312.78 L 144.67 303.24 L 162.27 304.69 C 165.53 304.96 168.60 305.15 171.34 304.87 C 174.04 304.64 176.70 303.75 178.19 302.54 C 179.86 301.29 181.07 298.96 181.16 297.14 C 181.16 295.28 180.79 294.49 178.23 292.95 L 143.70 273.82 C 132.25 267.36 118.19 263.08 105.99 258.56 C 93.99 253.86 80.63 251.77 67.83 255.58 Z" fill="#4a4024" fill-rule="nonzero" node-id="243" stroke="none" target-height="189.62299" target-width="132.1889" target-x="67.8271" target-y="250.043"></path><path d="M 726.11 812.22 C 726.11 828.93 712.56 842.47 695.86 842.47 C 679.15 842.47 665.60 828.93 665.60 812.22 C 665.60 795.51 679.15 781.96 695.86 781.96 C 712.56 781.96 726.11 795.51 726.11 812.22 Z" fill="#ffced2" fill-rule="nonzero" filter="url(#filter0_f_47_9095)" group-id="3" node-id="247" stroke="none" target-height="60.509033" target-width="60.508972" target-x="665.6005" target-y="781.9645"></path><path d="M 353.75 812.22 C 353.75 828.93 340.20 842.47 323.49 842.47 C 306.78 842.47 293.24 828.93 293.24 812.22 C 293.24 795.51 306.78 781.96 323.49 781.96 C 340.20 781.96 353.75 795.51 353.75 812.22 Z" fill="#ffced2" fill-rule="nonzero" filter="url(#filter1_f_47_9095)" group-id="4" node-id="252" stroke="none" target-height="60.509033" target-width="60.509003" target-x="293.2365" target-y="781.9645"></path><path d="M 421.24 642.33 C 408.96 624.82 388.92 614.40 367.54 614.40 L 342.31 614.40 L 312.63 614.40 L 282.96 614.40 L 253.67 614.40 L 225.89 614.40 C 221.16 614.40 216.47 615.09 211.94 616.45 L 200.28 619.95 C 197.18 620.88 194.50 622.84 192.67 625.51 L 192.67 625.51 C 189.39 630.31 188.19 636.23 189.32 641.93 L 189.87 644.65 L 189.87 644.65 C 192.69 634.77 201.13 627.50 211.32 626.17 L 213.16 625.93 C 220.12 625.03 227.14 624.66 234.16 624.83 L 282.96 626.04 L 312.63 626.62 L 342.31 627.20 L 377.60 627.89 C 393.27 628.20 408.48 633.23 421.24 642.33 L 421.24 642.33 L 421.24 642.33 Z" fill="#4a4024" fill-rule="nonzero" node-id="255" stroke="none" target-height="30.255005" target-width="233.051" target-x="188.185" target-y="614.4"></path><path d="M 605.13 642.33 C 617.41 624.82 637.45 614.40 658.83 614.40 L 684.06 614.40 L 713.74 614.40 L 743.41 614.40 L 772.70 614.40 L 800.48 614.40 C 805.21 614.40 809.90 615.09 814.43 616.45 L 826.09 619.95 C 829.19 620.88 831.88 622.84 833.70 625.51 L 833.70 625.51 C 836.98 630.31 838.19 636.23 837.05 641.93 L 836.50 644.65 L 836.50 644.65 C 833.68 634.77 825.24 627.50 815.05 626.17 L 813.21 625.93 C 806.25 625.03 799.23 624.66 792.21 624.83 L 743.41 626.04 L 713.74 626.62 L 684.06 627.20 L 648.77 627.89 C 633.10 628.20 617.89 633.23 605.13 642.33 L 605.13 642.33 L 605.13 642.33 Z" fill="#4a4024" fill-rule="nonzero" node-id="257" stroke="none" target-height="30.255005" target-width="233.052" target-x="605.134" target-y="614.4"></path><path d="M 562.85 811.59 C 552.41 802.15 534.53 795.93 514.21 795.93 C 493.90 795.93 476.02 802.15 465.58 811.58 C 474.06 799.59 492.64 791.27 514.21 791.27 C 535.78 791.27 554.38 799.60 562.85 811.59 Z" fill="#4a4024" fill-rule="evenodd" node-id="259" stroke="none" target-height="20.312988" target-width="97.270966" target-x="465.579" target-y="791.273"></path></svg>