<svg width="1500" height="1500" xmlns="http://www.w3.org/2000/svg">
 <defs>
  <radialGradient gradientTransform="matrix(0,624.2340087890625,-624.2340087890625,0,729.0245361328125,744.4273681640625)" gradientUnits="userSpaceOnUse" r="1" cy="0" cx="0" id="svg_4">
   <stop stop-color="#151515" offset="0.80267"/>
   <stop offset="0.93165"/>
  </radialGradient>
  <linearGradient gradientTransform="matrix(1,0,0,1,65.52251434326172,81.31641387939453)" gradientUnits="userSpaceOnUse" y2="1292.12" x2="663.51" y1="34.0527" x1="663.51" id="svg_3">
   <stop stop-color="#858787"/>
   <stop stop-color="#828586" offset="0.15104"/>
   <stop stop-color="#989B9C" offset="0.32292"/>
   <stop stop-color="#ABADAE" offset="0.45857"/>
   <stop stop-color="#9FA2A3" offset="0.57548"/>
   <stop stop-color="#606566" offset="0.76042"/>
   <stop stop-color="#525555" offset="0.87717"/>
   <stop stop-color="#596161" offset="1"/>
  </linearGradient>
  <radialGradient gradientTransform="matrix(0,629.0330200195312,-629.0330200195312,0,729.032470703125,744.4013671875)" gradientUnits="userSpaceOnUse" r="1" cy="0" cx="0" id="svg_2">
   <stop stop-color="white" offset="0.9389"/>
   <stop stop-opacity="0.6" stop-color="white" offset="1"/>
  </radialGradient>
  <linearGradient gradientTransform="matrix(1,0,0,1,65.52251434326172,81.31641387939453)" gradientUnits="userSpaceOnUse" y2="1049.03" x2="664.909" y1="285.639" x1="664.909" id="svg_1">
   <stop stop-color="#858787"/>
   <stop stop-color="#828586" offset="0.15104"/>
   <stop stop-color="#989B9C" offset="0.32292"/>
   <stop stop-color="#ABADAE" offset="0.45857"/>
   <stop stop-color="#9FA2A3" offset="0.57548"/>
   <stop stop-color="#606566" offset="0.76042"/>
   <stop stop-color="#525555" offset="0.87717"/>
   <stop stop-color="#596161" offset="1"/>
  </linearGradient>
  <filter height="200%" width="200%" y="-50%" x="-50%" id="svg_13_blur">
   <feGaussianBlur stdDeviation="8.2" in="SourceGraphic"/>
  </filter>
 </defs>
 <g>
  <title>Layer 1</title>
  <g>
   <circle fill="url(#svg_4)" r="624.23401" cy="744.4274" cx="730.0245"/>
   <path fill="#313131" d="m730.0325,1319.3564c326.026,0 590.32,-264.298 590.32,-590.324c0,-326.026 -264.294,-590.3227 -590.32,-590.3227c-326.026,0 -590.3228,264.2967 -590.3228,590.3227c0,326.026 264.2968,590.324 590.3228,590.324zm0,38.71c347.41,0 629.03,-281.629 629.03,-629.034c0,-347.405 -281.62,-629.0324 -629.03,-629.0324c-347.405,0 -629.0325,281.6274 -629.0325,629.0324c0,347.405 281.6275,629.034 629.0325,629.034z" clip-rule="evenodd" fill-rule="evenodd"/>
   <path fill="url(#svg_3)" d="m730.0325,1334.7264c326.026,0 590.32,-264.298 590.32,-590.325c0,-326.026 -264.294,-590.3226 -590.32,-590.3226c-326.026,0 -590.3228,264.2966 -590.3228,590.3226c0,326.027 264.2968,590.325 590.3228,590.325zm0,38.71c347.41,0 629.03,-281.63 629.03,-629.035c0,-347.405 -281.62,-629.0323 -629.03,-629.0323c-347.405,0 -629.0325,281.6273 -629.0325,629.0323c0,347.405 281.6275,629.035 629.0325,629.035z" clip-rule="evenodd" fill-rule="evenodd"/>
   <path fill="url(#svg_2)" d="m1325.1525,744.4014c0,328.676 -266.444,595.125 -595.12,595.125c-328.676,0 -595.1209,-266.449 -595.1209,-595.125c0,-328.676 266.4449,-595.1207 595.1209,-595.1207c328.676,0 595.12,266.4447 595.12,595.1207zm-595.12,624.235c344.76,0 624.23,-279.48 624.23,-624.235c0,-344.755 -279.47,-624.2342 -624.23,-624.2342c-344.755,0 -624.2343,279.4792 -624.2343,624.2342c0,344.755 279.4793,624.235 624.2343,624.235zm590.32,-624.235c0,326.027 -264.294,590.325 -590.32,590.325c-326.026,0 -590.3228,-264.298 -590.3228,-590.325c0,-326.026 264.2968,-590.3226 590.3228,-590.3226c326.026,0 590.32,264.2966 590.32,590.3226zm38.71,0c0,347.405 -281.62,629.035 -629.03,629.035c-347.405,0 -629.0325,-281.63 -629.0325,-629.035c0,-347.405 281.6275,-629.0323 629.0325,-629.0323c347.41,0 629.03,281.6273 629.03,629.0323z" clip-rule="evenodd" fill-rule="evenodd"/>
   <g filter="url(#svg_5)">
    <path fill="#313131" d="m1099.6725,822.9674c-51.704,52.482 -108.465,105.649 -149.803,82.692c-0.301,-28.571 -2.256,-217.037 -2.256,-297.994c0,-117.922 112.906,-205.833 112.906,-205.833l-0.078,0l-10.478,-11.516l-0.077,0c-62.034,11.071 -136.514,32.866 -215.467,109.821c-6.028,5.902 -12.912,13.309 -20.263,22.142c-33.953,-25.845 -77.863,-18.014 -77.863,-18.014l10.556,11.515c4.486,2.448 8.974,5.783 13.302,9.793c13.525,17.166 23.552,40.168 23.552,60.431l0,306.435c0,0 -51.727,45.132 -91.631,45.132c-16.206,0 -28.146,-6.036 -36.604,-13.206c-4.727,-6.573 -6.746,-11.847 -6.746,-11.847l0,-378.453l-10.556,-11.516c-6.436,5.267 -21.238,9.971 -33.348,2.495c-4.659,-8.408 -7.706,-20.906 -7.706,-39.004c0,-40.696 29.636,-89.3 82.297,-119.08l-10.556,-11.515c-53.322,8.332 -122.862,28.506 -194.309,89.531c-57.211,48.835 -132.352,147.084 -132.507,290.967l10.555,11.515c0,0 37.338,-119.426 85.604,-130.381c16.802,-3.806 30.6,0.297 40.585,8.077c5.474,8.381 8.103,18.053 7.431,26.619l0,280.436c0,28.43 -18.513,34.64 -35.548,34.331c-14.546,-0.27 -35.081,-5.4 -35.081,-5.4c10.627,14.467 21.745,27.653 33.203,39.665c96.175,109.171 220.704,129.831 278.616,129.541l108.061,-107.675l53.951,59.935c0.044,-0.02 0.089,-0.04 0.133,-0.06l10.423,11.58c152.732,-73.098 199.322,-209.767 210.252,-259.644l-10.55,-11.515z"/>
   </g>
   <path fill="url(#svg_1)" d="m1110.2425,834.4764c-10.92,49.877 -57.518,186.546 -210.25,259.64l-64.406,-71.551l-108.161,107.781c-62.579,0.3 -202.943,-23.84 -301.264,-157.696c0,0 20.535,5.13 35.081,5.4c17.035,0.309 35.548,-5.902 35.548,-34.331l0,-280.436c1.828,-23.299 -20.768,-54.776 -58.572,-46.212c-48.266,10.955 -85.603,130.381 -85.603,130.381c0.155,-143.882 75.296,-242.131 132.508,-290.966c71.446,-61.025 140.986,-81.199 194.308,-89.531c-52.661,29.779 -82.297,78.383 -82.297,119.079c0,65.422 39.826,57.669 51.611,48.025l0,378.453c0,0 2.333,6.095 7.856,13.347c7.934,10.454 22.48,23.222 46.049,23.222c39.904,0 91.631,-45.132 91.631,-45.132l0,-306.435c0,-31.168 -23.724,-68.817 -47.41,-81.739c0,0 43.91,-7.831 77.863,18.014c7.351,-8.834 14.235,-16.24 20.264,-22.142c78.952,-76.956 153.432,-98.75 215.466,-109.821l0.078,0c0,0 -112.906,87.911 -112.906,205.833c0,87.718 2.294,301.652 2.294,301.652c41.849,40.156 104.078,-17.745 160.312,-74.835z" clip-rule="evenodd" fill-rule="evenodd"/>
   <path fill-opacity="0.7" fill="#E1E2E2" d="m899.9925,1094.1164c144.336,-69.076 193.88,-194.929 208.12,-250.652c0.83,-3.242 1.53,-6.246 2.13,-8.988c-2.14,2.18 -4.3,4.361 -6.46,6.537c-54.497,54.832 -113.601,106.92 -153.852,68.298c0,0 -2.294,-213.934 -2.294,-301.652c0,-99.465 80.327,-177.578 105.473,-199.594c4.212,-3.688 6.876,-5.802 7.355,-6.178c0.003,-0.003 0.006,-0.005 0.009,-0.008c0.046,-0.035 0.068,-0.053 0.068,-0.053l-0.077,0c-3.146,0.561 -6.324,1.15 -9.533,1.773c-60.067,11.65 -130.985,34.995 -205.933,108.048c-6.029,5.902 -12.913,13.308 -20.264,22.142c-25.25,-19.221 -56.008,-19.816 -70.116,-18.859c-4.862,0.33 -7.747,0.845 -7.747,0.845c2.133,1.164 4.267,2.528 6.384,4.071c21.383,15.581 41.026,49.307 41.026,77.668l0,306.435c0,0 -51.727,45.132 -91.631,45.132c-23.569,0 -38.115,-12.768 -46.049,-23.222c-5.523,-7.252 -7.856,-13.347 -7.856,-13.347l0,-378.453c-1.293,1.057 -2.922,2.092 -4.799,3.01c-15.241,7.454 -46.812,7.214 -46.812,-51.035c0,-37.754 25.506,-82.314 71.24,-112.336c3.564,-2.34 7.25,-4.591 11.057,-6.743c-4.193,0.655 -8.486,1.383 -12.873,2.199c-51.397,9.558 -115.607,31.106 -181.435,87.332c-55.108,47.039 -126.85,139.924 -132.191,275.276c-0.204,5.168 -0.312,10.398 -0.317,15.69c0,0 1.786,-5.713 5.082,-14.756c11.774,-32.299 42.812,-107.066 80.521,-115.625c37.804,-8.564 60.4,22.913 58.572,46.212l0,280.436c0,28.429 -18.513,34.64 -35.548,34.331c-9.121,-0.169 -20.598,-2.25 -27.889,-3.778c-4.336,-0.909 -7.192,-1.622 -7.192,-1.622c1.473,2.005 2.956,3.986 4.448,5.943c98.062,128.623 235.175,152.053 296.816,151.753l108.161,-107.781l64.406,71.551zm-179.074,28.83l112.755,-110.836l63.815,71.016c120.913,-63.819 167.454,-146.827 195.764,-223.596c-24.4,24.277 -41.811,38.463 -66.102,52.951c-14.238,8.493 -28.476,14.165 -42.168,14.897c-13.91,0.743 -29.523,-0.744 -40.952,-11.711c0,0 -5.641,-5.277 -5.641,-12.251c-0.016,-1.589 -0.041,-3.93 -0.072,-6.941c-0.063,-6.022 -0.153,-11.2 -0.26,-21.914c-0.216,-21.428 -0.502,-50.913 -0.789,-83.139c-0.574,-64.445 -1.148,-141.799 -1.148,-185.682c0,-60.471 24.965,-105.906 53.492,-143.014c14.817,-19.275 28.401,-33.624 46.062,-49.901c-57.696,12.065 -116.526,33.249 -187.323,102.254c-5.903,5.779 -12.675,13.063 -19.928,21.779l-2.939,3.531l-4.286,-1.373c-16.793,-11.036 -28.977,-15.566 -43.663,-16.794c-4.492,-0.375 -10.382,-0.065 -13.914,0c8.622,7.307 13.541,14.352 19.959,25.124c9.186,15.417 15.499,33.469 15.499,50.168l0,308.616l-1.643,1.434l-3.155,-3.615c3.155,3.615 3.153,3.617 3.153,3.617l-0.003,0.003l-0.01,0.008l-0.034,0.029c-0.028,0.025 -0.07,0.061 -0.123,0.107c-0.107,0.092 -0.262,0.225 -0.464,0.397c-0.405,0.345 -0.997,0.844 -1.762,1.476c-1.528,1.263 -3.745,3.059 -6.528,5.211c-5.56,4.298 -13.401,10.034 -22.524,15.778c-17.999,11.333 -41.915,23.304 -63.336,23.304c-25.565,0 -47.131,-15.507 -55.623,-26.696c-3.577,-4.697 -10.392,-12.144 -10.392,-19.073l2.235,-354.22c0,0 0.346,-9.867 -2.235,-9.359c-6.125,1.205 -18.308,0.795 -25.114,-2.203c-14.03,-6.179 -24.95,-22.843 -24.95,-56.294c0,-37.097 18.862,-76.817 59.976,-107.275c-48.834,10.417 -97.79,29.685 -158.308,81.375l-0.001,0.001c-52.318,44.658 -103.668,115.826 -123.82,225.703c8.157,-20.632 13.002,-27.614 30.228,-48.941c10.503,-13.003 26.162,-22.809 39.824,-25.91c20.524,-4.649 39.943,2.988 51.214,13.775c11.038,10.565 16.869,25.539 15.904,38.703l0,280.254c0,15.34 -5.061,25.598 -13.305,31.781c-7.99,5.992 -18.138,7.51 -27.128,7.347l-0.002,0c-7.528,-0.139 -16.4,-1.497 -23.356,-2.801c95.567,121.89 222.226,142.7 283.121,142.9z" clip-rule="evenodd" fill-rule="evenodd"/>
   <defs transform="translate(-1 0) translate(0 -6) translate(0 0.218254) translate(-0.0000305176 0) translate(0.031311 0) translate(15 5) translate(-7.5 -37.5) translate(22.5 5) translate(-265 -35) translate(50 -177.5) translate(-17.5 0) translate(72.5 427.5) translate(460 255) translate(-263.509 0) translate(0 -355.402)">
    <filter color-interpolation-filters="sRGB" filterUnits="userSpaceOnUse" height="898.348" width="891.629" y="274.129" x="213.794" id="svg_5">
     <feGaussianBlur stdDeviation="30.8605"/>
    </filter>
   </defs>
  </g>
  <path d="m822.5,457.49976c0,0 -3.1814,-3.0022 -42.5,7.5c-51.17981,13.67038 -104.13617,46.25317 -140,90c-28.57349,34.85406 -36.54987,64.90399 -35,84.99994c1.39954,18.14636 19.02429,31.39783 40,45c21.59583,14.00427 51.67755,29.96997 97.5,35c34.79102,3.81909 79.35986,2.36603 117.5,-15c34.73022,-15.81335 56.22894,-46.90466 59.99994,-82.5c3.95062,-37.29126 -14.62781,-85.04352 -52.49994,-119.99994c-35.66943,-32.92325 -74.05127,-43.90088 -127.5,-30c-47.65881,12.39505 -113.01947,48.89508 -179.99994,115c-93.41202,92.19104 -176.27002,206.12561 -212.49997,299.99994c-23.36899,60.55066 -16.68555,108.04736 2.5,129.99994c21.06812,24.10669 66.38681,44.50208 154.99997,55c64.59631,7.65259 130.12024,6.52832 197.49994,2.5c62.83618,-3.75671 120.64136,-16.26404 160,-40c33.4408,-20.16711 58.508,-59.47705 74.99994,-92.5c15.99268,-32.02319 26.27789,-53.39197 37.5,-84.99994c7.71167,-21.72052 12.80316,-37.72595 10,-55c-2.53271,-15.60724 -21.15143,-36.99976 -50,-55c-40.79803,-25.45618 -94.03516,-42.81384 -162.49994,-52.5c-79.36578,-11.22839 -169.19061,-22.40155 -259.99994,22.5c-44.82025,22.1618 -62.96521,62.3905 -62.5,90c0.67911,40.30554 37.87411,84.07196 92.5,109.99994c62.91455,29.86218 139.40216,47.2381 219.99994,55c67.23523,6.47504 135.3385,18.28912 172.49994,-10c11.599,-8.82971 10.35876,-29.61676 -12.5,-57.5c-38.10529,-46.48096 -103.34552,-90.9104 -162.49994,-117.49994c-51.24194,-23.03296 -95,-30 -135,-37.5l-25,0" id="svg_12" stroke="#000" fill="none"/>
  <path transform="rotate(-139 784.242 801.854)" filter="url(#svg_13_blur)" stroke-width="99" stroke-dasharray="5,2,2,2" d="m666.64737,599.99976c0,0 -0.37335,17.57544 -2.5,47.49994c-3.75946,52.8996 -17.49762,107.33728 -20,165c-2.05939,47.45532 -0.29669,67.56299 2.5,80c2.26141,10.05658 6.97461,20.19604 10,27.49994c2.13928,5.16467 2.5,7.5 2.5,10c0,2.5 -0.76862,5.46503 2.5,10c2.06726,2.86816 1.73358,6.14703 5,7.5c2.30969,0.95673 11.97565,4.97559 30,7.5c27.23419,3.81427 65,0 102.5,0c30,0 55.47308,-0.94208 82.5,-10c51.06036,-17.11255 90.28107,-39.14984 114.99994,-62.49994c25.82965,-24.39935 36.24921,-64.93311 37.5,-100c1.8714,-52.46661 -3.27039,-97.1181 -32.5,-132.5c-27.11487,-32.82202 -78.36188,-59.65601 -139.99994,-69.99994c-101.20667,-16.98425 -175.37659,7.53528 -229.99994,42.49994c-58.54114,37.47247 -94.53482,88.15869 -105,142.5c-8.05096,41.8053 5.4476,90.42688 32.5,127.5c28.15381,38.58252 66.42548,60.72736 104.99994,64.99994c62.1698,6.88605 108.99237,-16.92322 142.5,-62.49994c35.10565,-47.75031 51.97266,-120.11011 47.5,-182.5c-4.90863,-68.47192 -39.33063,-126.95612 -65,-164.99994c-8.95349,-13.26971 -13.71893,-19.09851 -20,-15c-57.18506,37.31439 -86.74249,191.92627 -122.5,352.49994c-22.51691,101.11493 -24.91345,146.57513 -14.99994,174.99994c2.96838,8.51111 7.5,12.5 12.49994,12.5c15,0 60,-7.5 140,-45l259.99994,-120" id="svg_13" stroke="#000" fill="none"/>
  <path stroke="#000" d="m937.49994,637.22171c0,0 -1.30029,-1.75131 -10,-17.0998c-11.14105,-19.65558 -32.49994,-42.74949 -62.49994,-72.67414c-30,-29.92464 -62.11389,-57.52207 -97.5,-76.94908c-34.65808,-19.02739 -72.43311,-32.06076 -107.5,-34.19959c-52.46661,-3.20005 -82.95062,-4.02645 -114.99994,8.5499c-33.14221,13.0052 -64.83539,47.40267 -95,85.49898c-27.3522,34.54443 -48.4838,60.66232 -57.5,94.04888c-8.64297,32.00451 -11.07156,62.49462 -2.5,98.32383c16.85318,70.44659 62.78113,106.55916 107.5,136.79837c53.01416,35.84852 110.03882,45.94725 154.99994,42.74939c60.15594,-4.2786 112.93585,-16.42401 145,-64.12413c25.65411,-38.16425 34.42999,-95.32698 27.5,-149.62322c-14.07367,-110.26624 -56.69666,-172.76389 -95,-222.29735c-34.30597,-44.36408 -67.5,-68.39919 -87.5,-76.94908l-7.5,-4.27484l-5,0" id="svg_14" stroke-dasharray="5,2,2,2" fill="none"/>
 </g>
</svg>