<svg width="1327" height="1327" viewBox="0 0 1327 1327" fill="none" xmlns="http://www.w3.org/2000/svg">
<circle cx="663.502" cy="663.111" r="624.234" fill="url(#paint0_radial_13868_16974)"/>
<path fill-rule="evenodd" clip-rule="evenodd" d="M663.51 1238.04C989.536 1238.04 1253.83 973.742 1253.83 647.716C1253.83 321.69 989.536 57.3933 663.51 57.3933C337.484 57.3933 73.1872 321.69 73.1872 647.716C73.1872 973.742 337.484 1238.04 663.51 1238.04ZM663.51 1276.75C1010.92 1276.75 1292.54 995.121 1292.54 647.716C1292.54 300.311 1010.92 18.6836 663.51 18.6836C316.105 18.6836 34.4775 300.311 34.4775 647.716C34.4775 995.121 316.105 1276.75 663.51 1276.75Z" fill="#313131"/>
<path fill-rule="evenodd" clip-rule="evenodd" d="M663.51 1253.41C989.536 1253.41 1253.83 989.112 1253.83 663.085C1253.83 337.059 989.536 72.7624 663.51 72.7624C337.484 72.7624 73.1872 337.059 73.1872 663.085C73.1872 989.112 337.484 1253.41 663.51 1253.41ZM663.51 1292.12C1010.92 1292.12 1292.54 1010.49 1292.54 663.085C1292.54 315.68 1010.92 34.0527 663.51 34.0527C316.105 34.0527 34.4775 315.68 34.4775 663.085C34.4775 1010.49 316.105 1292.12 663.51 1292.12Z" fill="url(#paint1_linear_13868_16974)"/>
<path fill-rule="evenodd" clip-rule="evenodd" d="M1258.63 663.085C1258.63 991.761 992.186 1258.21 663.51 1258.21C334.834 1258.21 68.3891 991.761 68.3891 663.085C68.3891 334.409 334.834 67.9643 663.51 67.9643C992.186 67.9643 1258.63 334.409 1258.63 663.085ZM663.51 1287.32C1008.27 1287.32 1287.74 1007.84 1287.74 663.085C1287.74 318.33 1008.27 38.8508 663.51 38.8508C318.755 38.8508 39.2757 318.33 39.2757 663.085C39.2757 1007.84 318.755 1287.32 663.51 1287.32ZM1253.83 663.085C1253.83 989.112 989.536 1253.41 663.51 1253.41C337.484 1253.41 73.1872 989.112 73.1872 663.085C73.1872 337.059 337.484 72.7624 663.51 72.7624C989.536 72.7624 1253.83 337.059 1253.83 663.085ZM1292.54 663.085C1292.54 1010.49 1010.92 1292.12 663.51 1292.12C316.105 1292.12 34.4775 1010.49 34.4775 663.085C34.4775 315.68 316.105 34.0527 663.51 34.0527C1010.92 34.0527 1292.54 315.68 1292.54 663.085Z" fill="url(#paint2_radial_13868_16974)"/>
<g filter="url(#filter0_d_13868_16974)">
<path d="M1033.15 741.651C981.446 794.133 924.685 847.3 883.347 824.343C883.046 795.772 881.091 607.306 881.091 526.349C881.091 408.427 993.997 320.516 993.997 320.516H993.919L983.441 309H983.364C921.33 320.071 846.85 341.866 767.897 418.821C761.869 424.723 754.985 432.13 747.634 440.963C713.681 415.118 669.771 422.949 669.771 422.949L680.327 434.464C684.813 436.912 689.301 440.247 693.629 444.257C707.154 461.423 717.181 484.425 717.181 504.688V811.123C717.181 811.123 665.454 856.255 625.55 856.255C609.344 856.255 597.404 850.219 588.946 843.049C584.219 836.476 582.2 831.202 582.2 831.202V452.749L571.644 441.233C565.208 446.5 550.406 451.204 538.296 443.728C533.637 435.32 530.59 422.822 530.59 404.724C530.59 364.028 560.226 315.424 612.887 285.644L602.331 274.129C549.009 282.461 479.469 302.635 408.022 363.66C350.811 412.495 275.67 510.744 275.515 654.627L286.07 666.142C286.07 666.142 323.408 546.716 371.674 535.761C388.476 531.955 402.274 536.058 412.259 543.838C417.733 552.219 420.362 561.891 419.69 570.457V850.893C419.69 879.323 401.177 885.533 384.142 885.224C369.596 884.954 349.061 879.824 349.061 879.824C359.688 894.291 370.806 907.477 382.264 919.489C478.439 1028.66 602.968 1049.32 660.88 1049.03L768.941 941.355L822.892 1001.29C822.936 1001.27 822.981 1001.25 823.025 1001.23L833.448 1012.81C986.18 939.712 1032.77 803.043 1043.7 753.166L1033.15 741.651Z" fill="#313131"/>
</g>
<path fill-rule="evenodd" clip-rule="evenodd" d="M1043.72 753.16C1032.8 803.037 986.202 939.706 833.47 1012.8L769.064 941.249L660.903 1049.03C598.324 1049.33 457.96 1025.19 359.639 891.334C359.639 891.334 380.174 896.464 394.72 896.734C411.755 897.043 430.268 890.832 430.268 862.403V581.967C432.096 558.668 409.5 527.191 371.696 535.755C323.43 546.71 286.093 666.136 286.093 666.136C286.248 522.254 361.389 424.005 418.601 375.17C490.047 314.145 559.587 293.971 612.909 285.639C560.248 315.418 530.612 364.022 530.612 404.718C530.612 470.14 570.438 462.387 582.223 452.743V831.196C582.223 831.196 584.556 837.291 590.079 844.543C598.013 854.997 612.559 867.765 636.128 867.765C676.032 867.765 727.759 822.633 727.759 822.633V516.198C727.759 485.03 704.035 447.381 680.349 434.459C680.349 434.459 724.259 426.628 758.212 452.473C765.563 443.639 772.447 436.233 778.476 430.331C857.428 353.375 931.908 331.581 993.942 320.51H994.02C994.02 320.51 881.114 408.421 881.114 526.343C881.114 614.061 883.408 827.995 883.408 827.995C925.257 868.151 987.486 810.25 1043.72 753.16Z" fill="url(#paint3_linear_13868_16974)"/>
<path fill-rule="evenodd" clip-rule="evenodd" d="M833.47 1012.8C977.806 943.724 1027.35 817.871 1041.59 762.148C1042.42 758.906 1043.12 755.902 1043.72 753.16C1041.58 755.34 1039.42 757.521 1037.26 759.697C982.763 814.529 923.659 866.617 883.408 827.995C883.408 827.995 881.114 614.061 881.114 526.343C881.114 426.878 961.441 348.765 986.587 326.749C990.799 323.061 993.463 320.947 993.942 320.571C993.945 320.568 993.948 320.566 993.951 320.563C993.997 320.528 994.019 320.51 994.019 320.51H993.942C990.796 321.071 987.618 321.66 984.409 322.283C924.342 333.933 853.424 357.278 778.476 430.331C772.447 436.233 765.563 443.639 758.212 452.473C732.962 433.252 702.204 432.657 688.096 433.614C683.234 433.944 680.349 434.459 680.349 434.459C682.482 435.623 684.616 436.987 686.733 438.53C708.116 454.111 727.759 487.837 727.759 516.198V822.633C727.759 822.633 676.032 867.765 636.128 867.765C612.559 867.765 598.013 854.997 590.079 844.543C584.556 837.291 582.223 831.196 582.223 831.196V452.743C580.93 453.8 579.301 454.835 577.424 455.753C562.183 463.207 530.612 462.967 530.612 404.718C530.612 366.964 556.118 322.404 601.852 292.382C605.416 290.042 609.102 287.791 612.909 285.639C608.716 286.294 604.423 287.022 600.036 287.838C548.639 297.396 484.429 318.944 418.601 375.17C363.493 422.209 291.751 515.094 286.41 650.446C286.206 655.614 286.098 660.844 286.093 666.136C286.093 666.136 287.879 660.423 291.175 651.38C302.949 619.081 333.987 544.314 371.696 535.755C409.5 527.191 432.096 558.668 430.268 581.967V862.403C430.268 890.832 411.755 897.043 394.72 896.734C385.599 896.565 374.122 894.484 366.831 892.956C362.495 892.047 359.639 891.334 359.639 891.334C361.112 893.339 362.595 895.32 364.087 897.277C462.149 1025.9 599.262 1049.33 660.903 1049.03L769.064 941.249L833.47 1012.8ZM654.396 1041.63L767.151 930.794L830.966 1001.81C951.879 937.991 998.42 854.983 1026.73 778.214C1002.33 802.491 984.919 816.677 960.628 831.165C946.39 839.658 932.152 845.33 918.46 846.062C904.55 846.805 888.937 845.318 877.508 834.351C877.508 834.351 871.867 829.074 871.867 822.1C871.851 820.511 871.826 818.17 871.795 815.159C871.732 809.137 871.642 803.959 871.535 793.245C871.319 771.817 871.033 742.332 870.746 710.106C870.172 645.661 869.598 568.307 869.598 524.424C869.598 463.953 894.563 418.518 923.09 381.41C937.907 362.135 951.491 347.786 969.152 331.509C911.456 343.574 852.626 364.758 781.829 433.763C775.926 439.542 769.154 446.826 761.901 455.542L758.962 459.073L754.676 457.7C737.883 446.664 725.699 442.134 711.013 440.906C706.521 440.531 700.631 440.841 697.099 440.906C705.721 448.213 710.64 455.258 717.058 466.03C726.244 481.447 732.557 499.499 732.557 516.198V824.814L730.914 826.248L727.759 822.633C730.914 826.248 730.912 826.25 730.912 826.25L730.909 826.253L730.899 826.261L730.865 826.29C730.837 826.315 730.795 826.351 730.742 826.397C730.635 826.489 730.48 826.622 730.278 826.794C729.873 827.139 729.281 827.638 728.516 828.27C726.988 829.533 724.771 831.329 721.988 833.481C716.428 837.779 708.587 843.515 699.464 849.259C681.465 860.592 657.549 872.563 636.128 872.563C610.563 872.563 588.997 857.056 580.505 845.867C576.928 841.17 570.113 833.723 570.113 826.794L572.348 472.574C572.348 472.574 572.694 462.707 570.113 463.215C563.988 464.42 551.805 464.01 544.999 461.012C530.969 454.833 520.049 438.169 520.049 404.718C520.049 367.621 538.911 327.901 580.025 297.443C531.191 307.86 482.235 327.128 421.717 378.818L421.716 378.819C369.398 423.477 318.048 494.645 297.896 604.522C306.053 583.89 310.898 576.908 328.124 555.581C338.627 542.578 354.286 532.772 367.948 529.671C388.472 525.022 407.891 532.659 419.162 543.446C430.2 554.011 436.031 568.985 435.066 582.149V862.403C435.066 877.743 430.005 888.001 421.761 894.184C413.771 900.176 403.623 901.694 394.633 901.531H394.631C387.103 901.392 378.231 900.034 371.275 898.73C466.842 1020.62 593.501 1041.43 654.396 1041.63Z" fill="#E1E2E2" fill-opacity="0.7"/>
<defs>
<filter id="filter0_d_13868_16974" x="213.794" y="274.129" width="891.629" height="898.348" filterUnits="userSpaceOnUse" color-interpolation-filters="sRGB">
<feFlood flood-opacity="0" result="BackgroundImageFix"/>
<feColorMatrix in="SourceAlpha" type="matrix" values="0 0 0 0 0 0 0 0 0 0 0 0 0 0 0 0 0 0 127 0" result="hardAlpha"/>
<feOffset dy="61.7209"/>
<feGaussianBlur stdDeviation="30.8605"/>
<feComposite in2="hardAlpha" operator="out"/>
<feColorMatrix type="matrix" values="0 0 0 0 0 0 0 0 0 0 0 0 0 0 0 0 0 0 0.25 0"/>
<feBlend mode="normal" in2="BackgroundImageFix" result="effect1_dropShadow_13868_16974"/>
<feBlend mode="normal" in="SourceGraphic" in2="effect1_dropShadow_13868_16974" result="shape"/>
</filter>
<radialGradient id="paint0_radial_13868_16974" cx="0" cy="0" r="1" gradientUnits="userSpaceOnUse" gradientTransform="translate(663.502 663.111) rotate(90) scale(624.234)">
<stop offset="0.802672" stop-color="#151515"/>
<stop offset="0.931652"/>
</radialGradient>
<linearGradient id="paint1_linear_13868_16974" x1="663.51" y1="34.0527" x2="663.51" y2="1292.12" gradientUnits="userSpaceOnUse">
<stop stop-color="#858787"/>
<stop offset="0.151042" stop-color="#828586"/>
<stop offset="0.322917" stop-color="#989B9C"/>
<stop offset="0.458574" stop-color="#ABADAE"/>
<stop offset="0.57548" stop-color="#9FA2A3"/>
<stop offset="0.760417" stop-color="#606566"/>
<stop offset="0.877173" stop-color="#525555"/>
<stop offset="1" stop-color="#596161"/>
</linearGradient>
<radialGradient id="paint2_radial_13868_16974" cx="0" cy="0" r="1" gradientUnits="userSpaceOnUse" gradientTransform="translate(663.51 663.085) rotate(90) scale(629.033)">
<stop offset="0.9389" stop-color="white"/>
<stop offset="1" stop-color="white" stop-opacity="0.6"/>
</radialGradient>
<linearGradient id="paint3_linear_13868_16974" x1="664.909" y1="285.639" x2="664.909" y2="1049.03" gradientUnits="userSpaceOnUse">
<stop stop-color="#858787"/>
<stop offset="0.151042" stop-color="#828586"/>
<stop offset="0.322917" stop-color="#989B9C"/>
<stop offset="0.458574" stop-color="#ABADAE"/>
<stop offset="0.57548" stop-color="#9FA2A3"/>
<stop offset="0.760417" stop-color="#606566"/>
<stop offset="0.877173" stop-color="#525555"/>
<stop offset="1" stop-color="#596161"/>
</linearGradient>
</defs>
</svg>
